<?xml version="1.0" standalone="no"?>
<!DOCTYPE svg PUBLIC "-//W3C//DTD SVG 1.1//EN" "http://www.w3.org/Graphics/SVG/1.1/DTD/svg11.dtd" >
<svg xmlns="http://www.w3.org/2000/svg" xmlns:xlink="http://www.w3.org/1999/xlink" version="1.1">
<metadata></metadata>
<defs>
<font id="urw_grotesk_condbold" horiz-adv-x="819" >
<font-face units-per-em="2048" ascent="1638" descent="-410" />
<missing-glyph horiz-adv-x="471" />
<glyph unicode="&#xfb01;" horiz-adv-x="942" d="M39 881v204h84q0 81 8 124.5t31 76.5q68 100 233 100q60 0 131 -14l-51 -176q-41 8 -49 8q-72 0 -72 -100v-19h121v-204h-106v-881h-246v881h-84zM594 1319q0 53 38 91t91 38t92 -39t39 -92q0 -52 -39 -90.5t-92 -38.5q-55 0 -92 37.5t-37 93.5zM600 0v1085h246v-1085 h-246z" />
<glyph unicode="&#xfb02;" horiz-adv-x="942" d="M39 881v204h84q0 81 8 124.5t31 76.5q68 100 233 100q60 0 131 -14l-51 -176q-41 8 -49 8q-72 0 -72 -100v-19h121v-204h-106v-881h-246v881h-84zM600 0v1366h246v-1366h-246z" />
<glyph unicode="&#xfb03;" horiz-adv-x="1447" d="M39 881v204h84q0 81 8 124.5t31 76.5q68 100 233 100q60 0 131 -14l-51 -176q-41 8 -49 8q-72 0 -72 -100v-19h121v-204h-106v-881h-246v881h-84zM545 881v204h82q0 81 8 124.5t31 76.5q68 100 233 100q62 0 133 -14l-51 -176q-44 8 -49 8q-38 0 -56 -24t-18 -76v-19h123 v-204h-109v-881h-245v881h-82zM1098 1319q0 51 39 90t90 39q54 0 92.5 -38.5t38.5 -92.5t-38 -91.5t-93 -37.5q-53 0 -91 38.5t-38 92.5zM1106 0v1085h246v-1085h-246z" />
<glyph unicode="&#xfb04;" horiz-adv-x="1447" d="M39 881v204h84q0 81 8 124.5t31 76.5q68 100 233 100q60 0 131 -14l-51 -176q-41 8 -49 8q-72 0 -72 -100v-19h121v-204h-106v-881h-246v881h-84zM545 881v204h82q0 81 8 124.5t31 76.5q68 100 233 100q62 0 133 -14l-51 -176q-44 8 -49 8q-38 0 -56 -24t-18 -76v-19h123 v-204h-109v-881h-245v881h-82zM1106 0v1366h246v-1366h-246z" />
<glyph horiz-adv-x="0" />
<glyph horiz-adv-x="682" />
<glyph unicode=" "  horiz-adv-x="471" />
<glyph unicode="&#x09;" horiz-adv-x="471" />
<glyph unicode="&#xa0;" horiz-adv-x="471" />
<glyph unicode="!" horiz-adv-x="436" d="M88 131q0 59 41.5 100t101.5 41t102 -41.5t42 -101.5q0 -58 -42.5 -100.5t-101.5 -42.5q-60 0 -101.5 42.5t-41.5 102.5zM109 903v463h245v-463l-47 -493h-157z" />
<glyph unicode="&#x22;" horiz-adv-x="763" d="M84 1366h268l-49 -549h-170zM414 1366h268l-51 -549h-168z" />
<glyph unicode="#" horiz-adv-x="677" d="M8 197l33 213h119l73 464h-118l35 213h116l33 199h70l-31 -199h149l31 199h72l-33 -199h119l-35 -213h-117l-73 -464h116l-32 -213h-119l-31 -197h-72l33 197h-149l-31 -197h-72l31 197h-117zM229 410h148l74 464h-148z" />
<glyph unicode="$" d="M35 356l223 62v-23q0 -177 117 -202v370q-23 18 -33 25q-122 91 -154 119t-61 69q-74 95 -74 248q0 156 85 251.5t237 108.5v166h65v-166q151 -5 227 -88t91 -260l-213 -47q-6 99 -29 143t-76 54v-361q24 -20 39 -30l121 -88q98 -70 143 -152t45 -188q0 -172 -92 -273 t-256 -110v-166h-65v166h-25q-56 0 -114 22t-95 57q-49 45 -73.5 114t-32.5 179zM281 1044q0 -53 18 -85.5t76 -86.5v310q-53 -17 -73.5 -47.5t-20.5 -90.5zM440 184q61 20 88 54.5t27 93.5q0 55 -20 87.5t-95 100.5v-336z" />
<glyph unicode="%" horiz-adv-x="991" d="M41 1024q0 222 18 264q37 84 152 84q131 0 158 -112q8 -36 8 -236q0 -142 -3.5 -189t-15.5 -73q-17 -40 -56.5 -63t-92.5 -23q-63 0 -105 29t-55 83q-8 54 -8 236zM160 1038q0 -180 7.5 -220t41.5 -40q39 0 45 53q4 50 4 197q0 171 -6.5 206.5t-40.5 35.5 q-35 0 -43 -36.5t-8 -195.5zM301 0l301 1366h96l-301 -1366h-96zM614 342q0 217 19 262q36 86 151 86q62 0 103.5 -29t54.5 -83q8 -36 8 -236q0 -146 -3 -192t-15 -72q-35 -84 -150 -84q-132 0 -159 112q-9 56 -9 236zM733 354q0 -99 1 -144t7 -74.5t14 -34.5t27 -5 q35 0 42 35.5t7 212.5q0 168 -6 203q-3 20 -14 30.5t-27 10.5q-35 0 -43 -37.5t-8 -196.5z" />
<glyph unicode="&#x26;" horiz-adv-x="1064" d="M55 399q0 121 46.5 200t172.5 171q-53 162 -53 301q0 141 76.5 218t214.5 77q129 0 206 -73t77 -197q0 -94 -52 -172t-198 -199q75 -184 160 -285q45 91 45 189q0 29 -9 82l228 -64q2 -29 2 -63q0 -77 -19 -147.5t-65 -168.5q15 -12 151 -110l-188 -185q-13 7 -23.5 13.5 t-18.5 11t-16.5 10.5t-13 9t-14 10.5t-13.5 10.5t-16 13l-18 15q-84 -51 -130 -65.5t-118 -14.5q-191 0 -302.5 111.5t-111.5 301.5zM303 408q0 -95 53 -156.5t136 -61.5q53 0 108 31q-144 147 -233 342q-35 -41 -49.5 -76t-14.5 -79zM440 1047q0 -60 27 -154q49 41 61 55 q50 47 50 119q0 44 -18 69t-50 25q-70 0 -70 -114z" />
<glyph unicode="'" horiz-adv-x="434" d="M84 1366h268l-49 -549h-170z" />
<glyph unicode="(" horiz-adv-x="505" d="M35 629q0 192 24.5 333t81.5 281q36 87 72 142t98 118l117 -12q-49 -93 -73 -159.5t-42 -162.5q-53 -273 -53 -598q0 -273 33 -450.5t108 -317.5h-116q-130 139 -190 337t-60 489z" />
<glyph unicode=")" horiz-adv-x="505" d="M80 -184q49 90 72.5 156t42.5 165q53 273 53 598q0 274 -33 451.5t-109 316.5h117q131 -140 190.5 -336.5t59.5 -488.5q0 -192 -24.5 -333.5t-81.5 -281.5q-36 -87 -72 -142t-98 -118z" />
<glyph unicode="*" horiz-adv-x="628" d="M6 1141l17 47l237 -41l35 239h49l35 -239l237 41l17 -47l-219 -107l114 -213l-41 -30l-168 174l-167 -174l-41 30l112 213z" />
<glyph unicode="+" horiz-adv-x="737" d="M23 453v174h256v258h186v-258h248v-174h-248v-252h-186v252h-256z" />
<glyph unicode="," horiz-adv-x="409" d="M76 -356q54 183 65 387v188h201v-215q-32 -106 -51.5 -150.5t-73.5 -138.5l-39 -71h-102z" />
<glyph unicode="-" horiz-adv-x="454" d="M49 547v205h404v-205h-404z" />
<glyph unicode="." horiz-adv-x="436" d="M88 131q0 59 41.5 100t101.5 41t102 -41.5t42 -101.5q0 -58 -42.5 -100.5t-101.5 -42.5q-60 0 -101.5 42.5t-41.5 102.5z" />
<glyph unicode="/" horiz-adv-x="598" d="M102 -190l301 1683h138l-301 -1683h-138z" />
<glyph unicode="0" d="M74 684q0 227 6 356q5 100 26 160.5t68 102.5q86 77 242 77q123 0 205 -59t108 -166q16 -71 16 -471q0 -284 -6 -379t-28 -149q-35 -82 -113.5 -126t-187.5 -44q-127 0 -209.5 58.5t-108.5 166.5q-18 77 -18 473zM313 711q0 -372 11 -437q15 -84 86 -84q57 0 76.5 52.5 t19.5 206.5v237v232q0 152 -19.5 205t-74.5 53q-82 0 -93 -109q-6 -74 -6 -356z" />
<glyph unicode="1" d="M178 995v201q89 25 147.5 63t112.5 107h140v-1366h-246v1026z" />
<glyph unicode="2" d="M57 0q4 94 11.5 147.5t33 115.5t62.5 118t112 154q138 180 169.5 247.5t31.5 184.5q0 113 -18.5 161t-61.5 48q-68 0 -80 -103q-5 -30 -8 -127l-217 33q2 122 14.5 182t47.5 107q83 112 245 112q157 0 237.5 -100.5t80.5 -294.5q0 -160 -76 -295q-31 -54 -57.5 -92 t-157.5 -211q-32 -44 -45 -73t-25 -83h373v-231h-672z" />
<glyph unicode="3" d="M63 387l230 53q-4 -94 -4 -108q0 -75 20 -108.5t66 -33.5q56 0 73 43.5t17 182.5q0 91 -13.5 130t-50.5 58q-38 19 -149 21v194q48 1 78.5 3.5t55 11.5t37.5 21.5t22 36t11.5 52.5t2.5 74q0 86 -20 122t-66 36q-69 0 -84 -103q-5 -31 -8 -127l-218 33q2 124 14.5 183 t49.5 106q81 112 252 112q99 0 170 -40.5t106 -118.5q15 -29 26 -94.5t11 -120.5q0 -102 -33 -172q-15 -34 -42 -57.5t-80 -47.5q55 -12 84.5 -29t48.5 -47q53 -88 53 -268q0 -204 -83 -301.5t-255 -97.5q-102 0 -179 40.5t-112 112.5q-17 38 -23.5 87t-7.5 161z" />
<glyph unicode="4" d="M41 262v174l375 930h221v-907h127v-197h-127v-262h-207v262h-389zM250 459h180v577z" />
<glyph unicode="5" d="M96 356l221 43v-39v-57q0 -113 84 -113q72 0 84 82q9 49 9 174q0 143 -11 197q-8 41 -32.5 64.5t-61.5 23.5t-57 -20t-39 -74l-180 29v700h553v-231h-349v-269q46 36 84.5 51t85.5 15q77 0 136 -37.5t84 -103.5q32 -81 32 -304q0 -151 -12 -233t-43 -137 q-72 -131 -281 -131q-113 0 -188 45t-98 127q-12 41 -16.5 79t-4.5 119z" />
<glyph unicode="6" d="M76 647q0 254 12 376.5t43 184.5q43 84 119 128t178 44q92 0 159 -37t99 -106q17 -36 22 -71t5 -111l-217 -64q-3 109 -19 147t-59 38q-52 0 -74 -64q-9 -30 -11.5 -66t-2.5 -163v-101q46 37 81.5 50.5t86.5 13.5q141 0 198 -111q20 -38 32.5 -121t12.5 -176 q0 -452 -340 -452q-108 0 -184.5 48t-107.5 134q-33 98 -33 479zM322 420q0 -87 4 -124.5t16 -62.5q22 -43 70 -43q53 0 75 64q15 44 15 164q0 141 -23 186q-25 45 -69 45q-54 0 -76 -63q-12 -46 -12 -166z" />
<glyph unicode="7" d="M82 1135v231h651v-207q-167 -365 -218 -578.5t-58 -580.5h-250q4 249 58 450.5t245 684.5h-428z" />
<glyph unicode="8" d="M82 406q0 142 30.5 208t116.5 107q-80 47 -108.5 106.5t-28.5 178.5q0 195 76 280q40 43 106 68.5t136 25.5t135.5 -25.5t105.5 -68.5q76 -85 76 -280q0 -122 -27.5 -180t-109.5 -105q86 -41 116.5 -106.5t30.5 -208.5q0 -116 -13.5 -184.5t-47.5 -117.5 q-77 -118 -266 -118q-190 0 -267 118q-33 49 -47 118t-14 184zM313 401q0 -130 20.5 -177.5t76.5 -47.5q28 0 50 15t29 40q17 47 17 175q0 137 -18.5 182t-75.5 45q-60 0 -79.5 -45.5t-19.5 -186.5zM317 995q0 -98 17 -139q9 -20 31 -33.5t45 -13.5q25 0 45.5 12.5 t29.5 34.5q11 22 14 48t3 95t-3 95.5t-14 46.5q-9 21 -30 35t-43 14q-25 0 -46 -13.5t-32 -35.5q-10 -20 -13.5 -48.5t-3.5 -97.5z" />
<glyph unicode="9" d="M88 909q0 135 15 217t49 136q73 118 262 118q126 0 200.5 -54.5t102.5 -166.5q33 -129 33 -469q0 -427 -50 -538q-70 -166 -299 -166q-174 0 -254 118q-26 40 -37 89t-12 141l224 41q0 -87 8 -123q7 -29 27.5 -45.5t48.5 -16.5q51 0 70.5 30t25.5 114q2 35 2 233 q-43 -35 -81 -49t-91 -14q-44 0 -86 15.5t-68 41.5q-49 49 -69.5 128.5t-20.5 219.5zM328 942q0 -134 18.5 -183.5t67.5 -49.5t68.5 51t19.5 182q0 129 -19.5 181.5t-66.5 52.5q-51 0 -69.5 -50t-18.5 -184z" />
<glyph unicode=":" horiz-adv-x="436" d="M88 131q0 59 41.5 100t101.5 41t102 -41.5t42 -101.5q0 -58 -42.5 -100.5t-101.5 -42.5q-60 0 -101.5 42.5t-41.5 102.5zM88 956q0 59 42.5 101.5t100.5 42.5q59 0 101.5 -43t42.5 -101q0 -60 -42 -101.5t-102 -41.5t-101.5 41.5t-41.5 101.5z" />
<glyph unicode=";" horiz-adv-x="409" d="M76 -356q54 183 65 387v188h201v-215q-32 -106 -51.5 -150.5t-73.5 -138.5l-39 -71h-102zM80 956q0 58 42 101t99 43q60 0 103 -42.5t43 -101.5q0 -60 -43 -101.5t-103 -41.5t-100.5 41t-40.5 102z" />
<glyph unicode="&#x3c;" horiz-adv-x="1161" d="M57 418v117l942 364l103 -145l-721 -281l721 -283l-127 -143z" />
<glyph unicode="=" horiz-adv-x="737" d="M29 307v180h680v-180h-680zM29 604v174h680v-174h-680z" />
<glyph unicode="&#x3e;" horiz-adv-x="1161" d="M57 190l721 283l-721 281l103 145l942 -364v-117l-918 -371z" />
<glyph unicode="?" horiz-adv-x="710" d="M68 979q4 100 18 159t43 109q38 63 108 98t158 35q134 0 210.5 -76.5t76.5 -209.5q0 -92 -27 -166q-18 -46 -35 -74t-81 -111q-65 -88 -83.5 -150t-17.5 -187h-196q-9 86 -9 116q0 102 30 177.5t116 189.5q52 70 64 97t12 77q0 113 -66 113q-51 0 -73.5 -52t-24.5 -172z M205 131q0 59 41.5 100t99.5 41q61 0 103.5 -41.5t42.5 -101.5q0 -58 -42.5 -100.5t-101.5 -42.5q-60 0 -101.5 42.5t-41.5 102.5z" />
<glyph unicode="@" horiz-adv-x="1447" d="M47 588q0 159 56 297t154 236t236.5 154t297.5 56q268 0 431.5 -141t163.5 -371q0 -137 -59 -259.5t-157 -195.5t-207 -73q-63 0 -100.5 27.5t-57.5 89.5q-97 -109 -213 -109q-100 0 -157.5 72t-57.5 198q0 191 102 327t244 136q66 0 106.5 -25t69.5 -85l19 98h157 l-84 -377q-20 -94 -20 -125q0 -38 19 -63t50 -25q51 0 98.5 54t77 141.5t29.5 179.5q0 186 -119 300t-311 114q-266 0 -440 -213q-75 -91 -115.5 -204t-40.5 -233q0 -216 139.5 -347.5t368.5 -131.5q117 0 211.5 31t212.5 106l-25 -100q-117 -83 -220.5 -118.5t-229.5 -35.5 q-283 0 -456 169t-173 446zM551 557q0 -66 23.5 -101.5t66.5 -35.5q91 0 150 125q55 120 55 252q0 135 -101 135q-82 0 -139 -123q-23 -52 -39 -126t-16 -126z" />
<glyph unicode="A" horiz-adv-x="751" d="M-27 0l269 1366h243l293 -1366h-262l-47 248h-211l-43 -248h-242zM281 455h153l-76 544z" />
<glyph unicode="B" horiz-adv-x="880" d="M109 0v1366h372q80 0 131.5 -9.5t89.5 -31t58 -63t28.5 -98.5t8.5 -144q0 -144 -28 -202t-118 -99q77 -17 112 -45t48.5 -84t13.5 -172q0 -149 -25 -230.5t-83 -124.5q-85 -63 -234 -63h-374zM360 219h74q75 0 100 33t25 133q0 146 -16 186q-20 54 -107 54h-76v-406z M360 821h74q68 0 95.5 38t27.5 130q0 94 -24 126t-95 32h-78v-326z" />
<glyph unicode="C" horiz-adv-x="815" d="M76 666q0 336 6 419.5t35 143.5q74 151 317 151q178 0 262 -90q33 -37 47 -94.5t15 -163.5l2 -102l-246 -37q0 163 -6 201q-6 26 -29.5 43.5t-54.5 17.5q-28 0 -49.5 -14t-30.5 -37q-11 -28 -13 -68q-1 -27 -1 -99v-83l-2 -205v-80q0 -244 16 -301q20 -57 84 -57 q47 0 66.5 29.5t19.5 101.5v76q2 16 2 33q0 28 -2 51l246 -21l2 -100q0 -126 -18.5 -189.5t-71.5 -119.5q-83 -86 -244 -86q-108 0 -187 35.5t-114 99.5q-25 45 -34.5 90.5t-13 137t-3.5 317.5z" />
<glyph unicode="D" horiz-adv-x="909" d="M109 0v1366h321q127 0 196 -15.5t115 -54.5q54 -44 73 -121q17 -70 17 -215v-32l3 -223v-238q0 -183 -26 -271t-95 -137q-82 -59 -256 -59h-348zM360 219h99q66 0 92 33q15 24 20.5 50.5t6.5 98.5l4 289q0 356 -19 404q-13 29 -35.5 41t-62.5 12h-105v-928z" />
<glyph unicode="E" horiz-adv-x="778" d="M109 0v1366h591v-219h-340v-293h316v-219h-316v-416h363v-219h-614z" />
<glyph unicode="F" horiz-adv-x="720" d="M109 0v1366h557v-219h-306v-287h306v-219h-306v-641h-251z" />
<glyph unicode="G" horiz-adv-x="874" d="M76 668v213q0 170 15.5 250t58.5 137q41 52 117.5 82t170.5 30q220 0 285 -139q20 -41 25 -91q5 -38 5 -123q0 -31 -1 -69l-240 -40v45q0 113 -17.5 152.5t-66.5 39.5q-51 0 -73 -33.5t-25 -113.5l-2 -232q0 -430 8 -479q17 -86 94 -86q60 0 84 39q12 22 12 82v237h-123 v205h375v-774h-168l-41 76q-58 -49 -109 -69.5t-116 -20.5q-104 0 -170 51.5t-86 148.5q-9 44 -10.5 105.5t-1.5 376.5z" />
<glyph unicode="H" horiz-adv-x="944" d="M109 0v1366h251v-520h224v520h252v-1366h-252v641h-224v-641h-251z" />
<glyph unicode="I" horiz-adv-x="471" d="M109 0v1366h251v-1366h-251z" />
<glyph unicode="J" horiz-adv-x="460" d="M-102 -68q129 0 172 34.5t43 137.5v1262h252v-1243q0 -273 -129 -346q-62 -37 -242 -37h-49z" />
<glyph unicode="K" horiz-adv-x="774" d="M0 0v1366h252v-551l227 551h246l-270 -604l317 -762h-262l-258 674v-674h-252z" />
<glyph unicode="L" horiz-adv-x="632" d="M109 0v1366h251v-1147h299v-219h-550z" />
<glyph unicode="M" horiz-adv-x="1157" d="M109 0v1366h233l238 -852l237 852h230v-1366h-232v768l-170 -768h-135l-170 768v-768h-231z" />
<glyph unicode="N" horiz-adv-x="927" d="M109 0v1366h198l287 -750v750h225v-1366h-190l-295 795v-795h-225z" />
<glyph unicode="O" horiz-adv-x="870" d="M76 684q0 234 4 335t15 152t38 91q81 118 309 118q259 0 324 -170q20 -50 25.5 -145.5t5.5 -380.5q0 -331 -9.5 -427t-48.5 -153q-80 -118 -303 -118q-262 0 -330 170q-20 50 -25 144t-5 384zM328 809q0 -377 4 -471q3 -65 28 -96t76 -31q89 0 103 100q6 43 6 471 q0 258 -13 301q-9 34 -34 53t-60 19q-90 0 -104 -100q-6 -41 -6 -246z" />
<glyph unicode="P" horiz-adv-x="825" d="M109 0v1366h348q107 0 173 -18.5t109 -59.5q51 -47 67.5 -111t16.5 -208q0 -103 -8.5 -160.5t-30.5 -101.5q-87 -175 -346 -175h-78v-532h-251zM360 743h80q75 0 104 44.5t29 160.5q0 118 -27.5 158.5t-107.5 40.5h-78v-404z" />
<glyph unicode="Q" horiz-adv-x="870" d="M76 684q0 234 4 335t15 152t38 91q80 118 303 118q262 0 330 -170q20 -50 25.5 -145.5t5.5 -380.5v-168.5t-2.5 -127t-4 -97.5t-8 -69.5t-12 -53t-18 -37.5t-23.5 -33.5t-31 -31.5l342 -179l-192 -118l-381 219q-18 -2 -45 -2q-121 0 -202.5 43.5t-113.5 126.5 q-20 50 -25 144t-5 384zM328 791q0 -383 4 -453q6 -127 104 -127q88 0 103 98q6 47 6 381q0 221 -2.5 293.5t-10.5 99.5q-9 34 -34 53t-60 19q-89 0 -104 -98q-6 -37 -6 -266z" />
<glyph unicode="R" horiz-adv-x="911" d="M109 0v1366h354q192 0 275 -77.5t83 -256.5q0 -160 -48.5 -240.5t-168.5 -117.5l307 -674h-280l-271 639v-639h-251zM360 807q123 0 171.5 41t48.5 147q0 79 -33 115.5t-105 36.5h-82v-340z" />
<glyph unicode="S" horiz-adv-x="804" d="M55 426l228 55q2 -143 16 -196q27 -88 102 -88q22 0 46 10.5t34 25.5q11 15 19 49t8 66q0 78 -39.5 133t-153.5 133q-106 73 -157.5 127.5t-71.5 113.5t-20 153q0 193 96 282q96 90 256 90q104 0 176.5 -40t103.5 -115q15 -39 21.5 -89t7.5 -153l-217 -53q2 25 2 55 q0 105 -23.5 151t-78.5 46q-52 0 -75.5 -39t-23.5 -127q0 -81 72 -144q38 -33 125 -96q145 -106 194.5 -192t49.5 -232q0 -185 -92 -275.5t-281 -90.5q-231 0 -295 159q-17 42 -23 100.5t-6 180.5z" />
<glyph unicode="T" horiz-adv-x="690" d="M0 1147v219h690v-219h-219v-1147h-252v1147h-219z" />
<glyph unicode="U" horiz-adv-x="905" d="M96 395v971h252v-995q0 -89 21 -119q12 -17 36.5 -29t49.5 -12q23 0 47.5 12t36.5 29q20 29 20 119v995h252v-971q0 -137 -14 -200.5t-52 -108.5q-86 -100 -290 -100q-243 0 -318 135q-24 41 -32.5 97.5t-8.5 176.5z" />
<glyph unicode="V" horiz-adv-x="702" d="M-27 1366h248l141 -864l132 864h237l-268 -1366h-227z" />
<glyph unicode="W" horiz-adv-x="1116" d="M0 1366h240l90 -868l153 868h179l129 -877l110 877h215l-229 -1366h-187l-139 866l-178 -866h-184z" />
<glyph unicode="X" horiz-adv-x="768" d="M-27 0l277 694l-277 672h252l146 -383l143 383h256l-272 -674l299 -692h-258l-162 408l-152 -408h-252z" />
<glyph unicode="Y" horiz-adv-x="839" d="M-20 1366h266l188 -510l174 510h252l-307 -791v-575h-252v575z" />
<glyph unicode="Z" horiz-adv-x="720" d="M0 0v205l434 942h-368v219h655v-184l-445 -963h431v-219h-707z" />
<glyph unicode="[" horiz-adv-x="534" d="M63 -205v1700h383v-100l-194 -27v-1446l194 -26v-101h-383z" />
<glyph unicode="\" horiz-adv-x="598" d="M59 1493h138l301 -1683h-138z" />
<glyph unicode="]" horiz-adv-x="534" d="M90 -104l195 26v1446l-195 27v100h383v-1700h-383v101z" />
<glyph unicode="^" horiz-adv-x="927" d="M117 922l264 512h143l289 -512l-170 -48l-186 330l-176 -330z" />
<glyph unicode="_" horiz-adv-x="1243" d="M0 -94h1243v-170h-1243v170z" />
<glyph unicode="`" horiz-adv-x="1024" d="M207 1454l201 45l272 -321l-117 -13z" />
<glyph unicode="a" horiz-adv-x="743" d="M41 274q0 135 43 204t168 134l164 84v131q0 32 -16.5 50t-45.5 18t-45 -14t-22 -45q-4 -16 -4 -119l-213 26v48q0 69 10.5 112.5t36.5 81.5q37 54 105 84.5t151 30.5q78 0 143.5 -26t99.5 -70q46 -58 46 -173v-628q0 -96 14 -203h-232v57q-47 -40 -87.5 -55.5 t-96.5 -15.5q-108 0 -163.5 73t-55.5 215zM274 307q0 -123 72 -123q37 0 53.5 25.5t16.5 81.5v205l-60 -39q-43 -28 -62.5 -63t-19.5 -87z" />
<glyph unicode="b" horiz-adv-x="778" d="M96 0v1366h246v-336q52 40 87.5 55t84.5 15q143 0 184 -133q12 -39 15.5 -107t3.5 -297q0 -197 -4.5 -283.5t-16 -129t-39.5 -82.5q-60 -82 -180 -82q-54 0 -93 14t-77 47l-37 -47h-174zM336 543q0 -247 4 -287q8 -63 63 -63q50 0 62 45q6 34 6 165v154v125q0 136 -6 166 q-13 47 -59 47q-36 0 -52 -25t-16 -82l-2 -106v-139z" />
<glyph unicode="c" horiz-adv-x="657" d="M61 565v150v13q-1 204 63 286q66 86 230 86q179 0 232 -96q20 -35 27 -84t10 -170l-203 -43q0 103 -6 141q-10 47 -52 47q-29 0 -41 -26.5t-14 -94.5v-391l2 -82q0 -67 10 -89t41 -22q35 0 47.5 36.5t12.5 142.5v49l203 -37v-59q0 -94 -9.5 -143t-35.5 -87 q-74 -106 -236 -106q-121 0 -192 56.5t-82 160.5q-7 64 -7 362z" />
<glyph unicode="d" horiz-adv-x="778" d="M58 578q-1 64 -1 114q0 128 4 176q9 119 61.5 175.5t153.5 56.5q48 0 83 -13t73 -45v324h246v-1366h-246v55q-33 -38 -68 -53.5t-83 -15.5q-102 0 -154.5 64t-60.5 196q-6 108 -8 332zM303 545q0 -271 10 -312q6 -19 21.5 -31t34.5 -12q25 0 36.5 8.5t19.5 50t9.5 103 t1.5 191.5t-1.5 191.5t-9.5 102.5t-19.5 49.5t-36.5 8.5q-43 0 -56 -43q-10 -41 -10 -307z" />
<glyph unicode="e" horiz-adv-x="720" d="M61 684q0 153 13.5 217.5t54.5 114.5q72 84 233 84q126 0 190.5 -46t90.5 -153q12 -53 14 -107t2 -331h-352q0 -194 6 -225q9 -48 60 -48q35 0 48 20q11 17 11 59v14l2 53v24v33l225 -47q0 -101 -11.5 -156.5t-43.5 -99.5q-76 -104 -250 -104q-95 0 -164 37t-100 104 q-22 50 -25.5 119t-3.5 438zM307 662h125q0 63 -2 153q-3 94 -58 94h-3q-49 -3 -58 -51q-4 -25 -4 -196z" />
<glyph unicode="f" horiz-adv-x="505" d="M39 881v204h84q0 81 8 124.5t31 76.5q68 100 233 100q60 0 131 -14l-51 -176q-41 8 -49 8q-72 0 -72 -100v-19h121v-204h-106v-881h-246v881h-84z" />
<glyph unicode="g" horiz-adv-x="776" d="M61 -100l195 106q29 -38 50.5 -52.5t47.5 -14.5q51 0 70 36q6 14 6 95v51q-41 -38 -72 -52t-77 -14q-146 0 -195 125q-13 38 -16.5 95t-3.5 247q0 370 12 426q35 152 201 152q49 0 81.5 -13.5t69.5 -48.5v47h250v-979q0 -95 -16 -151t-58 -107q-88 -108 -248 -108 q-107 0 -174.5 36t-122.5 124zM307 584q0 -46 2 -150q0 -33 2 -74q0 -54 14 -76t46 -22q56 0 59 76q2 164 2 250q0 47 -2 135q-1 90 -3.5 108t-14.5 35q-14 21 -45 21q-35 0 -46 -24.5t-12 -110.5l-2 -90v-78z" />
<glyph unicode="h" horiz-adv-x="796" d="M96 0v1366h246v-336q49 40 87 55t85 15q62 0 108.5 -29t69.5 -82q23 -61 23 -166v-823h-246v752q0 79 -6 100q-10 43 -60 43q-35 0 -48 -21.5t-13 -78.5v-795h-246z" />
<glyph unicode="i" horiz-adv-x="436" d="M88 1319q0 53 38 91t91 38q54 0 92.5 -38.5t38.5 -92.5q0 -53 -38.5 -91t-92.5 -38t-91.5 38t-37.5 93zM94 0v1085h246v-1085h-246z" />
<glyph unicode="j" horiz-adv-x="436" d="M-94 -68q67 0 119 17q43 15 57 45t14 106v985h246v-954q0 -134 -20 -201t-74 -114q-47 -41 -109.5 -58t-179.5 -18zM90 1319q0 53 38 91t91 38t92 -39t39 -92q0 -52 -39 -90.5t-92 -38.5q-55 0 -92 37.5t-37 93.5z" />
<glyph unicode="k" horiz-adv-x="745" d="M96 0v1366h246v-704l141 423h230l-164 -436l211 -649h-252l-166 561v-561h-246z" />
<glyph unicode="l" horiz-adv-x="436" d="M96 0v1366h246v-1366h-246z" />
<glyph unicode="m" horiz-adv-x="1175" d="M96 0v1085h246v-61q47 41 88 58.5t92 17.5q54 0 93 -20.5t79 -69.5q44 49 88.5 69.5t104.5 20.5q138 0 186 -111q21 -61 21 -188v-801h-246v774q0 67 -14.5 94t-51.5 27q-22 0 -38 -11t-21 -28q-6 -20 -6 -108v-748h-246v778q0 65 -14 91t-51 26q-42 0 -56 -35 q-8 -24 -8 -98v-762h-246z" />
<glyph unicode="n" horiz-adv-x="796" d="M96 0v1085h246v-55q49 40 87 55t85 15q62 0 108.5 -29t69.5 -82q23 -61 23 -166v-823h-246v752q0 79 -6 100q-10 43 -60 43q-35 0 -48 -21.5t-13 -78.5v-795h-246z" />
<glyph unicode="o" horiz-adv-x="747" d="M61 543q0 262 6 325.5t37 110.5q77 121 275 121q106 0 181 -42.5t104 -119.5q14 -39 18 -111.5t4 -283.5q0 -251 -7 -320.5t-36 -116.5q-77 -120 -270 -120q-109 0 -184.5 41.5t-104.5 119.5q-15 40 -19 106t-4 290zM306 624v-115q0 -105 1 -173q2 -74 4.5 -92.5 t12.5 -30.5q16 -23 49 -23q59 0 65 70q2 14 2 285v174l-2 88q0 88 -63 88q-60 0 -66 -70q-3 -15 -3 -201z" />
<glyph unicode="p" horiz-adv-x="774" d="M96 -246v1331h246v-57q41 39 77.5 55.5t82.5 16.5q80 0 131.5 -49t66.5 -140q5 -27 10 -158t5 -235q0 -184 -6 -295q-5 -74 -26 -119.5t-65 -76.5q-53 -41 -122 -41q-43 0 -76.5 14.5t-77.5 52.5v-299h-246zM340 549q0 -204 4 -270q3 -37 19.5 -57.5t42.5 -20.5t42 20.5 t17 57.5q6 81 6 270q0 175 -6 268q-3 78 -62 78q-53 0 -59 -78q-4 -66 -4 -268z" />
<glyph unicode="q" horiz-adv-x="778" d="M58 504v61q0 176 3 246q4 151 60.5 220t175.5 69q67 0 106.5 -18t73.5 -64l33 67h170v-1331h-246v309q-36 -42 -75 -59.5t-95 -17.5q-188 0 -203 235q-2 57 -3 283zM305 373q0 -109 13 -146t53 -37q22 0 38 12t21 31q10 41 10 318q0 257 -10 301q-4 19 -20.5 31t-36.5 12 q-41 0 -54.5 -36.5t-13.5 -145.5v-176v-164z" />
<glyph unicode="r" horiz-adv-x="610" d="M96 0v1085h246v-92q44 59 87 83t103 24q57 0 119 -29l-92 -260q-25 28 -44 38.5t-44 10.5q-63 0 -96 -60t-33 -175v-625h-246z" />
<glyph unicode="s" horiz-adv-x="698" d="M59 322l232 45v-30q1 -75 9 -107q10 -38 40 -48q29 -9 50.5 13t21.5 63q0 47 -22.5 81.5t-88.5 88.5q-116 94 -150 131t-57 96q-16 42 -18 109q0 7 -1 15q0 58 11 108q23 102 97 157.5t188 55.5q161 0 219 -115q33 -70 33 -219l-205 -39q0 130 -7.5 157t-43.5 27 q-66 0 -66 -96q0 -42 15.5 -68.5t62.5 -62.5q172 -138 219 -207q51 -79 51 -186q0 -139 -82 -221q-75 -84 -231 -84q-103 0 -168.5 35t-85.5 102q-15 46 -19 79t-4 120z" />
<glyph unicode="t" horiz-adv-x="532" d="M6 881v204h131v226l246 84v-310h123v-204h-123v-521q0 -86 30 -120.5t105 -34.5h29l-74 -199q-53 -6 -88 -6q-77 0 -135 29.5t-84 81.5q-29 60 -29 168v602h-131z" />
<glyph unicode="u" horiz-adv-x="796" d="M82 262v823h246v-751q0 -80 6 -101q10 -43 59 -43q35 0 48.5 22t13.5 79v794h245v-1085h-245v55q-49 -39 -86.5 -54t-85.5 -15q-63 0 -109.5 28.5t-69.5 81.5q-22 58 -22 166z" />
<glyph unicode="v" horiz-adv-x="624" d="M0 1085h250l84 -593l80 593h211l-203 -1085h-215z" />
<glyph unicode="w" horiz-adv-x="1040" d="M14 1085h240l90 -559l109 559h157l105 -559l102 559h211l-205 -1085h-170l-125 608l-131 -608h-170z" />
<glyph unicode="x" horiz-adv-x="671" d="M-14 0l229 573l-190 512h251l89 -280l94 280h227l-211 -512l211 -573h-254l-94 326l-111 -326h-241z" />
<glyph unicode="y" horiz-adv-x="641" d="M-14 -68h12q94 0 137 31q46 33 53 115l-200 1007h256l73 -567l117 567h219l-272 -1101q-31 -128 -107.5 -186t-212.5 -58h-28z" />
<glyph unicode="z" horiz-adv-x="600" d="M0 0v213l336 668h-285v204h537v-186l-326 -680h326v-219h-588z" />
<glyph unicode="{" horiz-adv-x="616" d="M-27 610v80q86 8 121 43q31 29 40 68.5t9 140.5v229q0 112 15 166t55 93q40 37 96 51t160 14h49v-78q-49 -4 -77.5 -16t-53.5 -37q-30 -30 -41.5 -72.5t-11.5 -120.5v-229q0 -135 -33.5 -191.5t-138.5 -99.5q44 -9 69.5 -23t49.5 -44q34 -43 43.5 -86.5t9.5 -149.5v-237 q0 -119 38 -167t146 -65v-78q-39 -4 -84 -4q-156 0 -231 72q-35 32 -47.5 69.5t-12.5 110.5v340q0 127 -35 172.5t-135 48.5z" />
<glyph unicode="|" horiz-adv-x="1243" d="M535 -342v1708h174v-1708h-174z" />
<glyph unicode="}" horiz-adv-x="616" d="M98 -121q108 17 146.5 65t38.5 167v237q0 106 9.5 149.5t43.5 86.5q24 30 49.5 44t69.5 23q-105 43 -138.5 99.5t-33.5 191.5v229q0 77 -12 120t-42 73q-25 25 -53.5 37t-77.5 16v78h49q104 0 160 -14t96 -51q40 -39 55 -93t15 -166v-229q0 -101 9 -140.5t40 -68.5 q35 -35 121 -43v-80q-100 -3 -135 -48.5t-35 -172.5v-340q0 -74 -12 -111t-47 -69q-75 -72 -232 -72q-45 0 -84 4v78z" />
<glyph unicode="~" horiz-adv-x="1161" d="M123 1315q77 61 139 86.5t129 25.5q69 0 246 -53q71 -22 133 -22q126 0 227 104l43 -180q-131 -111 -274 -111q-73 0 -182 35q-118 39 -187 39q-120 0 -202 -76z" />
<glyph unicode="&#xa1;" horiz-adv-x="436" d="M88 956q0 59 42.5 101.5t100.5 42.5q59 0 101.5 -43t42.5 -101q0 -60 -42 -101.5t-102 -41.5t-101.5 41.5t-41.5 101.5zM109 184l41 492h157l47 -492v-465h-245v465z" />
<glyph unicode="&#xa2;" d="M45 547q0 202 21 295.5t81 154.5q87 89 228 101v166h65v-166q153 -3 231.5 -89.5t86.5 -258.5l-213 -48q-4 101 -24.5 139t-80.5 58v-704q60 20 80.5 57.5t24.5 138.5l213 -47q-12 -342 -318 -348v-166h-65v166q-143 12 -228 100q-60 61 -81 155t-21 296zM270 547 q0 -195 21 -266q9 -35 27 -52.5t57 -29.5v696q-44 -14 -62.5 -36t-27.5 -73q-15 -76 -15 -239z" />
<glyph unicode="&#xa3;" d="M-23 0v213q107 15 151 80.5t44 210.5v112h-172v205h172v129q0 225 87 327.5t278 102.5q145 0 199 -47t77 -194l-172 -72q-9 85 -33 118.5t-76 33.5q-72 0 -102.5 -61t-30.5 -202v-135h332v-205h-332v-92q0 -82 -24 -159q-15 -46 -44 -77.5t-89 -68.5h557v-219h-822z" />
<glyph unicode="&#xa4;" horiz-adv-x="886" d="M14 213l136 135q-50 100 -50 180t50 174l-134 134l121 122l133 -133q52 28 89 38.5t87 10.5q95 0 177 -51l129 129l118 -121l-127 -126q48 -91 48 -183q0 -91 -50 -172l131 -137l-124 -117l-127 131q-41 -26 -78 -36.5t-90 -10.5q-52 0 -92 10.5t-91 36.5l-133 -133z M266 532q0 -78 52.5 -132t127.5 -54t127 51.5t52 126.5q0 77 -52.5 130t-128.5 53q-73 0 -125.5 -51.5t-52.5 -123.5z" />
<glyph unicode="&#xa5;" horiz-adv-x="989" d="M59 580v67h297l-63 158h-234v67h205l-205 494h260l195 -535l186 535h242l-190 -494h190v-67h-217l-61 -158h278v-67h-311v-580h-238v580h-334z" />
<glyph unicode="&#xa6;" horiz-adv-x="1243" d="M535 313h174v-655h-174v655zM535 618v748h174v-748h-174z" />
<glyph unicode="&#xa7;" horiz-adv-x="868" d="M66 727q0 95 31.5 164t107.5 141q-15 54 -15 94q0 125 78.5 196t216.5 71q130 0 194.5 -58t86.5 -192l-188 -72q-3 160 -109 160q-37 0 -60.5 -23.5t-23.5 -58.5q0 -38 23.5 -73t85.5 -89q66 -58 140.5 -131t96.5 -100q64 -85 64 -183q0 -166 -140 -278 q37 -54 52.5 -100.5t15.5 -104.5q0 -133 -91 -221t-229 -88q-132 0 -208.5 62t-110.5 194l176 113q18 -79 37 -105q15 -27 46.5 -43t68.5 -16q44 0 73 26t29 66q0 38 -33.5 75t-208.5 195q-116 105 -161 188t-45 191zM248 756q0 -57 37 -107.5t155 -152.5q42 -37 56.5 -52.5 t48.5 -56.5q33 46 45 76t12 65q0 49 -27.5 85.5t-134.5 131.5q-61 53 -88 79.5t-65 72.5q-39 -77 -39 -141z" />
<glyph unicode="&#xa8;" horiz-adv-x="1024" d="M201 1319q0 53 38.5 91t90.5 38q54 0 92.5 -38.5t38.5 -92.5q0 -53 -38.5 -91t-92.5 -38t-91.5 38t-37.5 93zM563 1319q0 53 38.5 91t90.5 38t91.5 -39t39.5 -92q0 -52 -39 -90.5t-92 -38.5q-55 0 -92 37.5t-37 93.5z" />
<glyph unicode="&#xa9;" horiz-adv-x="1562" d="M68 682q0 198 96 363t262.5 260.5t366.5 95.5q187 0 348.5 -97.5t256.5 -263.5t95 -358q0 -145 -56.5 -277.5t-152 -229t-227 -153.5t-275.5 -57q-193 0 -357.5 96.5t-260.5 262t-96 358.5zM211 682q0 -159 77 -294.5t208.5 -214.5t285.5 -79t285 79t207 214.5t76 294.5 t-75.5 295t-204.5 215.5t-279 79.5q-120 0 -227.5 -46t-185 -124.5t-122.5 -188t-45 -231.5zM557 672q0 183 5 242.5t24 93.5q48 92 202 92q118 0 164 -45.5t49 -165.5q0 -3 3 -68l-170 -22q0 111 -7 132t-43 21q-14 0 -21.5 -1.5t-15 -7.5t-9.5 -17t-5 -30t-2 -46.5 t0 -67.5v-118q-2 -27 -2 -52q0 -128 10 -164t47 -36q28 0 38.5 15.5t9.5 53.5v45l2 13q0 10 -2 22v23l170 -15v-18v-47q1 -123 -52.5 -181.5t-167.5 -58.5q-91 0 -147.5 37.5t-71.5 106.5q-8 54 -8 264z" />
<glyph unicode="&#xaa;" horiz-adv-x="468" d="M18 715q0 83 28 125t108 80l100 49v71q0 33 -33 33q-26 0 -31.5 -15.5t-5.5 -88.5l-147 16l-2 21v14q-1 27 9 63.5t24 55.5q51 69 165 69q189 0 189 -164v-370q0 -55 10 -127h-160v14v6v6q-48 -34 -110 -34q-144 0 -144 176zM178 735q0 -65 39 -65q20 0 28.5 12t8.5 43 v109l-27 -17q-49 -28 -49 -82z" />
<glyph unicode="&#xab;" horiz-adv-x="727" d="M68 418v254l254 200v-182l-136 -149l136 -123v-195zM403 418v254l254 200v-182l-135 -149l135 -123v-195z" />
<glyph unicode="&#xac;" horiz-adv-x="1366" d="M119 389v174h1100v-631h-177v457h-923z" />
<glyph unicode="&#xad;" horiz-adv-x="454" d="M49 547v205h404v-205h-404z" />
<glyph unicode="&#xae;" horiz-adv-x="1562" d="M68 682q0 198 96 363t262.5 260.5t366.5 95.5q187 0 348.5 -97.5t256.5 -263.5t95 -358q0 -145 -56.5 -277.5t-152 -229t-227 -153.5t-275.5 -57q-193 0 -357.5 96.5t-260.5 262t-96 358.5zM211 682q0 -159 77 -294.5t208.5 -214.5t285.5 -79t285 79t207 214.5t76 294.5 t-75.5 295t-204.5 215.5t-279 79.5q-120 0 -227.5 -46t-185 -124.5t-122.5 -188t-45 -231.5zM559 272v820h229q124 0 179 -48t55 -157q0 -92 -31.5 -142.5t-103.5 -72.5l194 -400h-190l-160 353v-353h-172zM731 762q69 0 97 23t28 81q0 43 -19.5 62.5t-60.5 19.5h-45v-186z " />
<glyph unicode="&#xaf;" horiz-adv-x="1024" d="M283 1278v160h456v-160h-456z" />
<glyph unicode="&#xb0;" horiz-adv-x="737" d="M53 1047q0 126 92.5 215.5t223.5 89.5q132 0 224.5 -91t92.5 -219t-93.5 -219.5t-223.5 -91.5q-132 0 -224 92t-92 224zM197 1044q0 -74 49.5 -123t122.5 -49q72 0 123 50t51 120q0 69 -51.5 119.5t-122.5 50.5t-121.5 -49.5t-50.5 -118.5z" />
<glyph unicode="&#xb1;" horiz-adv-x="737" d="M23 68v174h692v-174h-692zM23 592v170h256v256h180v-256h256v-170h-256v-254h-180v254h-256z" />
<glyph unicode="&#xb2;" horiz-adv-x="546" d="M45 545q3 108 26.5 164.5t112.5 162.5q87 106 105 143t18 107q0 71 -8 94t-33 23q-28 0 -37 -22.5t-12 -96.5v-16l-151 20q2 87 14 131q19 56 68.5 87.5t119.5 31.5q100 0 152.5 -60.5t52.5 -178.5q0 -99 -49 -179q-22 -34 -39.5 -58t-95.5 -122q-19 -26 -26.5 -39.5 t-14.5 -40.5h233v-151h-436z" />
<glyph unicode="&#xb3;" horiz-adv-x="546" d="M49 788l158 33l-2 -71q0 -43 10.5 -59.5t38.5 -16.5q31 0 40 24t9 101q0 54 -10.5 77t-36.5 31q-20 6 -88 8v127q88 3 109.5 21t21.5 90q0 47 -10.5 66.5t-36.5 19.5q-31 0 -40.5 -24.5t-12.5 -110.5l-150 20q0 82 14 131q17 57 68 88t125 31q100 0 151.5 -57.5 t51.5 -169.5q0 -66 -19 -102.5t-65 -59.5q51 -14 69 -43q35 -58 35 -162q0 -241 -219 -241q-80 0 -134 33t-67 90q-10 39 -10 126z" />
<glyph unicode="&#xb4;" horiz-adv-x="1024" d="M344 1192l266 315l207 -28l-354 -297z" />
<glyph unicode="&#xb5;" horiz-adv-x="782" d="M61 -397q21 440 21 590v892h246v-751q0 -80 6 -101q10 -43 59 -43q35 0 48.5 22t13.5 79v794h245v-1085h-245v55q-43 -35 -70 -47t-72 -20l15 -385h-267z" />
<glyph unicode="&#xb6;" horiz-adv-x="868" d="M37 1010q0 249 119 321q33 21 75 28t136 7h475v-82l-121 -16v-1444h-125v1417l-64 -10v-1407h-124v784q-95 13 -148.5 31.5t-103.5 54.5q-66 47 -92.5 118t-26.5 198z" />
<glyph unicode="&#xb7;" horiz-adv-x="407" d="M88 602q0 52 38 89.5t91 37.5q54 0 91.5 -37.5t37.5 -91.5t-37.5 -91.5t-91.5 -37.5t-91.5 38t-37.5 93z" />
<glyph unicode="&#xb8;" horiz-adv-x="1024" d="M403 -293q56 22 78.5 42.5t22.5 51.5q0 54 -78 97l109 90q86 -63 86 -142q0 -49 -34.5 -90t-111.5 -82z" />
<glyph unicode="&#xb9;" horiz-adv-x="546" d="M121 1133v133q60 13 96 35t70 65h98v-819h-168v604z" />
<glyph unicode="&#xba;" horiz-adv-x="471" d="M33 872q0 157 4 195.5t24 67.5q49 73 179 73q69 0 117.5 -26.5t68.5 -73.5q14 -41 14 -236q0 -145 -4.5 -188.5t-23.5 -71.5q-52 -73 -176 -73q-149 0 -189 98q-9 25 -11.5 65t-2.5 170zM201 768l2 -51q0 -25 7 -34t26 -9q20 0 27 9.5t7 33.5v51q2 49 2 104q0 64 -2 105 v51q0 25 -7.5 35t-24.5 10q-20 0 -28 -10t-7 -35l-2 -51v-88v-121z" />
<glyph unicode="&#xbb;" horiz-adv-x="727" d="M68 223v183l135 151l-135 121v194l254 -194v-252zM403 223v183l136 151l-136 121v194l254 -194v-252z" />
<glyph unicode="&#xbc;" horiz-adv-x="1228" d="M121 1133v133q60 13 96 35t70 65h98v-819h-168v604zM410 0l301 1366h110l-301 -1366h-110zM719 156v110l235 553h152v-534h82v-129h-82v-156h-145v156h-242zM864 285h97v290z" />
<glyph unicode="&#xbd;" horiz-adv-x="1228" d="M121 1133v133q60 13 96 35t70 65h98v-819h-168v604zM410 0l301 1366h110l-301 -1366h-110zM729 0q5 113 27 165.5t112 162.5q86 104 104.5 141.5t18.5 108.5t-7.5 92t-33.5 22q-28 1 -37 -21t-12 -96v-18l-151 23q2 87 14 129q19 57 67.5 87.5t120.5 30.5q101 0 153 -60 t52 -177q0 -101 -49 -178q-34 -54 -135 -181q-31 -40 -41 -79h233v-152h-436z" />
<glyph unicode="&#xbe;" horiz-adv-x="1228" d="M49 788l158 33l-2 -71q0 -43 10.5 -59.5t38.5 -16.5q31 0 40 24t9 101q0 54 -10.5 77t-36.5 31q-20 6 -88 8v127q88 3 109.5 21t21.5 90q0 47 -10.5 66.5t-36.5 19.5q-31 0 -40.5 -24.5t-12.5 -110.5l-150 20q0 82 14 131q17 57 68 88t125 31q100 0 151.5 -57.5 t51.5 -169.5q0 -66 -19 -102.5t-65 -59.5q51 -14 69 -43q35 -58 35 -162q0 -241 -219 -241q-80 0 -134 33t-67 90q-10 39 -10 126zM410 0l301 1366h110l-301 -1366h-110zM719 156v110l235 553h152v-534h82v-129h-82v-156h-145v156h-242zM864 285h97v290z" />
<glyph unicode="&#xbf;" horiz-adv-x="710" d="M27 -8q0 86 26 166q17 45 34 72t83 114q65 86 83 148t17 188h197q8 -76 8 -117q0 -103 -29 -177.5t-114 -188.5q-52 -69 -65 -97.5t-13 -76.5q0 -111 65 -111q52 0 74.5 50.5t24.5 170.5l223 -27q-4 -100 -18 -159t-43 -109q-38 -63 -108 -97t-159 -34 q-133 0 -209.5 76.5t-76.5 208.5zM217 956q0 58 43 101t102 43q58 0 100 -43t42 -103q0 -58 -41.5 -99.5t-100.5 -41.5q-60 0 -102.5 41.5t-42.5 101.5z" />
<glyph unicode="&#xc0;" horiz-adv-x="751" d="M-27 0l269 1366h243l293 -1366h-262l-47 248h-211l-43 -248h-242zM45 1718l211 47l287 -338l-121 -14zM281 455h153l-76 544z" />
<glyph unicode="&#xc1;" horiz-adv-x="751" d="M-27 0l269 1366h243l293 -1366h-262l-47 248h-211l-43 -248h-242zM209 1442l280 332l218 -31l-373 -311zM281 455h153l-76 544z" />
<glyph unicode="&#xc2;" horiz-adv-x="751" d="M-27 0l269 1366h243l293 -1366h-262l-47 248h-211l-43 -248h-242zM43 1446l281 326h114l271 -326l-103 -12l-227 196l-229 -196zM281 455h153l-76 544z" />
<glyph unicode="&#xc3;" horiz-adv-x="751" d="M-27 0l269 1366h243l293 -1366h-262l-47 248h-211l-43 -248h-242zM76 1565q75 93 115.5 124t87.5 31q27 0 50.5 -8t80.5 -37q52 -26 73.5 -33.5t48.5 -7.5q38 0 66.5 17.5t60.5 60.5l17 -72q-50 -74 -88.5 -106.5t-79.5 -32.5q-21 0 -59 17q-143 75 -187 75 q-82 0 -166 -100zM281 455h153l-76 544z" />
<glyph unicode="&#xc4;" horiz-adv-x="751" d="M-27 0l269 1366h243l293 -1366h-262l-47 248h-211l-43 -248h-242zM35 1583q0 57 40 97t97 40t96 -40t39 -97t-39.5 -96t-97.5 -39q-57 0 -96 39t-39 96zM281 455h153l-76 544zM444 1583q0 57 40.5 97t97.5 40t96 -40t39 -97t-39.5 -96t-97.5 -39q-57 0 -96.5 39t-39.5 96 z" />
<glyph unicode="&#xc5;" horiz-adv-x="751" d="M-27 0l269 1366h243l293 -1366h-262l-47 248h-211l-43 -248h-242zM193 1589q0 73 54.5 126.5t129.5 53.5t129.5 -54.5t54.5 -129.5t-53.5 -129.5t-128.5 -54.5q-80 0 -133 53.5t-53 134.5zM281 455h153l-76 544zM281 1587q0 -41 28 -69.5t68 -28.5q38 0 67 29t29 67 q0 37 -29.5 66.5t-66.5 29.5q-38 0 -67 -28.5t-29 -65.5z" />
<glyph unicode="&#xc6;" horiz-adv-x="1243" d="M-102 0l489 1366h778v-219h-338v-293h314v-219h-314v-416h363v-219h-615v260h-331l-84 -260h-262zM313 467h262v686h-26z" />
<glyph unicode="&#xc7;" horiz-adv-x="815" d="M76 666q0 336 6 419.5t35 143.5q74 151 317 151q178 0 262 -90q33 -37 47 -94.5t15 -163.5l2 -102l-246 -37q0 163 -6 201q-6 26 -29.5 43.5t-54.5 17.5q-28 0 -49.5 -14t-30.5 -37q-11 -28 -13 -68t-1 -182l-2 -205v-80q0 -244 16 -301q20 -57 84 -57q47 0 66.5 29.5 t19.5 101.5v76q2 16 2 33q0 28 -2 51l246 -21l2 -100q0 -126 -18.5 -189.5t-71.5 -119.5q-83 -86 -244 -86q-108 0 -187 35.5t-114 99.5q-25 45 -34.5 90.5t-13 137t-3.5 317.5zM305 -309q59 23 82 44.5t23 53.5q0 58 -82 105l114 92q90 -64 90 -148q0 -52 -35.5 -94.5 t-115.5 -85.5z" />
<glyph unicode="&#xc8;" horiz-adv-x="778" d="M72 1718l211 47l286 -338l-120 -14zM109 0v1366h591v-219h-340v-293h316v-219h-316v-416h363v-219h-614z" />
<glyph unicode="&#xc9;" horiz-adv-x="778" d="M109 0v1366h591v-219h-340v-293h316v-219h-316v-416h363v-219h-614zM236 1442l280 332l217 -31l-373 -311z" />
<glyph unicode="&#xca;" horiz-adv-x="778" d="M70 1446l280 326h115l270 -326l-104 -12l-228 196l-227 -196zM109 0v1366h591v-219h-340v-293h316v-219h-316v-416h363v-219h-614z" />
<glyph unicode="&#xcb;" horiz-adv-x="778" d="M76 1585q0 55 40 95t95 40q59 0 98 -39t39 -98q0 -57 -39.5 -96t-97.5 -39q-57 0 -96 39.5t-39 97.5zM111 0v1366h589v-219h-338v-293h314v-219h-314v-416h363v-219h-614zM485 1585q0 55 40 95t96 40q59 0 98 -39t39 -98q0 -57 -39.5 -96t-97.5 -39q-57 0 -96.5 39.5 t-39.5 97.5z" />
<glyph unicode="&#xcc;" horiz-adv-x="471" d="M-96 1718l211 47l286 -338l-120 -14zM109 0v1366h251v-1366h-251z" />
<glyph unicode="&#xcd;" horiz-adv-x="471" d="M68 1442l280 332l217 -31l-372 -311zM109 0v1366h251v-1366h-251z" />
<glyph unicode="&#xce;" horiz-adv-x="471" d="M-29 1446l213 326h113l203 -326l-103 -12l-159 170l-160 -170zM109 0v1366h251v-1366h-251z" />
<glyph unicode="&#xcf;" horiz-adv-x="471" d="M-25 1585q0 56 36 95.5t87 39.5t87 -40t36 -97t-35.5 -96t-87.5 -39q-53 0 -88 39.5t-35 97.5zM109 0v1366h251v-1366h-251zM248 1585q0 54 37 94.5t86 40.5q53 0 88 -39.5t35 -97.5q0 -57 -35.5 -96t-87.5 -39q-51 0 -87 40t-36 97z" />
<glyph unicode="&#xd0;" horiz-adv-x="909" d="M-35 731v68h144v567h321q153 0 229 -23t117 -83q30 -41 40.5 -84.5t14 -134t3.5 -334.5q0 -378 -9 -449q-7 -56 -36 -110q-2 -4 -7 -13q-75 -135 -323 -135h-350v731h-144zM360 219h99q69 0 92 33q20 28 25.5 102.5t5.5 337.5q0 238 -3.5 306t-15.5 96q-12 29 -35 41 t-63 12h-105v-348h148v-68h-148v-512z" />
<glyph unicode="&#xd1;" horiz-adv-x="927" d="M109 0v1366h198l287 -750v750h225v-1366h-190l-295 795v-795h-225zM164 1565q75 93 115.5 124t87.5 31q26 0 50.5 -8.5t80.5 -36.5q48 -25 71.5 -33t51.5 -8q37 0 66 17.5t61 60.5l16 -72q-50 -74 -89 -106.5t-79 -32.5q-21 0 -59 17q-146 75 -189 75q-80 0 -164 -100z " />
<glyph unicode="&#xd2;" horiz-adv-x="870" d="M76 684q0 234 4 335t15 152t38 91q81 118 309 118q259 0 324 -170q20 -50 25.5 -145.5t5.5 -380.5q0 -331 -9.5 -427t-48.5 -153q-80 -118 -303 -118q-262 0 -330 170q-20 50 -25 144t-5 384zM104 1718l211 47l289 -338l-123 -14zM328 809q0 -377 4 -471q3 -65 28 -96 t76 -31q89 0 103 100q6 43 6 471q0 258 -13 301q-9 34 -34 53t-60 19q-90 0 -104 -100q-6 -41 -6 -246z" />
<glyph unicode="&#xd3;" horiz-adv-x="870" d="M76 684q0 234 4 335t15 152t38 91q81 118 309 118q259 0 324 -170q20 -50 25.5 -145.5t5.5 -380.5q0 -331 -9.5 -427t-48.5 -153q-80 -118 -303 -118q-262 0 -330 170q-20 50 -25 144t-5 384zM268 1442l283 332l217 -31l-373 -311zM328 809q0 -377 4 -471q3 -65 28 -96 t76 -31q89 0 103 100q6 43 6 471q0 258 -13 301q-9 34 -34 53t-60 19q-90 0 -104 -100q-6 -41 -6 -246z" />
<glyph unicode="&#xd4;" horiz-adv-x="870" d="M76 684q0 234 4 335t15 152t38 91q81 118 309 118q259 0 324 -170q20 -50 25.5 -145.5t5.5 -380.5q0 -331 -9.5 -427t-48.5 -153q-80 -118 -303 -118q-262 0 -330 170q-20 50 -25 144t-5 384zM104 1446l281 326h113l270 -326l-102 -12l-228 196l-227 -196zM328 809 q0 -377 4 -471q3 -65 28 -96t76 -31q89 0 103 100q6 43 6 471q0 258 -13 301q-9 34 -34 53t-60 19q-90 0 -104 -100q-6 -41 -6 -246z" />
<glyph unicode="&#xd5;" horiz-adv-x="870" d="M76 684q0 234 4 335t15 152t38 91q81 118 309 118q259 0 324 -170q20 -50 25.5 -145.5t5.5 -380.5q0 -331 -9.5 -427t-48.5 -153q-80 -118 -303 -118q-262 0 -330 170q-20 50 -25 144t-5 384zM137 1565q75 93 115 124t86 31q27 0 51.5 -8.5t79.5 -36.5q50 -25 73.5 -33 t49.5 -8q38 0 66.5 17.5t62.5 60.5l14 -72q-89 -139 -166 -139q-20 0 -61 17q-143 75 -186 75q-83 0 -164 -100zM328 809q0 -377 4 -471q3 -65 28 -96t76 -31q89 0 103 100q6 43 6 471q0 258 -13 301q-9 34 -34 53t-60 19q-90 0 -104 -100q-6 -41 -6 -246z" />
<glyph unicode="&#xd6;" horiz-adv-x="870" d="M76 684q0 234 4 335t15 152t38 91q81 118 309 118q259 0 324 -170q20 -50 25.5 -145.5t5.5 -380.5q0 -331 -9.5 -427t-48.5 -153q-80 -118 -303 -118q-262 0 -330 170q-20 50 -25 144t-5 384zM94 1583q0 57 40 97t97 40t96.5 -39.5t39.5 -97.5t-38.5 -96.5t-97.5 -38.5 q-57 0 -97 39.5t-40 95.5zM328 809q0 -377 4 -471q3 -65 28 -96t76 -31q89 0 103 100q6 43 6 471q0 258 -13 301q-9 34 -34 53t-60 19q-90 0 -104 -100q-6 -41 -6 -246zM504 1583q0 57 40 97t97 40t96 -39.5t39 -97.5q0 -59 -38 -97t-97 -38q-57 0 -97 39.5t-40 95.5z" />
<glyph unicode="&#xd7;" horiz-adv-x="737" d="M2 803l94 100l273 -264l264 256l96 -98l-262 -254l268 -262l-96 -99l-270 264l-269 -258l-96 99l268 256z" />
<glyph unicode="&#xd8;" horiz-adv-x="870" d="M16 -68l101 199q-28 55 -34.5 137.5t-6.5 362.5q0 286 3.5 388t13.5 151t40 92q80 118 301 118q176 0 266 -75l66 129h88l-98 -201q25 -51 33 -149t8 -349q0 -254 -4 -367t-15.5 -168.5t-38.5 -95.5q-80 -118 -303 -118q-176 0 -266 75l-61 -129h-93zM328 537l213 460 q-3 89 -26 123.5t-79 34.5q-60 0 -82.5 -38.5t-23.5 -147.5q-2 -51 -2 -432zM330 360q3 -82 26.5 -115.5t77.5 -33.5q30 0 54.5 12.5t33.5 32.5q14 29 18.5 94.5t4.5 224.5l-2 109v137z" />
<glyph unicode="&#xd9;" horiz-adv-x="905" d="M96 395v971h252v-995q0 -89 21 -119q12 -17 36.5 -29t49.5 -12q23 0 47.5 12t36.5 29q20 29 20 119v995h252v-971q0 -137 -14 -200.5t-52 -108.5q-86 -100 -290 -100q-243 0 -318 135q-24 41 -32.5 97.5t-8.5 176.5zM123 1718l211 47l287 -338l-123 -14z" />
<glyph unicode="&#xda;" horiz-adv-x="905" d="M96 395v971h252v-995q0 -89 21 -119q12 -17 36.5 -29t49.5 -12q23 0 47.5 12t36.5 29q20 29 20 119v995h252v-971q0 -137 -14 -200.5t-52 -108.5q-86 -100 -290 -100q-243 0 -318 135q-24 41 -32.5 97.5t-8.5 176.5zM287 1442l280 332l217 -31l-372 -311z" />
<glyph unicode="&#xdb;" horiz-adv-x="905" d="M96 395v971h252v-995q0 -89 21 -119q12 -17 36.5 -29t49.5 -12q23 0 47.5 12t36.5 29q20 29 20 119v995h252v-971q0 -137 -14 -200.5t-52 -108.5q-86 -100 -290 -100q-243 0 -318 135q-24 41 -32.5 97.5t-8.5 176.5zM121 1446l280 326h115l270 -326l-104 -12l-227 196 l-228 -196z" />
<glyph unicode="&#xdc;" horiz-adv-x="905" d="M96 395v971h252v-995q0 -89 21 -119q12 -17 36.5 -29t49.5 -12q23 0 47.5 12t36.5 29q20 29 20 119v995h252v-971q0 -137 -14 -200.5t-52 -108.5q-86 -100 -290 -100q-243 0 -318 135q-24 41 -32.5 97.5t-8.5 176.5zM113 1583q0 59 39.5 98t97.5 39q56 0 95.5 -40 t39.5 -97t-39.5 -96t-97.5 -39q-57 0 -96 39t-39 96zM522 1583q0 59 39 98t98 39q56 0 96 -40t40 -97t-40 -96t-98 -39q-57 0 -96 39t-39 96z" />
<glyph unicode="&#xdd;" horiz-adv-x="839" d="M-20 1366h266l188 -510l174 510h252l-307 -791v-575h-252v575zM254 1442l281 332l217 -31l-373 -311z" />
<glyph unicode="&#xde;" horiz-adv-x="825" d="M109 0v1366h251v-266h97q107 0 173 -18.5t109 -59.5q51 -47 67.5 -111.5t16.5 -208.5q0 -103 -8.5 -160.5t-30.5 -101.5q-86 -174 -346 -174h-78v-266h-251zM360 477h80q75 0 104 44.5t29 160.5q0 118 -27.5 158.5t-107.5 40.5h-78v-404z" />
<glyph unicode="&#xdf;" horiz-adv-x="817" d="M20 881v204h76v19q0 136 84 209t240 73q150 0 232.5 -65.5t82.5 -185.5q0 -47 -13 -92.5t-56 -145.5q-31 -76 -31 -104q0 -23 14 -64t66 -172q47 -112 61.5 -165.5t14.5 -115.5q0 -242 -267 -303l-123 224q123 15 123 141q0 44 -13.5 89t-51.5 126q-64 136 -64 201 q0 63 60 194q49 101 49 156q0 43 -21 66.5t-59 23.5q-47 0 -61.5 -31t-14.5 -135v-1274h-252v1127h-76z" />
<glyph unicode="&#xe0;" horiz-adv-x="743" d="M41 274q0 135 43 204t168 134l164 84v131q0 32 -16.5 50t-45.5 18t-45 -14t-22 -45q-4 -16 -4 -119l-213 26v48q0 69 10.5 112.5t36.5 81.5q37 54 105 84.5t151 30.5q78 0 143.5 -26t99.5 -70q46 -58 46 -173v-628q0 -96 14 -203h-232v57q-47 -40 -87.5 -55.5 t-96.5 -15.5q-108 0 -163.5 73t-55.5 215zM68 1454l200 45l273 -321l-117 -13zM274 307q0 -123 72 -123q37 0 53.5 25.5t16.5 81.5v205l-60 -39q-43 -28 -62.5 -63t-19.5 -87z" />
<glyph unicode="&#xe1;" horiz-adv-x="743" d="M41 274q0 135 43 204t168 134l164 84v131q0 32 -16.5 50t-45.5 18t-45 -14t-22 -45q-4 -16 -4 -119l-213 26v48q0 69 10.5 112.5t36.5 81.5q37 54 105 84.5t151 30.5q78 0 143.5 -26t99.5 -70q46 -58 46 -173v-628q0 -96 14 -203h-232v57q-47 -40 -87.5 -55.5 t-96.5 -15.5q-108 0 -163.5 73t-55.5 215zM203 1192l268 315l205 -28l-352 -297zM274 307q0 -123 72 -123q37 0 53.5 25.5t16.5 81.5v205l-60 -39q-43 -28 -62.5 -63t-19.5 -87z" />
<glyph unicode="&#xe2;" horiz-adv-x="743" d="M41 274q0 135 43 204t168 134l164 84v131q0 32 -16.5 50t-45.5 18t-45 -14t-22 -45q-4 -16 -4 -119l-213 26v48q0 69 10.5 112.5t36.5 81.5q37 54 105 84.5t151 30.5q78 0 143.5 -26t99.5 -70q46 -58 46 -173v-628q0 -96 14 -203h-232v57q-47 -40 -87.5 -55.5 t-96.5 -15.5q-108 0 -163.5 73t-55.5 215zM55 1196l267 309h108l258 -309l-98 -12l-217 186l-215 -186zM274 307q0 -123 72 -123q37 0 53.5 25.5t16.5 81.5v205l-60 -39q-43 -28 -62.5 -63t-19.5 -87z" />
<glyph unicode="&#xe3;" horiz-adv-x="743" d="M41 274q0 135 43 204t168 134l164 84v131q0 32 -16.5 50t-45.5 18t-45 -14t-22 -45q-4 -16 -4 -119l-213 26v48q0 69 10.5 112.5t36.5 81.5q37 54 105 84.5t151 30.5q78 0 143.5 -26t99.5 -70q46 -58 46 -173v-628q0 -96 14 -203h-232v57q-47 -40 -87.5 -55.5 t-96.5 -15.5q-108 0 -163.5 73t-55.5 215zM86 1309q75 93 111 121t82 28q45 0 124 -43q72 -39 117 -39q36 0 62 16t59 58l16 -68q-53 -75 -86.5 -104t-68.5 -29q-20 0 -39.5 7.5t-85.5 41.5q-77 39 -117 39q-73 0 -154 -94zM274 307q0 -123 72 -123q37 0 53.5 25.5 t16.5 81.5v205l-60 -39q-43 -28 -62.5 -63t-19.5 -87z" />
<glyph unicode="&#xe4;" horiz-adv-x="743" d="M41 274q0 135 43 204t168 134l164 84v131q0 32 -16.5 50t-45.5 18t-45 -14t-22 -45q-4 -16 -4 -119l-213 26v48q0 69 10.5 112.5t36.5 81.5q37 54 105 84.5t151 30.5q78 0 143.5 -26t99.5 -70q46 -58 46 -173v-628q0 -96 14 -203h-232v57q-47 -40 -87.5 -55.5 t-96.5 -15.5q-108 0 -163.5 73t-55.5 215zM47 1319q0 52 39 90.5t90 38.5q54 0 92.5 -38.5t38.5 -92.5t-38.5 -91.5t-92.5 -37.5t-91.5 38.5t-37.5 92.5zM274 307q0 -123 72 -123q37 0 53.5 25.5t16.5 81.5v205l-60 -39q-43 -28 -62.5 -63t-19.5 -87zM410 1319q0 53 38 91 t91 38t92 -38.5t39 -92.5q0 -53 -38.5 -91t-92.5 -38t-91.5 38t-37.5 93z" />
<glyph unicode="&#xe5;" horiz-adv-x="743" d="M41 274q0 135 43 204t168 134l164 84v131q0 32 -16.5 50t-45.5 18t-45 -14t-22 -45q-4 -16 -4 -119l-213 26v48q0 69 10.5 112.5t36.5 81.5q37 54 105 84.5t151 30.5q78 0 143.5 -26t99.5 -70q46 -58 46 -173v-628q0 -96 14 -203h-232v57q-47 -40 -87.5 -55.5 t-96.5 -15.5q-108 0 -163.5 73t-55.5 215zM188 1380q0 76 54 129.5t129 53.5q77 0 131.5 -54.5t54.5 -130.5q0 -75 -55 -129.5t-131 -54.5q-77 0 -130 54t-53 132zM274 307q0 -123 72 -123q37 0 53.5 25.5t16.5 81.5v205l-60 -39q-43 -28 -62.5 -63t-19.5 -87zM276 1380 q0 -40 28.5 -69t66.5 -29t68 29.5t30 66.5q0 38 -29.5 67.5t-68.5 29.5q-38 0 -66.5 -28.5t-28.5 -66.5z" />
<glyph unicode="&#xe6;" horiz-adv-x="1116" d="M55 274q0 139 53.5 219t170.5 117l163 52v165q0 72 -65 72q-46 0 -61 -33t-15 -133v-37l-211 47q-2 20 -2 48q0 129 49 194q37 54 104.5 84.5t149.5 30.5q80 0 193 -45q53 26 90.5 35.5t91.5 9.5q239 0 266 -248q6 -54 7 -101t1 -274h-352v-155q0 -74 15 -103t53 -29 q43 0 60.5 33t17.5 113v24v33l221 -47q0 -100 -13 -156t-47 -100q-79 -104 -260 -104q-75 0 -125.5 18t-97.5 62q-62 -45 -110.5 -62.5t-112.5 -17.5q-119 0 -176.5 71t-57.5 217zM295 301q0 -57 20 -88t56 -31q37 0 54 26t17 83v164l-59 -25q-47 -20 -67.5 -50t-20.5 -79z M688 676h125q0 161 -9 196t-52 35q-51 0 -60 -47q-4 -25 -4 -184z" />
<glyph unicode="&#xe7;" horiz-adv-x="657" d="M61 565v150q-2 214 63.5 299.5t229.5 85.5q179 0 232 -96q20 -35 27 -84t10 -170l-203 -43q0 103 -6 141q-10 47 -52 47q-29 0 -41 -26.5t-14 -94.5v-391l2 -82q0 -67 10 -89t41 -22q35 0 47.5 36.5t12.5 142.5v49l203 -37v-59q0 -94 -9.5 -143t-35.5 -87 q-74 -106 -236 -106q-121 0 -192 56.5t-82 160.5q-7 64 -7 362zM219 -293q56 20 78 40.5t22 51.5q0 56 -77 99l108 88q46 -32 66 -65t20 -77q0 -50 -33.5 -89.5t-111.5 -80.5z" />
<glyph unicode="&#xe8;" horiz-adv-x="720" d="M55 1454l201 45l272 -321l-116 -13zM61 502q0 280 5 345t30 118q68 135 266 135q125 0 190 -46t91 -153q12 -53 14 -107t2 -331h-352q0 -194 6 -225q9 -48 58 -48q37 0 50 20t11 73v53q2 12 2 24q0 19 -2 33l227 -47q0 -101 -11.5 -156.5t-43.5 -99.5q-79 -104 -250 -104 q-107 0 -181.5 47t-94.5 129q-12 50 -14.5 100t-2.5 240zM307 662h125q0 63 -2 153q-3 97 -61 94q-49 -3 -58 -51q-4 -25 -4 -196z" />
<glyph unicode="&#xe9;" horiz-adv-x="720" d="M61 684q0 153 13.5 217.5t54.5 114.5q72 84 233 84q126 0 190.5 -46t90.5 -153q12 -53 14 -107t2 -331h-352q0 -194 6 -225q9 -48 60 -48q35 0 48 20t11 73l2 53v24v33l225 -47q0 -101 -11.5 -156.5t-43.5 -99.5q-76 -104 -250 -104q-95 0 -164 37t-100 104 q-22 50 -25.5 119t-3.5 438zM193 1192l266 315l207 -28l-355 -297zM307 662h125q0 63 -2 153q-3 97 -61 94q-49 -3 -58 -51q-4 -25 -4 -196z" />
<glyph unicode="&#xea;" horiz-adv-x="720" d="M45 1196l266 309h109l258 -309l-98 -12l-218 186l-215 -186zM61 446v56q3 98 0 182q0 143 14 213t54 119q71 84 236 84q124 0 188 -46t90 -153q12 -53 14 -107t2 -331h-352q2 -194 6 -225q9 -48 60 -48q35 0 48 19.5t13 73.5v53v24v33l225 -47q1 -100 -11 -156t-44 -100 q-76 -104 -250 -104q-95 0 -164 37t-100 104q-17 38 -23 103t-6 216zM307 662h125q0 63 -2 153q-3 97 -61 94q-50 -3 -56 -51q-4 -25 -6 -196z" />
<glyph unicode="&#xeb;" horiz-adv-x="720" d="M49 1319q0 53 38.5 91t90.5 38q54 0 92.5 -38.5t38.5 -92.5q0 -53 -38.5 -91t-92.5 -38t-91.5 38t-37.5 93zM61 326v120v56q0 287 4.5 349t30.5 114q64 135 266 135q125 0 190 -46t91 -153q12 -53 14 -107t2 -331h-352q0 -194 6 -225q3 -23 18.5 -35.5t39.5 -12.5 q47 0 57 37q4 16 4 109v24v33l227 -47q0 -100 -12.5 -156t-44.5 -100q-76 -104 -248 -104q-146 0 -223 80q-38 40 -54 99t-16 161zM307 662h125q0 63 -2 153q-3 97 -61 94q-24 -2 -39.5 -15t-18.5 -36q-4 -25 -4 -196zM412 1319q0 53 38 91t91 38t92 -39t39 -92 q0 -52 -39 -90.5t-92 -38.5q-55 0 -92 37.5t-37 93.5z" />
<glyph unicode="&#xec;" horiz-adv-x="436" d="M-86 1454l201 45l272 -321l-117 -13zM96 0v1085h246v-1085h-246z" />
<glyph unicode="&#xed;" horiz-adv-x="436" d="M51 1192l266 315l207 -28l-354 -297zM96 0v1085h246v-1085h-246z" />
<glyph unicode="&#xee;" horiz-adv-x="436" d="M-29 1196l199 309h109l188 -309l-98 -12l-148 180l-147 -180zM96 0v1085h246v-1085h-246z" />
<glyph unicode="&#xef;" horiz-adv-x="436" d="M-31 1319q0 52 34.5 90.5t80.5 38.5q50 0 83.5 -38t33.5 -93q0 -54 -34 -91.5t-83 -37.5q-47 0 -81 38.5t-34 92.5zM96 0v1085h246v-1085h-246zM236 1319q0 52 34 90.5t80 38.5q50 0 83.5 -38t33.5 -93q0 -54 -34 -91.5t-83 -37.5q-47 0 -80.5 38.5t-33.5 92.5z" />
<glyph unicode="&#xf0;" horiz-adv-x="747" d="M61 508q0 185 4.5 256t17.5 108t50 76q40 41 93.5 61t135.5 23l-71 94l-180 -45l-27 64l160 41l-113 145l199 37l114 -133l148 39l29 -64l-125 -32q68 -80 102 -130t56 -121.5t27 -147t5 -216.5v-55v-156q0 -117 -15.5 -178t-56.5 -104q-84 -84 -241 -84 q-109 0 -184.5 41.5t-104.5 119.5q-15 38 -19 101.5t-4 259.5zM306.5 586.5q-0.5 -155.5 0.5 -248.5q2 -75 4.5 -94t12.5 -31q20 -23 49 -23q59 0 65 70q2 14 2 250v141l-2 88q0 88 -63 88q-60 0 -66 -69q-2 -16 -2.5 -171.5z" />
<glyph unicode="&#xf1;" horiz-adv-x="796" d="M96 0v1085h246v-55q49 40 87 55t85 15q62 0 108.5 -29t69.5 -82q23 -61 23 -166v-823h-246v752q0 79 -6 100q-10 43 -60 43q-35 0 -48 -21.5t-13 -78.5v-795h-246zM141 1309q72 92 109 120.5t82 28.5t127 -43q72 -39 116 -39q35 0 61 16t60 58l15 -68q-51 -75 -85 -104 t-71 -29q-20 0 -39.5 7.5t-85.5 41.5q-77 39 -117 39q-70 0 -151 -94z" />
<glyph unicode="&#xf2;" horiz-adv-x="747" d="M61 543q0 262 6 325.5t37 110.5q77 121 275 121q106 0 181 -42.5t104 -119.5q14 -39 18 -111.5t4 -283.5q0 -251 -7 -320.5t-36 -116.5q-77 -120 -270 -120q-109 0 -184.5 41.5t-104.5 119.5q-15 40 -19 106t-4 290zM68 1454l200 45l275 -321l-117 -13zM306.5 623.5 q-0.5 -185.5 0.5 -287.5q2 -74 4.5 -92.5t12.5 -30.5q16 -23 49 -23q59 0 65 70q2 14 2 285v174l-2 88q0 88 -63 88q-60 0 -66 -70q-2 -16 -2.5 -201.5z" />
<glyph unicode="&#xf3;" horiz-adv-x="747" d="M61 543q0 262 6 325.5t37 110.5q77 121 275 121q106 0 181 -42.5t104 -119.5q14 -39 18 -111.5t4 -283.5q0 -251 -7 -320.5t-36 -116.5q-77 -120 -270 -120q-109 0 -184.5 41.5t-104.5 119.5q-15 40 -19 106t-4 290zM205 1192l268 315l205 -28l-354 -297zM306.5 623.5 q-0.5 -185.5 0.5 -287.5q2 -74 4.5 -92.5t12.5 -30.5q16 -23 49 -23q59 0 65 70q2 14 2 285v174l-2 88q0 88 -63 88q-60 0 -66 -70q-2 -16 -2.5 -201.5z" />
<glyph unicode="&#xf4;" horiz-adv-x="747" d="M57 1196l267 309h108l258 -309l-98 -12l-217 186l-215 -186zM61 543q0 263 6 324.5t37 111.5q77 121 275 121q106 0 181 -42.5t104 -119.5q14 -39 18 -113t4 -282q0 -250 -7 -320.5t-36 -116.5q-77 -120 -270 -120q-109 0 -184.5 41.5t-104.5 119.5q-15 40 -19 104 t-4 292zM307 367q0 -121 10 -144q6 -14 22.5 -23.5t33.5 -9.5q59 0 65 70q2 14 2 285v174l-2 88q0 88 -63 88q-19 0 -35.5 -9t-22.5 -24q-10 -22 -10 -143v-144v-208z" />
<glyph unicode="&#xf5;" horiz-adv-x="747" d="M61 543q0 262 6 325.5t37 110.5q77 121 275 121q106 0 181 -42.5t104 -119.5q14 -39 18 -111.5t4 -283.5q0 -251 -7 -320.5t-36 -116.5q-77 -120 -270 -120q-109 0 -184.5 41.5t-104.5 119.5q-15 40 -19 106t-4 290zM88 1309q75 93 111 121t82 28q43 0 125 -43 q72 -39 116 -39q36 0 62 16t59 58l14 -68q-51 -75 -84.5 -104t-68.5 -29q-20 0 -39.5 7.5t-85.5 41.5q-79 39 -117 39q-72 0 -153 -94zM306.5 623.5q-0.5 -185.5 0.5 -287.5q2 -74 4.5 -92.5t12.5 -30.5q16 -23 49 -23q59 0 65 70q2 14 2 285v174l-2 88q0 88 -63 88 q-60 0 -66 -70q-2 -16 -2.5 -201.5z" />
<glyph unicode="&#xf6;" horiz-adv-x="747" d="M49 1319q0 53 38.5 91t90.5 38q54 0 92.5 -38.5t38.5 -92.5q0 -53 -38.5 -91t-92.5 -38t-91.5 38t-37.5 93zM61 543q0 262 6 325.5t37 110.5q77 121 275 121q106 0 181 -42.5t104 -119.5q15 -40 18.5 -104t3.5 -291q0 -262 -6 -325t-37 -112q-77 -120 -268 -120 q-111 0 -186.5 41.5t-104.5 119.5q-15 40 -19 106t-4 290zM307 543q0 -278 4 -303q4 -23 21.5 -36.5t42.5 -13.5q57 0 63 70q2 18 2 283v176q-2 94 -3 112t-7 31q-6 14 -22 23.5t-33 9.5q-19 0 -35.5 -9t-22.5 -24q-6 -13 -7.5 -31t-2.5 -112v-176zM438 1319q0 53 38 91 t91 38q54 0 92.5 -38.5t38.5 -92.5q0 -53 -38.5 -91t-92.5 -38t-91.5 38t-37.5 93z" />
<glyph unicode="&#xf7;" horiz-adv-x="737" d="M23 455v174h690v-174h-690zM215 221q0 63 45.5 108.5t108.5 45.5q61 0 106 -46t45 -108q0 -63 -44.5 -107t-108.5 -44q-63 0 -107.5 43.5t-44.5 107.5zM215 864q0 63 45 108.5t109 45.5q61 0 106 -46t45 -108q0 -63 -45 -107t-108 -44t-107.5 44t-44.5 107z" />
<glyph unicode="&#xf8;" horiz-adv-x="747" d="M61 543q0 262 6 325.5t37 110.5q79 121 267 121q116 0 192 -43l39 90h82l-61 -141q21 -27 30.5 -45t18 -41.5t10.5 -77.5t3 -112.5t1 -186.5q0 -262 -6 -326t-37 -111q-78 -120 -266 -120q-117 0 -193 43l-37 -84h-81l59 133q-34 43 -45 79t-15 110.5t-4 275.5zM307 299 q1 -61 16 -85t52 -24q17 0 33 9.5t22 23.5q6 13 7 31.5t3 112.5v176v39v39zM307 471l133 317q-2 60 -16 83.5t-49 23.5q-19 0 -35.5 -9.5t-22.5 -23.5q-6 -13 -7.5 -31t-2.5 -112v-176v-37v-35z" />
<glyph unicode="&#xf9;" horiz-adv-x="796" d="M82 262v823h246v-751q0 -80 6 -101q10 -43 59 -43q35 0 48.5 22t13.5 79v794h245v-1085h-245v55q-49 -39 -86.5 -54t-85.5 -15q-63 0 -109.5 28.5t-69.5 81.5q-22 58 -22 166zM92 1454l201 45l274 -321l-116 -13z" />
<glyph unicode="&#xfa;" horiz-adv-x="796" d="M82 262v823h246v-751q0 -80 6 -101q10 -43 59 -43q35 0 48.5 22t13.5 79v794h245v-1085h-245v55q-49 -39 -86.5 -54t-85.5 -15q-63 0 -109.5 28.5t-69.5 81.5q-22 58 -22 166zM229 1192l269 315l204 -28l-354 -297z" />
<glyph unicode="&#xfb;" horiz-adv-x="796" d="M82 262v823h246v-751q0 -80 6 -101q10 -43 59 -43q35 0 48.5 22t13.5 79v794h245v-1085h-245v55q-49 -39 -86.5 -54t-85.5 -15q-63 0 -109.5 28.5t-69.5 81.5q-22 58 -22 166zM82 1196l266 309h109l258 -309l-99 -12l-217 186l-215 -186z" />
<glyph unicode="&#xfc;" horiz-adv-x="796" d="M68 1319q0 53 38 91t91 38q54 0 92.5 -38.5t38.5 -92.5q0 -53 -38.5 -91t-92.5 -38t-91.5 38t-37.5 93zM82 262v823h246v-751q0 -80 6 -101q10 -43 59 -43q35 0 48.5 22t13.5 79v794h245v-1085h-245v55q-49 -39 -86.5 -54t-85.5 -15q-63 0 -109.5 28.5t-69.5 81.5 q-22 58 -22 166zM457 1319q0 53 38.5 91t90.5 38q54 0 92.5 -38.5t38.5 -92.5q0 -53 -38.5 -91t-92.5 -38t-91.5 38t-37.5 93z" />
<glyph unicode="&#xfd;" horiz-adv-x="641" d="M-14 -68q103 -2 149 31t53 115l-200 1007h256l73 -567l117 567h219l-272 -1101q-31 -128 -107.5 -186t-212.5 -58h-28zM164 1192l268 315l205 -28l-352 -297z" />
<glyph unicode="&#xfe;" horiz-adv-x="774" d="M96 -246v1612h246v-338q41 39 77.5 55.5t82.5 16.5q80 0 131.5 -49t66.5 -140q5 -27 10 -158t5 -235q0 -184 -6 -295q-5 -74 -26 -119.5t-65 -76.5q-53 -41 -122 -41q-43 0 -76.5 14.5t-77.5 52.5v-299h-246zM340 549q0 -204 4 -270q3 -37 19.5 -57.5t42.5 -20.5t42 20.5 t17 57.5q6 81 6 270q0 175 -6 268q-3 78 -62 78q-53 0 -59 -78q-4 -66 -4 -268z" />
<glyph unicode="&#xff;" horiz-adv-x="641" d="M-14 -68q103 -2 149 31t53 115l-200 1007h256l73 -567l117 567h219l-272 -1101q-31 -128 -107.5 -186t-212.5 -58h-28zM23 1319q0 53 38.5 91t90.5 38q54 0 92.5 -38.5t38.5 -92.5q0 -53 -38.5 -91t-92.5 -38t-91.5 38t-37.5 93zM385 1319q0 53 38.5 91t90.5 38t91.5 -39 t39.5 -92q0 -52 -39 -90.5t-92 -38.5q-55 0 -92 37.5t-37 93.5z" />
<glyph unicode="&#x152;" horiz-adv-x="1210" d="M76 682q0 246 4 343t14.5 145t40.5 92q38 55 111 86.5t162 31.5q27 0 96 -10l39 -4h592v-219h-340v-293h315v-219h-315v-416h362v-219h-586q-109 -14 -151 -14q-245 0 -311 170q-22 56 -27.5 142t-5.5 384zM328 426q1 -83 5.5 -115t16.5 -55q9 -20 33 -32.5t51 -12.5 q29 0 54 13t34 32q15 36 18 91.5t3 334.5v98v158q0 128 -21 172q-11 19 -34.5 32t-49.5 13q-89 0 -104 -100q-4 -28 -6 -240.5t0 -388.5z" />
<glyph unicode="&#x153;" horiz-adv-x="1103" d="M61 543q2 237 7 297q6 76 29 123t71 81q82 56 201 56q115 0 194 -43q82 43 191 43q183 0 239 -103q29 -56 40 -144.5t11 -272.5q0 -66 -2 -117h-350v-66l-2 -88q-1 -62 14.5 -90.5t51.5 -28.5q47 0 57 48q2 18 4 155l225 -47q0 -101 -12 -156t-43 -98q-76 -106 -252 -106 q-55 0 -92.5 9.5t-79.5 35.5q-80 -45 -188 -45q-109 0 -184.5 42t-104.5 119q-17 42 -21 108.5t-4 287.5zM311 541q0 -207 0.5 -244.5t5.5 -56.5q14 -50 62 -50q27 0 42 16t21 52q2 18 2 283v194q0 97 -12.5 128.5t-52.5 31.5q-41 0 -54.5 -32t-13.5 -134v-188zM692 662h125 q0 163 -8 196q-4 23 -19.5 37t-35.5 14q-62 0 -62 -110v-84v-53z" />
<glyph unicode="&#x178;" horiz-adv-x="839" d="M-20 1366h266l188 -510l174 510h252l-307 -791v-575h-252v575zM80 1585q0 55 40 95t95 40q57 0 97 -40t40 -97t-40 -96t-97 -39q-58 0 -96.5 39t-38.5 98zM489 1585q0 55 40 95t96 40q57 0 97 -40t40 -97t-40 -96t-97 -39q-58 0 -97 39t-39 98z" />
<glyph unicode="&#x2c6;" horiz-adv-x="1024" d="M197 1196l266 309h108l258 -309l-98 -12l-217 186l-215 -186z" />
<glyph unicode="&#x2dc;" horiz-adv-x="1024" d="M227 1309q72 92 109 120.5t82 28.5t127 -43q72 -39 117 -39q35 0 60.5 16t59.5 58l15 -68q-51 -75 -85 -104t-71 -29q-20 0 -39.5 7.5t-85.5 41.5q-77 39 -117 39q-70 0 -151 -94z" />
<glyph unicode="&#x2000;" horiz-adv-x="887" />
<glyph unicode="&#x2001;" horiz-adv-x="1774" />
<glyph unicode="&#x2002;" horiz-adv-x="887" />
<glyph unicode="&#x2003;" horiz-adv-x="1774" />
<glyph unicode="&#x2004;" horiz-adv-x="591" />
<glyph unicode="&#x2005;" horiz-adv-x="443" />
<glyph unicode="&#x2006;" horiz-adv-x="295" />
<glyph unicode="&#x2007;" horiz-adv-x="295" />
<glyph unicode="&#x2008;" horiz-adv-x="221" />
<glyph unicode="&#x2009;" horiz-adv-x="354" />
<glyph unicode="&#x200a;" horiz-adv-x="98" />
<glyph unicode="&#x2010;" horiz-adv-x="454" d="M49 547v205h404v-205h-404z" />
<glyph unicode="&#x2011;" horiz-adv-x="454" d="M49 547v205h404v-205h-404z" />
<glyph unicode="&#x2012;" horiz-adv-x="454" d="M49 547v205h404v-205h-404z" />
<glyph unicode="&#x2013;" horiz-adv-x="800" d="M49 573v150h694v-150h-694z" />
<glyph unicode="&#x2014;" horiz-adv-x="997" d="M49 573v150h893v-150h-893z" />
<glyph unicode="&#x2018;" horiz-adv-x="409" d="M76 831v216q35 109 53.5 153t71.5 135l39 72h102q-56 -187 -66 -387v-189h-200z" />
<glyph unicode="&#x2019;" horiz-adv-x="397" d="M68 819q50 178 61 367v180h190v-205q-32 -101 -50 -144t-68 -130l-37 -68h-96z" />
<glyph unicode="&#x201a;" horiz-adv-x="397" d="M76 -338q28 99 41.5 180t19.5 187v178h191v-205q-31 -98 -49.5 -140t-69.5 -132l-37 -68h-96z" />
<glyph unicode="&#x201c;" horiz-adv-x="710" d="M68 831v216q35 109 53.5 153t71.5 135l38 72h103q-56 -187 -66 -387v-189h-200zM369 831v216q35 109 53.5 153t71.5 135l38 72h103q-56 -187 -66 -387v-189h-200z" />
<glyph unicode="&#x201d;" horiz-adv-x="710" d="M76 791q54 183 65 387v188h201v-215q-32 -106 -51.5 -150.5t-73.5 -138.5l-39 -71h-102zM377 791q54 183 65 387v188h201v-215q-32 -106 -51.5 -150.5t-73.5 -138.5l-39 -71h-102z" />
<glyph unicode="&#x201e;" horiz-adv-x="710" d="M76 -356q54 183 65 387v188h201v-215q-32 -106 -51.5 -150.5t-73.5 -138.5l-39 -71h-102zM377 -356q54 183 65 387v188h201v-215q-32 -106 -51.5 -150.5t-73.5 -138.5l-39 -71h-102z" />
<glyph unicode="&#x2022;" horiz-adv-x="1366" d="M401 696q0 119 84 203q43 43 88.5 60.5t114.5 17.5q121 0 193 -78q40 -41 64 -96.5t24 -106.5q0 -114 -86 -200t-199 -86q-117 0 -200 84t-83 202z" />
<glyph unicode="&#x2026;" horiz-adv-x="1308" d="M88 131q0 59 41.5 100t101.5 41t102 -41.5t42 -101.5q0 -58 -42.5 -100.5t-101.5 -42.5q-60 0 -101.5 42.5t-41.5 102.5zM524 131q0 59 42 100t102 41t101.5 -41.5t41.5 -101.5q0 -59 -42.5 -101t-100.5 -42q-60 0 -102 42.5t-42 102.5zM961 131q0 59 41.5 100t101.5 41 t101.5 -41.5t41.5 -101.5q0 -59 -42.5 -101t-100.5 -42q-60 0 -101.5 42.5t-41.5 102.5z" />
<glyph unicode="&#x202f;" horiz-adv-x="354" />
<glyph unicode="&#x2039;" horiz-adv-x="391" d="M68 418v254l254 200v-182l-136 -149l136 -123v-195z" />
<glyph unicode="&#x203a;" horiz-adv-x="391" d="M68 223v183l135 151l-135 121v194l254 -194v-252z" />
<glyph unicode="&#x205f;" horiz-adv-x="443" />
<glyph unicode="&#x20ac;" d="M-29 557l27 84h80v12v13v28v31h-107l27 84h80v16v23q0 210 15 293t61 141q82 98 282 98q181 0 262 -90q34 -38 47.5 -94t16.5 -164l2 -102l-246 -37q0 151 -8 201q-4 26 -28.5 43.5t-55.5 17.5q-27 0 -49 -14t-31 -37q-10 -26 -12 -58t-2 -167v-48v-22h225l-29 -84h-196 v-84h168l-29 -84h-139q0 -203 8 -260q17 -86 90 -86q31 0 54.5 17t27.5 44q6 27 6 179v51l246 -21v-100q2 -123 -17 -188.5t-71 -120.5q-86 -86 -246 -86q-288 0 -340 233q-12 56 -12 338h-107z" />
<glyph unicode="&#x2122;" horiz-adv-x="1189" d="M6 1223v143h449v-143h-140v-676h-172v676h-137zM510 547v819h160l143 -485l143 485h158v-819h-160v401l-94 -401h-96l-94 401v-401h-160z" />
<glyph unicode="&#x25fc;" horiz-adv-x="1085" d="M0 0v1085h1085v-1085h-1085z" />
</font>
</defs>
</svg>
