<?xml version="1.0" encoding="utf-8"?>
<!-- Generator: Adobe Illustrator 21.1.0, SVG Export Plug-In . SVG Version: 6.00 Build 0)  -->
<svg version="1.1" id="Ebene_1" xmlns="http://www.w3.org/2000/svg" xmlns:xlink="http://www.w3.org/1999/xlink" x="0px" y="0px"
	 width="860px" height="7.7px" viewBox="0 0 860 7.7" style="enable-background:new 0 0 860 7.7;" xml:space="preserve">
<g>
	<path style="fill:#AD9689;" d="M859,1.4c1.3,0,0.8-0.4,1-0.5C857.9,1.1,859,1.5,859,1.4z"/>
	<polygon style="fill:#AD9689;" points="838,2.4 838.4,2.2 835.3,2.6 	"/>
	<path style="fill:#AD9689;" d="M818.4,2.4c1.9,0.7,7.1-0.1,10.6,0.1l0.6,0.2l1.6-0.6C826.9,2.2,821.4,2.6,818.4,2.4z"/>
	<path style="fill:#AD9689;" d="M808,0.8c0.6,0.3-2.3,0.2,2.4,0.1c-0.2,0-0.3,0-0.4-0.1C809.6,0.8,809,0.8,808,0.8z"/>
	<path style="fill:#AD9689;" d="M810,0.8C812,0.8,808.6,0.6,810,0.8L810,0.8z"/>
	<path style="fill:#AD9689;" d="M800.4,1l2.7-0.2c-0.6-0.2-3-0.2-2.1-0.3C798.3,0.6,798.9,0.7,800.4,1z"/>
	<path style="fill:#AD9689;" d="M797.9,1.5l1.4-0.1C799,1.3,798.7,1.3,797.9,1.5z"/>
	<path style="fill:#AD9689;" d="M802.3,1.2l-3,0.2c0.4,0.1,0.4,0.3,1.4-0.1C800.4,1.5,801,1.3,802.3,1.2z"/>
	<path style="fill:#AD9689;" d="M804,1.3c1.5,0.2,3.5,0.3,0.8,0.5C809.9,1.7,809.2,1.2,804,1.3z"/>
	<path style="fill:#AD9689;" d="M817.4,3.1l2,0.2l1.8-0.2C820.4,3.2,817.3,2.9,817.4,3.1z"/>
	<path style="fill:#AD9689;" d="M783.5,0.6c-0.2,0.2,0.9,0.4,1.1,0.6l2-0.2C785.6,1,783.6,0.9,783.5,0.6z"/>
	<path style="fill:#AD9689;" d="M784.6,1.2l-3,0.3C784.3,1.5,784.8,1.4,784.6,1.2z"/>
	<polygon style="fill:#AD9689;" points="797.4,2.3 802.3,1.8 796.4,2.3 	"/>
	<polygon style="fill:#AD9689;" points="772,0.6 773.7,0.3 770.7,0.8 	"/>
	<path style="fill:#AD9689;" d="M764.4,0.7c1.3-0.3-1.7-0.5-0.4-0.7c-2.1,0.1-3.8,0.3-5.4,0.5C760.3,0.4,762.1,0.4,764.4,0.7z"/>
	<path style="fill:#AD9689;" d="M755.9,0.9c0.8-0.1,1.7-0.2,2.7-0.3C757.7,0.6,756.8,0.7,755.9,0.9z"/>
	<path style="fill:#AD9689;" d="M776.5,1.4c-0.2-0.1-0.7-0.3-2.4-0.4l1.2,0.4C775.7,1.4,776.1,1.4,776.5,1.4z"/>
	<path style="fill:#AD9689;" d="M775.4,1.4L775.4,1.4c-1.3,0-2.2,0-2.6,0C773.1,1.4,773.9,1.4,775.4,1.4z"/>
	<path style="fill:#AD9689;" d="M776.8,1.4c-0.1,0-0.2,0-0.3,0C776.6,1.5,776.7,1.5,776.8,1.4z"/>
	<path style="fill:#AD9689;" d="M789.5,1.9c-1.8,0.2-5.4,0.5-1.9,0.9C788.9,2.5,786.9,2.3,789.5,1.9z"/>
	<path style="fill:#AD9689;" d="M778.3,2l3.2,0.1c-0.1-0.1-0.6-0.3,0.2-0.4L778.3,2z"/>
	<polygon style="fill:#AD9689;" points="776.7,2.1 778.3,2 777.1,1.9 	"/>
	<path style="fill:#AD9689;" d="M761.4,1.3c-1.4,0.2-2.9,0.2-4.6,0.2c1.8,0.1,3.7,0.1,5.5,0.1C762.6,1.5,763.4,1.2,761.4,1.3z"/>
	<path style="fill:#AD9689;" d="M768.2,1.4c-0.1,0-0.2,0-0.3,0C768.1,1.4,768.2,1.4,768.2,1.4z"/>
	<path style="fill:#AD9689;" d="M740,1.5c0.1,0,0.2,0.1,0.3,0.1c0,0,0,0,0.1-0.1L740,1.5z"/>
	<path style="fill:#AD9689;" d="M762.6,1.7c1.4,0.1,2.2,0,3-0.2c-1,0-2.1,0.1-3.3,0.1C762.2,1.7,762.2,1.7,762.6,1.7z"/>
	<path style="fill:#AD9689;" d="M751.3,1.1c0.7,0.1,1.5,0.2,2.4,0.2C752.9,1.2,751.5,0.9,751.3,1.1z"/>
	<path style="fill:#AD9689;" d="M767.4,1.3c0.1,0,0.1,0,0.2,0C767.2,1.2,767.2,1.2,767.4,1.3z"/>
	<path style="fill:#AD9689;" d="M767.4,1.3c-0.7,0.1-1.3,0.2-1.8,0.3c0.8,0,1.6-0.1,2.3-0.1C767.7,1.4,767.5,1.3,767.4,1.3z"/>
	<path style="fill:#AD9689;" d="M735,4.2c0.2-0.4,3.9-0.8,7-0.3c3.1-0.3,1.1-1.6-1.6-2.3c-0.1,0.2-0.1,0.3-3.2,0.6
		c1.1,0.2,7,0.5,4.3,0.9c-4.2,0.2-3.4-0.1-5.5-0.3c1.7,0.5-5.3,0.7-4.4,1.4l3.7-0.3C735.3,3.9,733.9,4.1,735,4.2z"/>
	<path style="fill:#AD9689;" d="M746.3,1.6l1.3,0c-1.5-0.1-2.5-0.2-4.5-0.5c-2.2,0.2-2.6,0.3-2.8,0.5l6.4,0.1L746.3,1.6z"/>
	<path style="fill:#AD9689;" d="M753.4,1.6c-1,0.4-4.1,0.6-2.2,1.1c3.8,0,2.7-0.4,4.9-0.5C750,2.2,757.9,1.8,753.4,1.6
		c1.3,0,2.3,0,3.4-0.1c-1.1-0.1-2.2-0.1-3.2-0.2c0.1,0,0.1,0,0.1,0l0,0c0,0,0,0,0,0c0.3,0.1,0.4,0.1,0.1,0.1c0,0-0.1,0-0.1,0
		C753.7,1.4,753.6,1.5,753.4,1.6c-1.8-0.1-0.3-0.1,0.3-0.2c0,0,0.1,0,0.1-0.1c0,0,0,0,0,0l-6.2,0.2C748.9,1.6,750.6,1.6,753.4,1.6z"
		/>
	<path style="fill:#AD9689;" d="M784.3,3.7c-0.2,0-0.2-0.1-0.2-0.1C783.7,3.7,783.6,3.7,784.3,3.7z"/>
	<path style="fill:#AD9689;" d="M781.8,3.5c0.4-0.1,0.8-0.2,2.3-0.2c1.3,0.1,0,0.2,0.1,0.3c0.9-0.1,3.1-0.3,0.3-0.5L784,3.2
		c-2.5-0.1-5.7-0.7-5.2-0.7C779.5,2.8,780.2,3.1,781.8,3.5z"/>
	<path style="fill:#AD9689;" d="M767.4,2.6l-5.1,0.2l2.6,0.4L764.8,3C767.7,3.1,767.1,2.8,767.4,2.6z"/>
	<polygon style="fill:#AD9689;" points="739.5,1.3 740.1,0.8 737.2,1.5 	"/>
	<polygon style="fill:#AD9689;" points="732.8,1.3 733,0.9 731.3,1.2 	"/>
	<path style="fill:#AD9689;" d="M356.8,6.2l-1.5,0.1C356,6.3,356.5,6.3,356.8,6.2z"/>
	<path style="fill:#AD9689;" d="M367.7,6.3l0.3-0.2C367.5,6.2,367.3,6.3,367.7,6.3z"/>
	<path style="fill:#AD9689;" d="M569.2,1.4c-2.2-0.4-4.6-0.9-4.4-0.5l0.7,0.4C567,1.2,568.2,1.3,569.2,1.4z"/>
	<path style="fill:#AD9689;" d="M457.1,4c0.2,0,0.4,0.1,0.6,0.1c0.5-0.1,1-0.3,1.5-0.4C458.6,3.8,457.9,3.9,457.1,4z"/>
	<path style="fill:#AD9689;" d="M455.6,5.8l-2.9-0.3C453.3,5.6,454.2,5.7,455.6,5.8z"/>
	<path style="fill:#AD9689;" d="M297.3,6.7l-1.8,0.4C298.3,7.1,297,6.9,297.3,6.7z"/>
	<path style="fill:#AD9689;" d="M664.6,1.5c-1.9-0.2-3.4-0.2-4.7-0.3C662.1,1.5,664,1.8,664.6,1.5z"/>
	<path style="fill:#AD9689;" d="M361.1,1.6c-0.9,0.1-1.3,0.2-1.3,0.3C360.8,1.8,361.3,1.7,361.1,1.6z"/>
	<path style="fill:#AD9689;" d="M654.4,1.2c0.3,0,0.7,0.1,1,0.1c1.4-0.1,2.8-0.1,4.5-0.1C658.1,1,656.2,0.9,654.4,1.2z"/>
	<path style="fill:#AD9689;" d="M81.2,6.3c-0.2,0-0.3,0-0.5-0.1C80.7,6.3,80.9,6.3,81.2,6.3z"/>
	<path style="fill:#AD9689;" d="M18.3,2c0.6,0,1.6,0,2.6,0C20.4,1.9,19.6,1.9,18.3,2z"/>
	<path style="fill:#AD9689;" d="M706,1.1C707.4,1.1,706.2,1.1,706,1.1L706,1.1z"/>
	<path style="fill:#AD9689;" d="M712.9,2.8c-0.3,0-0.5,0.1-0.6,0.2C712.4,3,712.6,2.9,712.9,2.8z"/>
	<path style="fill:#AD9689;" d="M640.3,3.9c0,0-0.1,0-0.1,0C640.6,4,640.5,4,640.3,3.9z"/>
	<path style="fill:#AD9689;" d="M708.1,1.3c-0.5-0.1-1.1-0.1-1.8-0.1C706.6,1.2,707.1,1.3,708.1,1.3z"/>
	<path style="fill:#AD9689;" d="M707.8,1.1c0.5,0,0.9,0,1.2,0C709.2,1.1,709.1,1.1,707.8,1.1z"/>
	<path style="fill:#AD9689;" d="M704,1.2c0.8,0,1.6,0,2.3,0c-0.3,0-0.4-0.1-0.3-0.1C705.6,1.1,705,1.1,704,1.2z"/>
	<path style="fill:#AD9689;" d="M197,5.2c-0.1,0-0.2,0-0.3,0C195.3,5.3,195.9,5.3,197,5.2z"/>
	<path style="fill:#AD9689;" d="M532.4,5.9c0.1,0,0.1,0,0.2,0C532.5,5.8,532.4,5.8,532.4,5.9L532.4,5.9z"/>
	<path style="fill:#AD9689;" d="M527.3,6.2c2.2-0.5,3.4-0.5,5-0.4l-1.7-1.3L527.3,6.2z"/>
	<path style="fill:#AD9689;" d="M330.7,6.4l3.6,0.4c-4.3,0.6-7.4,0.4-4.1,1c0.5-1.4,13.9-0.1,14.3-1.5l2.3,0.3
		c-0.7,0-0.8,0.1-1.4,0.1c4.6,0.7,3.4-1,9.3-0.8c2.1,0.1,3.5,0.3,2.1,0.5l4.6-0.3c1.3,0,1,0.3-0.3,0.2l7-0.1l-0.1,0
		c1-0.2,3.2-0.5,4.4-0.7c1.8,0.2-0.9,0.1-0.4,0.3l3.9-0.3c1.6,0.4-1.6,0.7-4.3,0.6c3.6,1.4,3.2-0.3,11,0.5l-3.6,0.2
		c2.4,0.8,5.2,0.5,9.3,1c-1-0.3-8.3-1.2-4.1-1.5c1.2,0.1,2.7,0.2,5-0.1c0,0.5,2.2,0.4,5,0.3l-0.2,0.6c3-0.2,2.8-0.5,4.5-0.8
		c3.3,0.1,4,0.6,4.8,1c5.3,0.1-3.7-0.8,2.6-0.9c4.4,0.2,7.5,0,12.8-0.4c3.1,0.2-0.5,0.4,0.6,0.6l2.8-0.5c0.7,0,0.5,0.2,0.3,0.2
		c2.3-0.2,0.2-0.6,3.8-0.8c1-0.7,7.5,1,12,0.2c1.1,0.2-0.5,0.4-0.2,0.6c6.2-0.5,5.3-0.4,10.4-1.1l4.3,0.4c-3.2-0.5,0.9-1,4.4-1.5
		c-1.1-0.2-2.1-0.4-2.7-0.5l5.7-0.3c0.7,0.1,0.1,0.3-0.8,0.6c0.4-0.1,0.8-0.1,1-0.2c2,0.2,1,0.6-0.5,1c-0.7-0.1-1.4-0.3-2-0.4
		c-1.4,0.4-2.7,0.8-2.4,1.2c0.4-0.1,1.1-0.1,1.9-0.2c-0.4,0.1-0.6,0.2-0.4,0.3c0.2,0.1,0.8-0.1,1.7-0.2l1.3,0.7l0.3-0.3l7.4,0.4
		c5.3-0.7,9.9-1.8,18.4-2.1c-2.1,0.5-0.4,0.9-0.6,1.5c-2.3-0.7-6.5,0.3-10.9,0.1c2.3,0.1,1.8,0.4,1.2,0.5l7.8-0.6
		c-0.2,0.5,1.7,0.4,3.7,0.6c-1.5-1,5.8-0.7,9-1c0.2,0.3-0.6,0.7-4.4,0.6c4.3,0.8,5.5-1.2,9.7-0.5c-0.9,0-1.5,0-1.8,0.1
		c2.2-0.3,7.6-0.1,6.3,0.2l-0.9,0c6.3,0.1,19.1,0,20-0.8c0.1,0.1-0.8,1-1.2,1.2L535,3c-1,0.7,2.8,2.5-2.4,2.9c1.5,0.1,3.3,0.2,6.5,0
		c-1-0.1-2.5-1.1-1.1-1.1c3.8,0.8,2.7,0.4,7.4,1.1c-1.5-0.2,0.2-1.3,2.6-1.3c-0.4,0.2,0.2,1.1-0.7,1.2l6-1.1c-1.5,0.2-0.3,1,1.1,1.3
		c-0.6-0.2,5.2,0,6.8-0.1l-2.5-0.3c6.8,0.2,6.7-1.6,13.4-1.5c-0.8,0.2-2,1.4,1.4,1.6c1.6-0.6,6.9-2.8,12.9-3.2l1.1,0.3l4.6-0.4
		c-2.8,0.9-10.8,2.7-15.2,3.4c2.5,0.3,0.7,0.4,4.5,0.4c1.3,0.3-2.1,0.5-3.2,0.5l8.9,0.2c-0.4-0.7,6.8-0.7,6.4-1.2l-9.6,0.7
		c-0.4-0.7,5.6-1.9,11.8-1.8c1.6,0.3-1.2,1.2-1.1,1.4c0.8-0.2,6-0.4,6.5-0.3L598.4,6c3.5,0.3,5.7-0.9,9.9-0.2c1.4,0,4.3,0.9,4.6,0.5
		c-2.4-0.8-2.8-3.1-1.2-3.7c0.5,0.1,7.6,0.7,9.3,1.1c2.4,0.6-3.6,1.4-1.6,2c0.1-0.2,1.4-0.4,2-0.5c1.5,0.2-0.6,0.6,2.7,0.5
		c0.6-0.7,6.7,0.1,1.6-0.6c3.2-0.2,3.4,0.1,7.2,0.1c-1.2-0.4,3.4-1.5,6.6-1.7c-0.2,0.2,0.5,0.4,0.9,0.5c6.6,0.1,10.2,0.4,16.4,0.4
		c0.6,0.2,3.6,0.4,2.3,0.7c0.9-0.1,1.7-0.4,3.6-0.4c3.7,0.6-4.2,0.1-1.4,0.8c0.2-0.4,4.9-0.5,7.6-0.8c-0.8-0.6-6.3-0.1-9,0.1
		c0-0.8,4.7-1.7,11.2-2.1c5.1-0.2,2.2,0.5,3.1,0.4c9.6,0.1,8.2-1.5,16.2-0.9c3.2,0.5,0.1,1.1,0.8,1.5c-4.2,0.2-6.4-0.3-9.3-0.3
		l3.5,0.3c-1.3,0.2-4.1,0.3-5.6,0.2c2.7,0.5,16.3,0.1,23.7,0.5c1.3-0.2,3.6-0.4,2.5-0.6l-2.4,0.1c-2.2-0.4,4.4-0.6,1.5-0.8
		c3.2-0.3,6.7-0.8,11.1-0.5L717,3c-0.1-0.2-2.9-0.4-4.2-0.2c1.9-0.3,6.8,0.8,8.8,0l-3.1-0.4c3.2-0.3,7.1-1,11-0.8
		c-1.8-0.6-0.9,0.1-3.7-0.6c2.4,0.9-10.1,0-6.2,0.9c-2.9-0.8-5-0.3-8.7-1c0.1,0.2,1.3,0.4-2,0.3c-0.1,0.1-0.5,0.1-0.7,0.2
		c-0.1,0-0.1,0-0.2,0c0.1,0,0.1,0,0.2,0c-0.1,0-0.2,0,0.1,0c0.8,0.1,1.4,0.2,1.7,0.3c-1.6,0.5-6.9,0.4-8.7,0.7
		c-2-0.1,0.8-0.2-0.3-0.4l-2.7,0.4c-0.3-0.4-5.2-0.7-0.6-1l-4.2,0c-2.4-0.3-5.8-0.4-7.9-0.2c-2-0.1-5,0.5-3.2,0.1L676,1.5L676,1.4
		c-6.4-0.1-13.3,0.7-20.6-0.1c-2.2,0.1-4.4,0.3-8,0.1l-0.7-0.4c-2.8,0.1-8.4-0.4-9.6,0c-3-1-13.5-0.2-18.4-0.4l-0.2,0.5
		c-3.4,0-6.6,0.1-10.8,0.3l0.3,0.4c-3.6,0.4-9.3-0.3-15-0.3c0.4-0.2,1.8-0.1,2.9,0c-6.8-1-14.4,0.7-20.6,0c-1.5,0.2-2.7,0.1-3.7,0
		c0.1,0,0.3,0,0.4,0c-0.2,0-0.4,0-0.6,0c-0.7-0.1-1.4-0.2-2.1-0.2c0.6,0.1,1.3,0.2,1.8,0.2c-1.2,0-3,0.1-4.8,0.2l-0.8-0.5
		c-0.1,0-0.3,0-0.4,0c-1.7-0.2-1.4,0.2-0.5,0.6c-0.9,0.1-1.7,0.2-2.3,0.3c-1.4-0.8-4.6,0.3-6.6-0.6c-1.2,0.4-8.9,0.3-9.8,1.2
		c-0.1-0.1-0.6-0.2,0.4-0.2c-2-0.1-3.9-0.2-5.7,0L539.7,2l-4.3,0.8c-2.6-0.4-3.7-0.6-1.1-1.1c-6.3,0.7-5.1,0.3-10.4,1l0.3-0.4
		c-1.9,0-4.9,0.5-6.1,0.2c-4.3-0.8-21.1-0.1-32-0.8c2.1,1.2-5.1-0.5-5.5,0.4c-0.6-0.3-2.2-0.4-0.4-0.7c-5.6,0.3-8.4-0.4-12.2,0.3
		c-0.6-0.3,1.2-0.4,0.6-0.6c-0.4,0.1-1.8,0.2-2.4,0.1c-0.6-0.2,0.8-0.2,1.7-0.4c-5.7,0-6.3,0.9-6.7,1.7c-2.9-0.4-4.3-0.3-6.4,0.2
		c-1-0.3-2.7-0.5,0.9-0.6c-2,0-12.2-0.4-12.4,0.3c-0.6-0.2-2.8,0-3.3,0c-4.5,0-4.9-0.1-9.2,0l1.2,0.1c-1.7,0.8-3.6,0.2-7.2,0.3
		l0.1-0.1c-8.1-0.6-3.5,0.3-11.5-0.4l0.4,0.5c-0.7,1-7.1-0.6-11.7-0.2l1.7,0.3c-2.5,0.4-7.1-1.4-9.6-1.5c-0.6-0.1,0.9-0.1,1.7-0.2
		c-6.7-0.6-0.9,0.6-5.8,0.8c-0.9-0.3,1.2-0.9-2.2-0.9c-1.7-0.3-9.7,1.1-14.3,0.5c1,0.3,2,0.5-0.3,0.7c-3.5,0.1-9.6-1-12.8-0.2
		C360,2,359.8,2,359.8,1.9c-2.7,0.2-8.8,0.4-10.4,0.8C346.9,1,332.6,3.5,332.7,2l-8.3,0.1l0.2-0.2c-5.3-0.1-7.2,0.3-9.1,0.6
		c-1.2-0.1-0.3-0.2-0.2-0.3c-7.8-0.3-8.5-0.2-15.1,0.5l-0.7-0.5c-1.8,0.3-11.2-0.8-18.9-0.2c0.1-0.1,0.2-0.2,0.8-0.2
		c-8.6,0.6-20.5-1.4-23.7,0.4l-5.7,0.4c7.3,0.1-1.1,0.8,1.9,1.1c-2.9,0.1-7.4-0.5-3.9-0.6l0.6,0.1c1.3-0.9-9.1-0.3-8.9-1
		c-14.4,0-28.4-0.5-41.9-0.5l1.6,0.7l-4.7,0c-1.2-0.2-1.7-0.6,1.7-0.5c-1.8-0.4-5.6,0.3-5.7,0.5c-6.6-0.3,2.6-0.9,0.6-0.9l-2.7,0.1
		l0.6,0.1c-2.2,0.3-2.4,0.6-6.5,0.6c-2.6-0.1-1.3-0.5-2.3-0.5c0-0.1-0.3-0.1-1.5,0l-5.9-0.1l2.4,0.6c-2.6,0.3-5.6,0-2.8,0.6
		c-4-1-22.1-0.4-24.6-0.7c-3.7,0.4-7.3,0.4-11.8,0.4c1.1,0.1,1.8,0.8-2.1,0.7c1.4-1.3-7.1-0.6-10.2-1.5c2.8,0.6-11,0.2-6.6,1.1
		c-3.2-0.1-0.2-0.5-2.7-0.8c-7.7,0.5-17-0.3-26.5-0.2c-0.1,0.2,1.4,0.4-0.6,0.7l-5-0.9c-1.9,0.1-1.7,1-5.2,0.4
		c0.5,0.1,1.2,0.4-0.1,0.4C60.4,1.6,40.9,3.1,22,1.5c2.6,0.3,0.9,0.4-1.1,0.4c1.3,0.1,0,0.4,0.2,0.7l-7.9-0.7
		c-1.4,0.7-8.5,0-9.3,0.7l2.5-0.1C3,3.2,11,4.2,10.5,5.1c3.7-0.8,9.9,1.3,16,0c1.4,0.2-1.2,0.3-0.4,0.5c1.6-0.4,3.4-0.5,6.9-0.3
		l-0.4,0.1c9.8-0.1,14,0.3,25,0.6l-0.8-0.5c2.4,0.1,2.9,0.2,4,0.3c2.7-0.7-6.6,0-4.2-0.8c3.1,1,16.7,0,18.8,1.1
		c3.6,0-1.1-0.5,2.6-0.5l1,0.3l0.9-0.4c2.4,0.1,3.6,0.4,3.7,0.7c-0.6,0-1.6,0.1-2.3,0.1c3.1,0.3,8.7-0.1,9.8,0l-3.5-0.2
		c9.9-0.3,22,0.1,31.6-0.5l-0.7-0.2c7.3-0.4,5.9,0.2,13.9,0.1L132,5.5c1.6-0.2,3.8-0.3,6-0.3c-2,0.3,3.8,0.5,1.2,0.8
		c7.9-0.4,3.9-0.3,9.2-1.2l1.2,0.4c1.8-0.3,1.9-0.5,5.9-0.6c-3.3,0.3,2.6,0.6-1.1,1c8.4,0.8,12.5-0.8,16.4,0.4
		c3.9-1-7.3-0.6-5.1-0.8c-1.8-0.3,3.2-0.8,5.8-0.7c2.7,0,4.6,1.3,11.3,1.3c-0.7,0-0.7,0.1-1.4,0.1c2.5,0.3,5-0.4,8.1,0.1
		c1.7-0.6,4,0,4.5-0.8l-6.2,0.2c3.5-0.2,6.8-1.1,12.6-0.7c-0.5,0.2-2.2,0.4-3.4,0.5c1.7,0.2,3.3-0.2,5,0.1
		c-0.5,0.8-7.5,0.2-11.3,0.8c1.8,0.3,7.1-0.6,5.2,0.3c2.7-1.1,6.7,0.1,11.2-0.7l-0.3,0.5c0.7-0.1,2.2-0.3,3.6-0.3L208,6.4
		c3.7-0.5,7.2,0.5,10.7,0.2c-7.4,0-1.7-0.6-4.8-0.9c9.2-0.6,5.3,1.2,15.6,1c-1.4,0.1-5.2-0.3-3.1-0.5c2,0.1,4.5,0.3,5.7,0.5
		c6.8-0.1-1-0.5,1.9-0.8c2.3,0.6,3.3-0.2,6.3-0.4l0,0.5c7.8,0.3,2.1-1,9.1-0.6l-3,0.7l3.6-0.2l-0.8,0.5c4-0.4,5.2-0.3,9.1-0.1
		c-0.9-0.3,0.5-0.9,3.9-0.9c2.3,0.3-1.3,0.5,3.6,0.4c-1.1,0.3-2.3,0.7-4.4,0.2c-0.2,0.2-1.1,0.3-1.3,0.5c2.5,0.3,6.3,0.1,8.1,0.1
		c-0.7,0-1.5,0-1.9-0.1l7.1-0.7c1.1,0.2,0.2,0.3-0.6,0.5c1.4-0.1,2.4-0.3,4.5-0.3c-0.5,0.4-0.4,0.8-3.4,1l6.7-0.4
		c0.4,0.2,3.5,0.5,2.6,0.6c3.7,0.2,9.2-0.8,14.1-0.5c0.3-0.1,0.8-0.1,1.8-0.2c4.7,0.1,8.8,0.6,14.3,0l3.1,0.7c4.3-0.2-4.2-0.9,3-1.2
		c5.1-0.2,1.9,0.6,3.7,0.8c2.5-0.4,6.9-1.1,11.6-0.5C333.4,6.4,332.2,6.3,330.7,6.4z M384,6c-1,0.1-3.1,0.4-3.8,0.1
		C381.3,5.6,382.2,5.9,384,6z M464.9,4.9c-0.8,0.2-2,0.1-3.3-0.1C462.6,4.7,463.7,4.8,464.9,4.9z M690.5,1.5c0,0-0.1,0-0.1,0
		C688.1,1.4,688.9,1.4,690.5,1.5z M695.3,1.7c0.5-0.1,0.4-0.1,0.2-0.2c-0.3,0.1-1.4,0.1-2.6,0.1C693.2,1.8,693.8,1.8,695.3,1.7z
		 M181.9,1.9l0.9,0.1C180.7,2.2,181.3,2.1,181.9,1.9z"/>
	<path style="fill:#AD9689;" d="M455.8,5.5c-0.3-0.1-0.4-0.2-0.4-0.3C454.9,5.4,454.9,5.5,455.8,5.5z"/>
	<path style="fill:#AD9689;" d="M297.6,6.6c-0.1,0-0.1,0-0.2,0c-0.1,0-0.1,0.1-0.2,0.1L297.6,6.6z"/>
	<path style="fill:#AD9689;" d="M621.2,5.8c-1-0.1-1.5-0.2-1.9-0.2C619.3,5.7,619.7,5.8,621.2,5.8z"/>
	<path style="fill:#AD9689;" d="M720.6,0.9L717.5,1c1.5,0,2,0.1,2.8,0.2C720.2,1.1,719.7,0.9,720.6,0.9z"/>
	<path style="fill:#AD9689;" d="M747.2,3.9c0.4-0.1,0.9,0,1.4-0.1l-0.1-0.2C746.6,3.6,745.2,3.8,747.2,3.9z"/>
	<path style="fill:#AD9689;" d="M723.4,2.5c0.2,0.4,2.2,0.3,4.3,0.2c-0.1,0-0.3,0-0.4,0C728,2.1,725.7,2.3,723.4,2.5z"/>
	<path style="fill:#AD9689;" d="M728.3,2.7c0.7,0,1.3,0,2,0C730.5,2.5,729.4,2.6,728.3,2.7z"/>
	<path style="fill:#AD9689;" d="M701.3,1.5c1,0.1,0.6-0.5,1.2-0.4C703.7,0.6,695.8,1.7,701.3,1.5z"/>
	<polygon style="fill:#AD9689;" points="725.2,3.9 724.4,3.4 723.2,3.8 	"/>
	<path style="fill:#AD9689;" d="M708.2,3.5l3.4,0.1c-0.1-0.1,0.4-0.1,0.9-0.2C710.5,3.4,708.2,3.3,708.2,3.5z"/>
	<path style="fill:#AD9689;" d="M712.6,3.5c1.1,0,2.1,0,2.8-0.1C714.8,3.4,713.5,3.4,712.6,3.5z"/>
	<polygon style="fill:#AD9689;" points="720.5,4 719.5,3.9 717.1,3.9 	"/>
	<path style="fill:#AD9689;" d="M671.4,3.4l-3.7,0.1c-0.4,0.2,0.6,0.3,2,0.2C670.6,3.6,672,3.6,671.4,3.4z"/>
	<path style="fill:#AD9689;" d="M682.7,4.8c-1-0.1-1.1-0.2-1.7-0.4L680.9,5L682.7,4.8z"/>
	<path style="fill:#AD9689;" d="M671.8,4.9c-0.4,0.2-5.4,0.5-0.7,0.5C671.5,5.2,675.2,5.1,671.8,4.9z"/>
	<polygon style="fill:#AD9689;" points="615.4,4.1 616.4,4.1 616.3,3.1 	"/>
	<path style="fill:#AD9689;" d="M565.8,6.6c4.4,0.2,1.1-0.6,5.1-0.3c1-0.2-3.3-0.2-2.2-0.5C565.9,6,564.5,5.9,565.8,6.6z"/>
	<path style="fill:#AD9689;" d="M568.6,5.8c0.4,0,0.9-0.1,1.4-0.2C569.2,5.7,568.8,5.7,568.6,5.8z"/>
	<polygon style="fill:#AD9689;" points="7.9,1.4 5,1.2 6.8,1.5 	"/>
	<path style="fill:#AD9689;" d="M2.4,2.2L1.7,1.5L0,2.1C0.6,2.1,1.9,2,2.4,2.2z"/>
	<path style="fill:#AD9689;" d="M391.9,7.4l0.2-0.2C391.7,7,391,7,389.7,7L391.9,7.4z"/>
	<polygon style="fill:#AD9689;" points="353.2,6.9 353.9,6.9 352.7,6.3 	"/>
	<path style="fill:#AD9689;" d="M320.8,7.6c1.3,0,2.9-0.1,4.2-0.1C322.1,7.6,320.4,6.9,320.8,7.6z"/>
</g>
</svg>
