<?xml version="1.0" encoding="utf-8"?>
<!-- Generator: Adobe Illustrator 21.1.0, SVG Export Plug-In . SVG Version: 6.00 Build 0)  -->
<svg version="1.1" id="Ebene_1" xmlns="http://www.w3.org/2000/svg" xmlns:xlink="http://www.w3.org/1999/xlink" x="0px" y="0px"
	 width="300px" height="5.6px" viewBox="0 0 300 5.6" style="enable-background:new 0 0 300 5.6;" xml:space="preserve">
<g>
	<path style="fill:#AD9689;" d="M299.6,1c0.4,0,0.3-0.3,0.4-0.3C299.3,0.8,299.7,1.1,299.6,1z"/>
	<polygon style="fill:#AD9689;" points="292.3,1.7 292.5,1.6 291.4,1.9 	"/>
	<path style="fill:#AD9689;" d="M285.5,1.7c0.6,0.5,2.5-0.1,3.7,0.1l0.2,0.1l0.5-0.4C288.5,1.6,286.5,1.9,285.5,1.7z"/>
	<path style="fill:#AD9689;" d="M281.9,0.6c0.2,0.2-0.8,0.2,0.9,0.1c-0.1,0-0.1,0-0.2-0.1C282.4,0.6,282.2,0.6,281.9,0.6z"/>
	<path style="fill:#AD9689;" d="M282.6,0.6C283.3,0.6,282.1,0.4,282.6,0.6L282.6,0.6z"/>
	<path style="fill:#AD9689;" d="M279.2,0.7l0.9-0.2c-0.2-0.1-1-0.1-0.7-0.2C278.5,0.4,278.7,0.5,279.2,0.7z"/>
	<path style="fill:#AD9689;" d="M278.3,1.1l0.5-0.1C278.7,1,278.6,1,278.3,1.1z"/>
	<path style="fill:#AD9689;" d="M279.9,0.9l-1,0.2c0.1,0.1,0.2,0.3,0.5-0.1C279.2,1.1,279.4,1,279.9,0.9z"/>
	<path style="fill:#AD9689;" d="M280.5,0.9c0.5,0.1,1.2,0.2,0.3,0.4C282.5,1.2,282.3,0.9,280.5,0.9z"/>
	<path style="fill:#AD9689;" d="M285.2,2.2l0.7,0.2l0.6-0.2C286.2,2.3,285.1,2.1,285.2,2.2z"/>
	<path style="fill:#AD9689;" d="M273.3,0.5c-0.1,0.1,0.3,0.3,0.4,0.4l0.7-0.1C274,0.7,273.4,0.6,273.3,0.5z"/>
	<path style="fill:#AD9689;" d="M273.7,0.9l-1,0.2C273.6,1.1,273.8,1,273.7,0.9z"/>
	<polygon style="fill:#AD9689;" points="278.2,1.7 279.9,1.3 277.8,1.7 	"/>
	<polygon style="fill:#AD9689;" points="269.3,0.4 269.9,0.2 268.9,0.6 	"/>
	<path style="fill:#AD9689;" d="M266.7,0.5c0.4-0.2-0.6-0.4-0.1-0.5c-0.7,0-1.3,0.2-1.9,0.4C265.2,0.3,265.8,0.3,266.7,0.5z"/>
	<path style="fill:#AD9689;" d="M263.7,0.6c0.3-0.1,0.6-0.1,0.9-0.2C264.3,0.4,264,0.5,263.7,0.6z"/>
	<path style="fill:#AD9689;" d="M270.9,1c-0.1-0.1-0.2-0.2-0.8-0.3l0.4,0.3C270.6,1,270.7,1,270.9,1z"/>
	<path style="fill:#AD9689;" d="M270.5,1L270.5,1c-0.5,0-0.8,0-0.9,0C269.7,1,270,1,270.5,1z"/>
	<path style="fill:#AD9689;" d="M271,1c0,0-0.1,0-0.1,0C270.9,1.1,270.9,1.1,271,1z"/>
	<path style="fill:#AD9689;" d="M275.4,1.4c-0.6,0.2-1.9,0.4-0.7,0.6C275.2,1.8,274.5,1.6,275.4,1.4z"/>
	<path style="fill:#AD9689;" d="M271.5,1.4l1.1,0.1c0-0.1-0.2-0.2,0.1-0.3L271.5,1.4z"/>
	<polygon style="fill:#AD9689;" points="270.9,1.5 271.5,1.4 271.1,1.4 	"/>
	<path style="fill:#AD9689;" d="M265.6,0.9c-0.5,0.1-1,0.1-1.6,0.2c0.6,0.1,1.3,0.1,1.9,0.1C266,1.1,266.3,0.9,265.6,0.9z"/>
	<path style="fill:#AD9689;" d="M268,1c0,0-0.1,0-0.1,0C267.9,1,268,1,268,1z"/>
	<path style="fill:#AD9689;" d="M258.2,1.1C258.2,1.1,258.2,1.1,258.2,1.1c0.1,0,0.1,0,0.1,0L258.2,1.1z"/>
	<path style="fill:#AD9689;" d="M266,1.2c0.5,0.1,0.8,0,1-0.1c-0.4,0-0.7,0.1-1.1,0.1C265.9,1.2,265.9,1.2,266,1.2z"/>
	<path style="fill:#AD9689;" d="M262.1,0.8c0.2,0.1,0.5,0.1,0.8,0.2C262.7,0.8,262.2,0.7,262.1,0.8z"/>
	<path style="fill:#AD9689;" d="M267.7,0.9C267.7,0.9,267.7,0.9,267.7,0.9C267.6,0.8,267.6,0.9,267.7,0.9z"/>
	<path style="fill:#AD9689;" d="M267.7,0.9c-0.2,0-0.4,0.1-0.6,0.2c0.3,0,0.6-0.1,0.8-0.1C267.8,1,267.7,1,267.7,0.9z"/>
	<path style="fill:#AD9689;" d="M256.4,3.1c0.1-0.3,1.3-0.6,2.4-0.2c1.1-0.2,0.4-1.2-0.6-1.7c0,0.1,0,0.2-1.1,0.4
		c0.4,0.2,2.4,0.4,1.5,0.6c-1.5,0.1-1.2-0.1-1.9-0.3c0.6,0.4-1.9,0.5-1.5,1l1.3-0.2C256.5,2.8,256,3,256.4,3.1z"/>
	<path style="fill:#AD9689;" d="M260.3,1.2l0.5,0c-0.5-0.1-0.9-0.2-1.6-0.4c-0.8,0.1-0.9,0.2-1,0.3l2.2,0L260.3,1.2z"/>
	<path style="fill:#AD9689;" d="M262.8,1.1c-0.4,0.3-1.4,0.4-0.8,0.8c1.3,0,0.9-0.3,1.7-0.4C261.6,1.6,264.4,1.3,262.8,1.1
		c0.4,0,0.8,0,1.2,0c-0.4,0-0.8-0.1-1.1-0.1c0,0,0,0,0,0l0,0c0,0,0,0,0,0c0.1,0,0.1,0.1,0,0c0,0,0,0,0,0
		C262.9,1,262.9,1.1,262.8,1.1c-0.6-0.1-0.1-0.1,0.1-0.1c0,0,0,0,0,0c0,0,0,0,0,0l-2.1,0.2C261.3,1.2,261.8,1.2,262.8,1.1z"/>
	<path style="fill:#AD9689;" d="M273.6,2.7C273.5,2.7,273.5,2.6,273.6,2.7C273.4,2.6,273.3,2.7,273.6,2.7z"/>
	<path style="fill:#AD9689;" d="M272.7,2.5c0.2,0,0.3-0.2,0.8-0.1c0.4,0.1,0,0.1,0,0.3c0.3-0.1,1.1-0.2,0.1-0.4l-0.2,0
		c-0.9-0.1-2-0.5-1.8-0.5C271.9,2,272.1,2.2,272.7,2.5z"/>
	<path style="fill:#AD9689;" d="M267.7,1.9L265.9,2l0.9,0.3l0-0.2C267.8,2.2,267.6,2,267.7,1.9z"/>
	<polygon style="fill:#AD9689;" points="257.9,0.9 258.2,0.6 257.2,1.1 	"/>
	<polygon style="fill:#AD9689;" points="255.6,1 255.7,0.7 255.1,0.8 	"/>
	<path style="fill:#AD9689;" d="M124.5,4.5l-0.5,0.1C124.2,4.6,124.4,4.5,124.5,4.5z"/>
	<path style="fill:#AD9689;" d="M128.3,4.5l0.1-0.1C128.2,4.5,128.1,4.5,128.3,4.5z"/>
	<path style="fill:#AD9689;" d="M198.5,1c-0.8-0.3-1.6-0.7-1.5-0.4l0.2,0.3C197.8,0.9,198.2,0.9,198.5,1z"/>
	<path style="fill:#AD9689;" d="M159.5,2.9c0.1,0,0.1,0.1,0.2,0.1c0.2-0.1,0.4-0.2,0.5-0.3C160,2.7,159.7,2.8,159.5,2.9z"/>
	<path style="fill:#AD9689;" d="M158.9,4.2l-1-0.2C158.1,4,158.5,4.1,158.9,4.2z"/>
	<path style="fill:#AD9689;" d="M103.7,4.8l-0.6,0.3C104,5.1,103.6,5,103.7,4.8z"/>
	<path style="fill:#AD9689;" d="M231.8,1.1c-0.7-0.1-1.2-0.2-1.6-0.2C231,1.1,231.6,1.3,231.8,1.1z"/>
	<path style="fill:#AD9689;" d="M126,1.2c-0.3,0.1-0.5,0.1-0.4,0.2C125.9,1.3,126,1.3,126,1.2z"/>
	<path style="fill:#AD9689;" d="M228.3,0.9c0.1,0,0.2,0,0.3,0.1c0.5-0.1,1-0.1,1.6-0.1C229.6,0.7,228.9,0.7,228.3,0.9z"/>
	<path style="fill:#AD9689;" d="M28.3,4.6c-0.1,0-0.1,0-0.2,0C28.2,4.6,28.2,4.6,28.3,4.6z"/>
	<path style="fill:#AD9689;" d="M6.4,1.4c0.2,0,0.6,0,0.9,0C7.1,1.4,6.9,1.4,6.4,1.4z"/>
	<path style="fill:#AD9689;" d="M246.3,0.8C246.8,0.8,246.4,0.8,246.3,0.8L246.3,0.8z"/>
	<path style="fill:#AD9689;" d="M248.7,2.1c-0.1,0-0.2,0.1-0.2,0.2C248.5,2.1,248.6,2.1,248.7,2.1z"/>
	<path style="fill:#AD9689;" d="M223.4,2.8C223.3,2.8,223.3,2.8,223.4,2.8C223.5,2.9,223.4,2.9,223.4,2.8z"/>
	<path style="fill:#AD9689;" d="M247,1c-0.2,0-0.4-0.1-0.6-0.1C246.5,0.9,246.7,0.9,247,1z"/>
	<path style="fill:#AD9689;" d="M246.9,0.8c0.2,0,0.3,0,0.4,0C247.4,0.8,247.4,0.8,246.9,0.8z"/>
	<path style="fill:#AD9689;" d="M245.6,0.8c0.3,0,0.5,0,0.8,0c-0.1,0-0.1,0-0.1,0C246.1,0.8,245.9,0.8,245.6,0.8z"/>
	<path style="fill:#AD9689;" d="M68.7,3.7c0,0-0.1,0-0.1,0C68.1,3.8,68.3,3.8,68.7,3.7z"/>
	<path style="fill:#AD9689;" d="M185.7,4.2C185.7,4.2,185.8,4.2,185.7,4.2C185.7,4.2,185.7,4.2,185.7,4.2L185.7,4.2z"/>
	<path style="fill:#AD9689;" d="M183.9,4.5c0.8-0.4,1.2-0.3,1.8-0.3l-0.6-0.9L183.9,4.5z"/>
	<path style="fill:#AD9689;" d="M115.4,4.6l1.2,0.3c-1.5,0.5-2.6,0.3-1.4,0.7c0.2-1,4.8-0.1,5-1.1l0.8,0.2c-0.2,0-0.3,0-0.5,0
		c1.6,0.5,1.2-0.7,3.2-0.6c0.7,0.1,1.2,0.2,0.7,0.3l1.6-0.2c0.5,0,0.4,0.2-0.1,0.2l2.4-0.1l0,0c0.3-0.2,1.1-0.4,1.5-0.5
		c0.6,0.1-0.3,0.1-0.2,0.2l1.3-0.2c0.5,0.3-0.6,0.5-1.5,0.5c1.3,1,1.1-0.2,3.8,0.3l-1.3,0.1c0.8,0.6,1.8,0.4,3.3,0.7
		c-0.3-0.2-2.9-0.9-1.4-1.1c0.4,0.1,1,0.1,1.7-0.1c0,0.3,0.8,0.3,1.7,0.2L137.4,5c1-0.1,1-0.4,1.6-0.6c1.2,0,1.4,0.4,1.7,0.7
		c1.9,0.1-1.3-0.6,0.9-0.7c1.5,0.2,2.6,0,4.5-0.3c1.1,0.2-0.2,0.3,0.2,0.4l1-0.4c0.2,0,0.2,0.1,0.1,0.2c0.8-0.1,0.1-0.5,1.3-0.6
		c0.3-0.5,2.6,0.7,4.2,0.2c0.4,0.1-0.2,0.3-0.1,0.5c2.2-0.4,1.9-0.3,3.6-0.8l1.5,0.3c-1.1-0.3,0.3-0.8,1.5-1.1
		c-0.4-0.2-0.7-0.3-1-0.4l2-0.2c0.2,0.1,0,0.2-0.3,0.4c0.1,0,0.3-0.1,0.4-0.1c0.7,0.2,0.3,0.4-0.2,0.7c-0.2-0.1-0.5-0.2-0.7-0.3
		c-0.5,0.3-0.9,0.6-0.8,0.9c0.1-0.1,0.4-0.1,0.6-0.1c-0.1,0.1-0.2,0.1-0.2,0.2c0.1,0,0.3-0.1,0.6-0.2l0.5,0.5l0.1-0.2l2.6,0.3
		c1.9-0.5,3.5-1.3,6.4-1.5c-0.7,0.4-0.2,0.6-0.2,1.1c-0.8-0.5-2.3,0.2-3.8,0.1c0.8,0,0.6,0.3,0.4,0.3l2.7-0.4
		c-0.1,0.4,0.6,0.3,1.3,0.4c-0.5-0.7,2-0.5,3.1-0.7c0.1,0.2-0.2,0.5-1.5,0.4c1.5,0.5,1.9-0.8,3.4-0.4c-0.3,0-0.5,0-0.6,0.1
		c0.8-0.2,2.7,0,2.2,0.2l-0.3,0c2.2,0.1,6.7,0,7-0.6c0,0.1-0.3,0.7-0.4,0.9l3.9-2.1c-0.3,0.5,1,1.8-0.8,2.1c0.5,0.1,1.2,0.2,2.3,0
		c-0.4-0.1-0.9-0.8-0.4-0.8c1.3,0.6,0.9,0.3,2.6,0.8c-0.5-0.1,0.1-0.9,0.9-0.9c-0.1,0.1,0.1,0.8-0.2,0.9l2.1-0.8
		c-0.5,0.1-0.1,0.7,0.4,0.9c-0.2-0.2,1.8,0,2.4-0.1L194.8,4c2.4,0.1,2.3-1.1,4.7-1.1c-0.3,0.2-0.7,1,0.5,1.1c0.5-0.4,2.4-2,4.5-2.3
		l0.4,0.2l1.6-0.3c-1,0.6-3.8,1.9-5.3,2.5c0.9,0.2,0.2,0.3,1.6,0.3c0.5,0.2-0.7,0.3-1.1,0.4l3.1,0.1c-0.1-0.5,2.4-0.5,2.2-0.9
		l-3.4,0.5c-0.1-0.5,1.9-1.4,4.1-1.3c0.6,0.2-0.4,0.9-0.4,1c0.3-0.2,2.1-0.3,2.3-0.2l-0.9,0.3c1.2,0.2,2-0.6,3.5-0.2
		c0.5,0,1.5,0.6,1.6,0.3c-0.8-0.6-1-2.3-0.4-2.7c0.2,0,2.7,0.5,3.2,0.8c0.8,0.4-1.2,1-0.5,1.4c0-0.1,0.5-0.3,0.7-0.3
		c0.5,0.1-0.2,0.4,0.9,0.4c0.2-0.5,2.3,0,0.5-0.4c1.1-0.1,1.2,0.1,2.5,0.1c-0.4-0.3,1.2-1.1,2.3-1.2c-0.1,0.1,0.2,0.3,0.3,0.4
		c2.3,0,3.6,0.3,5.7,0.3c0.2,0.1,1.2,0.3,0.8,0.5c0.3-0.1,0.6-0.3,1.3-0.3c1.3,0.4-1.5,0.1-0.5,0.6c0.1-0.3,1.7-0.4,2.7-0.6
		c-0.3-0.4-2.2-0.1-3.1,0.1c0-0.6,1.6-1.2,3.9-1.5c1.8-0.2,0.8,0.4,1.1,0.3c3.4,0.1,2.9-1.1,5.7-0.6c1.1,0.4,0.1,0.8,0.3,1.1
		c-1.5,0.1-2.2-0.2-3.2-0.2l1.2,0.2c-0.5,0.1-1.4,0.2-2,0.1c0.9,0.3,5.7,0.1,8.3,0.4c0.5-0.1,1.3-0.3,0.9-0.4l-0.8,0.1
		c-0.8-0.3,1.5-0.4,0.5-0.6c1.1-0.2,2.3-0.6,3.9-0.4l0.3,0.4c0-0.1-1-0.3-1.4-0.1c0.6-0.2,2.4,0.6,3.1,0l-1.1-0.3
		c1.1-0.2,2.5-0.7,3.8-0.6c-0.6-0.4-0.3,0.1-1.3-0.5c0.8,0.6-3.5,0-2.2,0.6c-1-0.6-1.7-0.3-3-0.8c0,0.1,0.5,0.3-0.7,0.2
		c-0.1,0-0.2,0.1-0.3,0.1c0,0,0,0-0.1,0c0,0,0,0,0.1,0c-0.1,0-0.1,0,0,0c0.3,0.1,0.5,0.1,0.6,0.2c-0.6,0.3-2.4,0.3-3,0.5
		c-0.7-0.1,0.3-0.2-0.1-0.3l-0.9,0.3c-0.1-0.3-1.8-0.5-0.2-0.7l-1.5,0c-0.9-0.2-2-0.3-2.8-0.1c-0.7-0.1-1.7,0.4-1.1,0.1l-2.3,0.2
		l0-0.1c-2.2,0-4.6,0.5-7.2,0c-0.8,0.1-1.5,0.2-2.8,0.1l-0.2-0.3c-1,0.1-2.9-0.3-3.3,0c-1-0.8-4.7-0.2-6.4-0.3l-0.1,0.4
		c-1.2,0-2.3,0.1-3.8,0.2l0.1,0.3c-1.3,0.3-3.2-0.2-5.2-0.2c0.1-0.1,0.6-0.1,1,0c-2.4-0.7-5,0.5-7.2,0c-0.5,0.1-0.9,0.1-1.3,0
		c0.1,0,0.1,0,0.1,0c-0.1,0-0.1,0-0.2,0c-0.2-0.1-0.5-0.1-0.7-0.2c0.2,0.1,0.4,0.1,0.6,0.2c-0.4,0-1,0-1.7,0.1l-0.3-0.3
		c-0.1,0-0.1,0-0.1,0c-0.6-0.1-0.5,0.2-0.2,0.4c-0.3,0.1-0.6,0.1-0.8,0.2c-0.5-0.6-1.6,0.2-2.3-0.4c-0.4,0.3-3.1,0.2-3.4,0.8
		c0-0.1-0.2-0.1,0.1-0.1c-0.7-0.1-1.4-0.1-2,0l-0.3-0.4l-1.5,0.6c-0.9-0.3-1.3-0.4-0.4-0.8c-2.2,0.5-1.8,0.2-3.6,0.7l0.1-0.3
		c-0.7,0-1.7,0.4-2.1,0.2c-1.5-0.5-7.3-0.1-11.2-0.6c0.7,0.8-1.8-0.4-1.9,0.3c-0.2-0.2-0.8-0.3-0.1-0.5c-1.9,0.2-2.9-0.3-4.3,0.2
		c-0.2-0.2,0.4-0.3,0.2-0.4c-0.2,0-0.6,0.2-0.8,0.1c-0.2-0.1,0.3-0.2,0.6-0.3c-2,0-2.2,0.6-2.3,1.2c-1-0.3-1.5-0.2-2.2,0.1
		c-0.4-0.2-0.9-0.4,0.3-0.5c-0.7,0-4.2-0.3-4.3,0.2c-0.2-0.1-1,0-1.2,0c-1.6,0-1.7-0.1-3.2,0l0.4,0.1c-0.6,0.6-1.3,0.1-2.5,0.2
		l0-0.1c-2.8-0.4-1.2,0.2-4-0.3l0.2,0.3c-0.3,0.7-2.5-0.4-4.1-0.2l0.6,0.2c-0.9,0.3-2.5-1-3.4-1.1c-0.2-0.1,0.3-0.1,0.6-0.2
		c-2.3-0.4-0.3,0.5-2,0.6c-0.3-0.2,0.4-0.6-0.8-0.7c-0.6-0.2-3.4,0.8-5,0.3c0.4,0.2,0.7,0.4-0.1,0.5c-1.2,0.1-3.3-0.7-4.5-0.1
		c-0.2-0.1-0.2-0.1-0.2-0.1c-0.9,0.2-3.1,0.3-3.6,0.6C121,0.7,116,2.5,116,1.4l-2.9,0.1l0.1-0.1c-1.9-0.1-2.5,0.2-3.2,0.5
		c-0.4-0.1-0.1-0.2-0.1-0.2c-2.7-0.2-3-0.2-5.3,0.4l-0.2-0.4c-0.6,0.2-3.9-0.6-6.6-0.1c0,0,0.1-0.1,0.3-0.2c-3,0.4-7.2-1-8.3,0.3
		l-2,0.3c2.6,0.1-0.4,0.6,0.7,0.8c-1,0.1-2.6-0.4-1.4-0.5l0.2,0.1c0.5-0.7-3.2-0.2-3.1-0.7c-5,0-9.9-0.3-14.6-0.4l0.5,0.5l-1.6,0
		c-0.4-0.1-0.6-0.4,0.6-0.4c-0.6-0.3-2,0.3-2,0.4c-2.3-0.2,0.9-0.6,0.2-0.6l-1,0l0.2,0.1c-0.8,0.2-0.8,0.4-2.3,0.4
		c-0.9-0.1-0.5-0.3-0.8-0.3c0,0-0.1-0.1-0.5,0l-2.1,0l0.8,0.4c-0.9,0.2-1.9,0-1,0.5c-1.4-0.7-7.7-0.3-8.6-0.5
		c-1.3,0.3-2.6,0.3-4.1,0.3c0.4,0.1,0.6,0.6-0.7,0.5c0.5-1-2.5-0.4-3.6-1.1c1,0.5-3.8,0.1-2.3,0.8c-1.1-0.1-0.1-0.4-0.9-0.6
		c-2.7,0.4-5.9-0.2-9.3-0.1c-0.1,0.1,0.5,0.3-0.2,0.5l-1.8-0.6c-0.7,0.1-0.6,0.7-1.8,0.3c0.2,0.1,0.4,0.3,0,0.3
		C21.1,1.1,14.3,2.3,7.7,1.1C8.6,1.4,8,1.4,7.3,1.4c0.4,0.1,0,0.3,0.1,0.5L4.6,1.4c-0.5,0.5-3,0-3.3,0.5l0.9-0.1
		C1,2.3,3.8,3,3.7,3.7c1.3-0.6,3.4,0.9,5.6,0c0.5,0.1-0.4,0.2-0.2,0.4c0.5-0.3,1.2-0.4,2.4-0.2L11.4,4c3.4-0.1,4.9,0.2,8.7,0.4
		L19.8,4c0.8,0,1,0.2,1.4,0.2c0.9-0.5-2.3,0-1.5-0.6c1.1,0.7,5.8,0,6.6,0.8c1.3,0-0.4-0.4,0.9-0.4l0.3,0.2L27.8,4
		c0.8,0,1.3,0.3,1.3,0.5c-0.2,0-0.6,0.1-0.8,0.1c1.1,0.3,3-0.1,3.4,0l-1.2-0.1c3.5-0.2,7.7,0.1,11-0.4l-0.3-0.2c2.6-0.3,2,0.2,4.8,0
		L46,4c0.6-0.2,1.3-0.2,2.1-0.2c-0.7,0.2,1.3,0.4,0.4,0.6c2.8-0.3,1.4-0.3,3.2-0.9l0.4,0.3c0.6-0.2,0.7-0.4,2.1-0.4
		c-1.1,0.2,0.9,0.4-0.4,0.7c2.9,0.6,4.4-0.6,5.7,0.3c1.3-0.7-2.5-0.4-1.8-0.6c-0.6-0.2,1.1-0.6,2-0.5c0.9,0,1.6,0.9,4,0.9
		c-0.2,0-0.3,0.1-0.5,0C64.1,4.4,65,4,66.1,4.3c0.6-0.4,1.4,0,1.6-0.5l-2.2,0.1c1.2-0.1,2.4-0.8,4.4-0.5c-0.2,0.1-0.8,0.3-1.2,0.4
		c0.6,0.2,1.1-0.1,1.8,0.1c-0.2,0.6-2.6,0.1-3.9,0.6c0.6,0.2,2.5-0.4,1.8,0.2c0.9-0.8,2.3,0.1,3.9-0.5l-0.1,0.3
		c0.3-0.1,0.8-0.2,1.2-0.2l-0.8,0.4c1.3-0.4,2.5,0.3,3.7,0.1c-2.6,0-0.6-0.4-1.7-0.7c3.2-0.5,1.8,0.9,5.4,0.7
		c-0.5,0-1.8-0.2-1.1-0.4c0.7,0.1,1.6,0.2,2,0.4c2.4-0.1-0.4-0.4,0.6-0.6c0.8,0.4,1.2-0.2,2.2-0.3l0,0.3c2.7,0.2,0.7-0.7,3.2-0.5
		l-1,0.5l1.3-0.1L87,4.6c1.4-0.3,1.8-0.2,3.2-0.1c-0.3-0.2,0.2-0.6,1.4-0.6c0.8,0.2-0.5,0.3,1.2,0.3c-0.4,0.2-0.8,0.5-1.5,0.2
		c-0.1,0.1-0.4,0.2-0.5,0.3c0.9,0.2,2.2,0.1,2.8,0.1c-0.2,0-0.5,0-0.7-0.1l2.5-0.5c0.4,0.1,0.1,0.2-0.2,0.3c0.5,0,0.8-0.2,1.6-0.2
		c-0.2,0.3-0.1,0.6-1.2,0.7l2.3-0.3c0.2,0.1,1.2,0.3,0.9,0.4c1.3,0.2,3.2-0.5,4.9-0.3c0.1-0.1,0.3-0.1,0.6-0.1c1.6,0.1,3.1,0.4,5,0
		l1.1,0.5c1.5-0.1-1.5-0.6,1-0.8c1.8-0.2,0.7,0.4,1.3,0.6c0.9-0.3,2.4-0.8,4.1-0.4C116.3,4.6,115.9,4.6,115.4,4.6z M133.9,4.4
		c-0.4,0.1-1.1,0.3-1.3,0.1C133,4.1,133.3,4.2,133.9,4.4z M162.2,3.5c-0.3,0.1-0.7,0.1-1.1-0.1C161.4,3.4,161.8,3.4,162.2,3.5z
		 M240.9,1.1C240.9,1.1,240.8,1.1,240.9,1.1C240,1,240.3,1,240.9,1.1z M242.5,1.3c0.2,0,0.2-0.1,0.1-0.1c-0.1,0.1-0.5,0.1-0.9,0.1
		C241.8,1.3,242,1.3,242.5,1.3z M63.4,1.4l0.3,0.1C63,1.6,63.2,1.5,63.4,1.4z"/>
	<path style="fill:#AD9689;" d="M159,4c-0.1-0.1-0.1-0.1-0.2-0.2C158.7,3.9,158.7,3.9,159,4z"/>
	<path style="fill:#AD9689;" d="M103.8,4.8C103.8,4.8,103.8,4.8,103.8,4.8c-0.1,0-0.1,0-0.1,0.1L103.8,4.8z"/>
	<path style="fill:#AD9689;" d="M216.7,4.2c-0.3-0.1-0.5-0.1-0.7-0.2C216,4.1,216.2,4.2,216.7,4.2z"/>
	<path style="fill:#AD9689;" d="M251.4,0.7l-1.1,0.1c0.5,0,0.7,0.1,1,0.1C251.2,0.8,251,0.7,251.4,0.7z"/>
	<path style="fill:#AD9689;" d="M260.6,2.8c0.2,0,0.3,0,0.5,0l0-0.2C260.4,2.6,260,2.7,260.6,2.8z"/>
	<path style="fill:#AD9689;" d="M252.4,1.8c0.1,0.3,0.8,0.2,1.5,0.1c0,0-0.1,0-0.1,0C254,1.5,253.2,1.7,252.4,1.8z"/>
	<path style="fill:#AD9689;" d="M254,1.9c0.2,0,0.5,0,0.7,0C254.8,1.8,254.5,1.9,254,1.9z"/>
	<path style="fill:#AD9689;" d="M244.7,1.1c0.4,0.1,0.2-0.4,0.4-0.3C245.5,0.4,242.7,1.3,244.7,1.1z"/>
	<polygon style="fill:#AD9689;" points="253,2.8 252.7,2.4 252.3,2.7 	"/>
	<path style="fill:#AD9689;" d="M247.1,2.5l1.2,0.1c0-0.1,0.1-0.1,0.3-0.1C247.8,2.5,247,2.4,247.1,2.5z"/>
	<path style="fill:#AD9689;" d="M248.6,2.5c0.4,0,0.7,0,1-0.1C249.3,2.4,248.9,2.5,248.6,2.5z"/>
	<polygon style="fill:#AD9689;" points="251.3,2.9 251,2.8 250.1,2.8 	"/>
	<path style="fill:#AD9689;" d="M234.2,2.4l-1.3,0.1c-0.1,0.1,0.2,0.2,0.7,0.2C233.9,2.6,234.4,2.6,234.2,2.4z"/>
	<path style="fill:#AD9689;" d="M238.2,3.4c-0.4-0.1-0.4-0.2-0.6-0.3l0,0.4L238.2,3.4z"/>
	<path style="fill:#AD9689;" d="M234.4,3.5c-0.1,0.1-1.9,0.4-0.2,0.3C234.2,3.7,235.5,3.6,234.4,3.5z"/>
	<polygon style="fill:#AD9689;" points="214.7,3 215,3 215,2.2 	"/>
	<path style="fill:#AD9689;" d="M197.4,4.7c1.5,0.2,0.4-0.5,1.8-0.2c0.4-0.2-1.1-0.2-0.8-0.3C197.4,4.4,196.9,4.3,197.4,4.7z"/>
	<path style="fill:#AD9689;" d="M198.4,4.2c0.1,0,0.3-0.1,0.5-0.1C198.6,4.1,198.4,4.1,198.4,4.2z"/>
	<polygon style="fill:#AD9689;" points="2.7,1 1.7,0.9 2.4,1.1 	"/>
	<path style="fill:#AD9689;" d="M0.8,1.6L0.6,1.1L0,1.5C0.2,1.5,0.7,1.5,0.8,1.6z"/>
	<path style="fill:#AD9689;" d="M136.7,5.3l0.1-0.1c-0.2-0.1-0.4-0.1-0.9-0.2L136.7,5.3z"/>
	<polygon style="fill:#AD9689;" points="123.2,5 123.5,5 123,4.5 	"/>
	<path style="fill:#AD9689;" d="M111.9,5.5c0.5,0,1-0.1,1.5-0.1C112.4,5.5,111.8,5,111.9,5.5z"/>
</g>
</svg>
