
<svg width="7px" height="143px" viewBox="0 0 7 143" version="1.1" xmlns="http://www.w3.org/2000/svg" xmlns:xlink="http://www.w3.org/1999/xlink">
    <!-- Generator: Sketch 50.2 (55047) - http://www.bohemiancoding.com/sketch -->
    <desc>Created with Sketch.</desc>
    <defs>
        <polygon id="path-1" points="-58 59 64 59 64 64 -58 64"></polygon>
        <polygon id="path-3" points="0 65 0.272678599 65 0.272678599 65.5682522 0 65.5682522"></polygon>
        <polygon id="path-5" points="-1 56 -0.430257174 56 -0.430257174 56.3306039 -1 56.3306039"></polygon>
    </defs>
    <g id="Symbols" stroke="none" stroke-width="1" fill="none" fill-rule="evenodd">
        <g id="Group" transform="translate(1.000000, 0.000000)">
            <path d="M4.05441025,142.358435 C4.30547908,142.386609 4.21536222,142.058696 4.25311388,142 C3.83317741,142.072783 4.06496448,142.442957 4.05441025,142.358435" id="Fill-1" fill="#870000" transform="translate(4.500000, 142.500000) rotate(90.000000) translate(-4.500000, -142.500000) "></path>
            <polygon id="Fill-3" fill="#870000" transform="translate(2.500000, 138.500000) rotate(90.000000) translate(-2.500000, -138.500000) " points="2.40296292 138.133826 2.45789857 138 2 138.327913"></polygon>
            <path d="M2,136.213652 C2.29082414,136.772435 3.11447676,136.123652 3.66245066,136.322435 L3.75283976,136.449217 L4,136 C3.33392411,136.070435 2.46902441,136.369391 2,136.213652" id="Fill-5" fill="#870000" transform="translate(3.000000, 136.500000) rotate(90.000000) translate(-3.000000, -136.500000) "></path>
            <path d="M4.05103896,134 C4.15866653,134.216783 3.67382835,134.187043 4.45789857,134.068087 C4.41848083,134.044609 4.40716966,134.030522 4.38420454,134.013304 C4.31359537,134.016435 4.21642208,134.015652 4.05103896,134" id="Fill-7" fill="#870000" transform="translate(4.500000, 134.500000) rotate(90.000000) translate(-4.500000, -134.500000) "></path>
            <path d="M4.0803542,134.084821 C4.58936621,134.068386 3.74750945,133.902473 4.0803542,134.084821" id="Fill-9" fill="#870000" transform="translate(4.500000, 134.500000) rotate(90.000000) translate(-4.500000, -134.500000) "></path>
            <path d="M5.3277382,133.444522 L6,133.250435 C5.85960696,133.122087 5.26122287,133.09313 5.48361763,133 C4.79383844,133.105652 4.93575473,133.233217 5.3277382,133.444522" id="Fill-11" fill="#870000" transform="translate(5.500000, 133.500000) rotate(90.000000) translate(-5.500000, -133.500000) "></path>
            <path d="M4,132.120921 L4.25311388,132.03953 C4.2086853,131.984747 4.14176589,131.966747 4,132.120921" id="Fill-13" fill="#870000" transform="translate(4.500000, 132.500000) rotate(90.000000) translate(-4.500000, -132.500000) "></path>
            <path d="M4.45789857,133 L4,133.173739 C4.06026638,133.263739 4.06671787,133.444522 4.21022422,133.11113 C4.1727741,133.276261 4.26325234,133.116609 4.45789857,133" id="Fill-15" fill="#870000" transform="translate(4.500000, 133.500000) rotate(90.000000) translate(-4.500000, -133.500000) "></path>
            <path d="M4,133.010256 C4.35438513,133.13156 4.81179475,133.208256 4.1781465,133.40156 C5.38606083,133.324865 5.20815282,132.931995 4,133.010256" id="Fill-17" fill="#870000" transform="translate(4.500000, 133.500000) rotate(90.000000) translate(-4.500000, -133.500000) "></path>
            <path d="M2.00101717,135.06519 L2.53664889,135.228756 L3,135.041712 C2.76832445,135.13406 1.9675739,134.889886 2.00101717,135.06519" id="Fill-19" fill="#870000" transform="translate(2.500000, 135.500000) rotate(90.000000) translate(-2.500000, -135.500000) "></path>
            <path d="M4.00263433,130 C3.97780717,130.118957 4.13589334,130.316957 4.1653569,130.469565 L4.45789857,130.332609 C4.30758958,130.251217 4.02252596,130.17687 4.00263433,130" id="Fill-21" fill="#870000" transform="translate(4.500000, 130.500000) rotate(90.000000) translate(-4.500000, -130.500000) "></path>
            <path d="M4.45333527,129 L4,129.204261 C4.40499603,129.227739 4.47905422,129.130696 4.45333527,129" id="Fill-23" fill="#870000" transform="translate(4.500000, 129.500000) rotate(90.000000) translate(-4.500000, -129.500000) "></path>
            <polygon id="Fill-25" fill="#870000" transform="translate(2.500000, 132.500000) rotate(90.000000) translate(-2.500000, -132.500000) " points="2.16166725 132.42887 3 132 2 132.434348"></polygon>
            <polygon id="Fill-27" fill="#870000" transform="translate(5.500000, 128.500000) rotate(90.000000) translate(-5.500000, -128.500000) " points="5.20082455 128.275478 5.45789857 128 5 128.416348"></polygon>
            <path d="M5.94821146,126.525913 C6.15368237,126.298174 5.66660922,126.140087 5.88379264,126 C5.54680696,126.040696 5.25901382,126.236348 5,126.411652 C5.27524402,126.313826 5.56872609,126.339652 5.94821146,126.525913" id="Fill-29" fill="#870000" transform="translate(5.500000, 126.500000) rotate(90.000000) translate(-5.500000, -126.500000) "></path>
            <path d="M4,126.256696 C4.14476639,126.201913 4.29464012,126.104087 4.45789857,126 C4.30415032,126.052435 4.15269156,126.128348 4,126.256696" id="Fill-31" fill="#870000" transform="translate(4.500000, 126.500000) rotate(90.000000) translate(-4.500000, -126.500000) "></path>
            <path d="M4.45789857,128.339652 C4.41276484,128.267652 4.3262751,128.079826 4,128 L4.22884987,128.334174 C4.29863815,128.336522 4.37777129,128.338087 4.45789857,128.339652" id="Fill-33" fill="#870000" transform="translate(4.500000, 128.500000) rotate(90.000000) translate(-4.500000, -128.500000) "></path>
            <path d="M4.45789857,128.028957 L4.45046927,128.018 C4.22414742,128.011739 4.06722611,128.003913 4,128 C4.05780358,128.00313 4.19551743,128.011739 4.45789857,128.028957" id="Fill-35" fill="#870000" transform="translate(4.500000, 128.500000) rotate(90.000000) translate(-4.500000, -128.500000) "></path>
            <path d="M4.07340302,129.001565 C4.04657295,129.000783 4.02657696,129 4,129 C4.02809564,129.03287 4.04505427,129.043826 4.07340302,129.001565" id="Fill-37" fill="#870000" transform="translate(4.500000, 129.500000) rotate(90.000000) translate(-4.500000, -129.500000) "></path>
            <path d="M2.45789857,130 C2.21878852,130.186261 1.72054989,130.387391 2.20280151,130.672261 C2.37421005,130.442957 2.09812135,130.280957 2.45789857,130" id="Fill-39" fill="#870000" transform="translate(2.500000, 130.500000) rotate(90.000000) translate(-2.500000, -130.500000) "></path>
            <path d="M2,129.234 L2.42634774,129.310696 C2.41797991,129.221478 2.3411605,129.09313 2.45789857,129 L2,129.234 Z" id="Fill-41" fill="#870000" transform="translate(2.500000, 129.500000) rotate(90.000000) translate(-2.500000, -129.500000) "></path>
            <polygon id="Fill-43" fill="#870000" transform="translate(2.500000, 129.500000) rotate(90.000000) translate(-2.500000, -129.500000) " points="2 129.134609 2.25311388 129.028174 2.06153228 129"></polygon>
            <path d="M4.781054,126.000523 C4.54644082,126.146871 4.28981628,126.15861 4,126.181306 C4.31060479,126.247045 4.63186587,126.283045 4.93688047,126.282262 C4.97985504,126.177393 5.11384484,125.988784 4.781054,126.000523" id="Fill-45" fill="#870000" transform="translate(4.500000, 126.500000) rotate(90.000000) translate(-4.500000, -126.500000) "></path>
            <path d="M4.07568105,128 C4.05214146,128.007826 4.02202091,128.011739 4,128.018783 C4.04657295,128.047739 4.08378069,128.056348 4.07568105,128" id="Fill-47" fill="#870000" transform="translate(4.500000, 128.500000) rotate(90.000000) translate(-4.500000, -128.500000) "></path>
            <path d="M4,122 C4.02303336,122.018 4.04277625,122.041478 4.06631584,122.061043 C4.07163123,122.041478 4.07517482,122.022696 4.08175578,122.00313 L4,122 Z" id="Fill-49" fill="#870000" transform="translate(4.500000, 122.500000) rotate(90.000000) translate(-4.500000, -122.500000) "></path>
            <path d="M2.0513825,127.119739 C2.23905929,127.184696 2.35107581,127.103304 2.45789857,127 C2.31766737,127.033652 2.16901388,127.054783 2.00955177,127.057913 C1.99397053,127.10487 1.99102273,127.136174 2.0513825,127.119739" id="Fill-51" fill="#870000" transform="translate(2.500000, 127.500000) rotate(90.000000) translate(-2.500000, -127.500000) "></path>
            <path d="M4,126.024382 C4.13766627,126.094817 4.29372759,126.153513 4.45789857,126.208295 C4.32319925,126.102643 4.0488557,125.937513 4,126.024382" id="Fill-53" fill="#870000" transform="translate(4.500000, 126.500000) rotate(90.000000) translate(-4.500000, -126.500000) "></path>
            <path d="M4.03456017,127.055787 C4.0515188,127.050308 4.06670563,127.044048 4.08518294,127.040135 C3.97431907,126.968917 3.98798721,127.004135 4.03456017,127.055787" id="Fill-55" fill="#870000" transform="translate(4.500000, 127.500000) rotate(90.000000) translate(-4.500000, -127.500000) "></path>
            <path d="M4.36516484,127 C4.22338526,127.048522 4.11189871,127.130696 4,127.204261 C4.16774502,127.177652 4.32312554,127.141652 4.45789857,127.092348 C4.4238962,127.06887 4.38968776,127.03287 4.36516484,127" id="Fill-57" fill="#870000" transform="translate(4.500000, 127.500000) rotate(90.000000) translate(-4.500000, -127.500000) "></path>
            <path d="M1.58331065,123 C1.62365242,122.702814 2.22433439,122.428143 2.74279438,122.747092 C3.25322021,122.524203 2.91937505,121.546341 2.47407723,121 C2.45817984,121.129831 2.45817984,121.249156 1.9330532,121.424765 C2.11698428,121.586867 3.09817793,121.804503 2.65527327,122.073921 C1.95971979,122.227017 2.08536044,121.968105 1.74707085,121.811257 C2.03459136,122.181238 0.862116223,122.350094 1.01356876,122.894184 L1.62365242,122.702814 C1.63510537,122.787617 1.41390945,122.922702 1.58331065,123" id="Fill-59" fill="#870000" transform="translate(2.000000, 122.000000) rotate(90.000000) translate(-2.000000, -122.000000) "></path>
            <path d="M4.82086168,122.458609 L5,122.420261 C4.79577664,122.366261 4.64965986,122.242609 4.38038549,122 C4.08234127,122.151043 4.02054989,122.266087 4,122.369391 L4.88208617,122.412435 L4.82086168,122.458609 Z" id="Fill-61" fill="#870000" transform="translate(4.500000, 122.500000) rotate(90.000000) translate(-4.500000, -122.500000) "></path>
            <path d="M4.63379495,125.152206 C4.52356489,125.404134 4.18449855,125.51027 4.39211526,125.782609 C4.80645522,125.765114 4.68248827,125.572669 4.92997543,125.463617 C4.2614474,125.526016 5.12206835,125.323657 4.63893232,125.181365 C4.77038195,125.138793 4.88854143,125.125381 5,125.114884 C4.87971856,125.084559 4.76356935,125.04607 4.65434443,125 C4.66037525,125.005832 4.66461916,125.009914 4.66964485,125.015745 L4.67277195,125.015162 L4.67210185,125.018661 C4.70091579,125.050152 4.71040876,125.068814 4.67790931,125.050735 C4.67567568,125.054234 4.66752289,125.055401 4.66394907,125.055984 C4.65937011,125.091557 4.6470851,125.121299 4.63379495,125.15104 C4.44013849,125.099138 4.60330579,125.085725 4.66394907,125.055984 C4.66618271,125.043737 4.67143176,125.032074 4.67210185,125.018661 C4.67143176,125.017495 4.67053831,125.016912 4.66964485,125.015745 L4,125.153373 C4.14172437,125.188363 4.31918696,125.181365 4.63379495,125.152206" id="Fill-63" fill="#870000" transform="translate(4.500000, 125.500000) rotate(90.000000) translate(-4.500000, -125.500000) "></path>
            <path d="M2.13017544,130.079043 C2.08309625,130.049304 2.08512116,130.025043 2.08157757,130 C1.98336939,130.041478 1.94616165,130.069652 2.13017544,130.079043" id="Fill-65" fill="#870000" transform="translate(2.500000, 130.500000) rotate(90.000000) translate(-2.500000, -130.500000) "></path>
            <path d="M2.4329075,129.678608 C2.49658628,129.639607 2.5493362,129.527806 2.75581866,129.557056 C2.93505183,129.640257 2.75494435,129.690958 2.76441602,129.782609 C2.88885922,129.708508 3.20011294,129.582406 2.80973433,129.445905 L2.74794988,129.483605 C2.39618655,129.388054 1.94416922,129.03835 2.00566223,129 C2.10824772,129.252203 2.19888434,129.431605 2.4329075,129.678608" id="Fill-67" fill="#870000" transform="translate(2.500000, 129.500000) rotate(90.000000) translate(-2.500000, -129.500000) "></path>
            <path d="M3,127 L2,127.165913 L2.50931304,127.457826 L2.48347687,127.281739 C3.05227318,127.350609 2.92930102,127.135391 3,127" id="Fill-69" fill="#870000" transform="translate(2.500000, 127.500000) rotate(90.000000) translate(-2.500000, -127.500000) "></path>
            <polygon id="Fill-71" fill="#870000" transform="translate(4.500000, 122.500000) rotate(90.000000) translate(-4.500000, -122.500000) " points="4.35279148 122.356087 4.45789857 122 4 122.502435"></polygon>
            <polygon id="Fill-73" fill="#870000" transform="translate(4.500000, 121.500000) rotate(90.000000) translate(-4.500000, -121.500000) " points="4.21765134 121.309913 4.25311388 121 4 121.187043"></polygon>
            <path d="M0.253113879,62 L0,62.0876522 C0.119741671,62.0602609 0.19686635,62.0313043 0.253113879,62" id="Fill-75" fill="#870000" transform="translate(0.500000, 62.500000) rotate(90.000000) translate(-0.500000, -62.500000) "></path>
            <path d="M0.0601066771,64.1518261 L0.1261694,64 C0.00163737109,64.0837391 -0.0494916325,64.1455652 0.0601066771,64.1518261" id="Fill-77" fill="#870000" transform="translate(0.500000, 64.500000) rotate(90.000000) translate(-0.500000, -64.500000) "></path>
            <path d="M5,94.5158415 C4.50142518,94.2270589 3.94429056,93.7786241 4.0044835,94.1268849 L4.15776551,94.4665371 C4.5060913,94.404711 4.77322661,94.4430589 5,94.5158415" id="Fill-79" fill="#870000" transform="translate(4.500000, 94.500000) rotate(90.000000) translate(-4.500000, -94.500000) "></path>
            <path d="M2,76.2214783 C2.04494846,76.2543478 2.0918897,76.2895652 2.13838811,76.3247826 C2.25330559,76.2081739 2.36158045,76.1009565 2.45789857,76 C2.32039615,76.0696522 2.16407294,76.1432174 2,76.2214783" id="Fill-81" fill="#870000" transform="translate(2.500000, 76.500000) rotate(90.000000) translate(-2.500000, -76.500000) "></path>
            <path d="M1.45789857,76.2183478 L1,76 C1.10285656,76.075913 1.25023556,76.1486957 1.45789857,76.2183478" id="Fill-83" fill="#870000" transform="translate(1.500000, 76.500000) rotate(90.000000) translate(-1.500000, -76.500000) "></path>
            <path d="M0.241731488,50 L0,50.3451304 C0.378129044,50.3435652 0.211797448,50.1698261 0.241731488,50" id="Fill-85" fill="#870000" transform="translate(0.500000, 50.500000) rotate(90.000000) translate(-0.500000, -50.500000) "></path>
            <path d="M5,110.205043 C4.59930465,110.072783 4.28031291,110.017217 4,110 C4.48305085,110.19487 4.87244676,110.487565 5,110.205043" id="Fill-87" fill="#870000" transform="translate(4.500000, 110.500000) rotate(90.000000) translate(-4.500000, -110.500000) "></path>
            <path d="M2.2454051,62 C2.06999389,62.0618261 1.99498509,62.1306957 2.00025914,62.2066087 C2.18074908,62.147913 2.28290951,62.0829565 2.2454051,62" id="Fill-89" fill="#870000" transform="translate(2.500000, 62.500000) rotate(90.000000) translate(-2.500000, -62.500000) "></path>
            <path d="M4,109.14558 C4.0610214,109.179232 4.12091626,109.19645 4.18306421,109.225406 C4.43616222,109.168276 4.69095006,109.122885 5,109.144015 C4.69207661,108.999232 4.33909125,108.909232 4,109.14558" id="Fill-91" fill="#870000" transform="translate(4.500000, 109.500000) rotate(90.000000) translate(-4.500000, -109.500000) "></path>
            <path d="M0.122074929,16.0406957 C0.0833485058,16.0250435 0.0367755521,16.018 0.00159272292,16 C-0.0100505155,16.0461739 0.043356513,16.0485217 0.122074929,16.0406957" id="Fill-93" fill="#870000" transform="translate(0.500000, 16.500000) rotate(90.000000) translate(-0.500000, -16.500000) "></path>
            <path d="M2,5.04062687 C2.1098811,5.01949644 2.2888927,5.01949644 2.45789857,5.01480078 C2.37548774,4.99132252 2.23740867,4.99288774 2,5.04062687" id="Fill-95" fill="#870000" transform="translate(2.500000, 5.500000) rotate(90.000000) translate(-2.500000, -5.500000) "></path>
            <path d="M4,118.022678 C4.3482847,118.000765 4.05517883,117.985113 4,118.022678" id="Fill-97" fill="#870000" transform="translate(4.500000, 118.500000) rotate(90.000000) translate(-4.500000, -118.500000) "></path>
            <path d="M2.13921263,118 C2.06505027,118.038348 2.00885899,118.086087 2,118.16513 C2.02860187,118.082957 2.07719973,118.031304 2.13921263,118" id="Fill-99" fill="#870000" transform="translate(2.500000, 118.500000) rotate(90.000000) translate(-2.500000, -118.500000) "></path>
            <path d="M2.03012055,107.001565 C2.01974288,107.001565 2.01164324,107 2,107 C2.10352358,107.066522 2.0858056,107.054 2.03012055,107.001565" id="Fill-101" fill="#870000" transform="translate(2.500000, 107.500000) rotate(90.000000) translate(-2.500000, -107.500000) "></path>
            <path d="M4.25311388,118.100957 C4.17876168,118.058696 4.09319193,118.024261 4,118 C4.04084338,118.025826 4.11792806,118.058696 4.25311388,118.100957" id="Fill-103" fill="#870000" transform="translate(4.500000, 118.500000) rotate(90.000000) translate(-4.500000, -118.500000) "></path>
            <path d="M4,118.030622 C4.09526971,118.046274 4.16988093,118.054101 4.24128306,118.063492 C4.27598129,118.007144 4.24529442,117.971144 4,118.030622" id="Fill-105" fill="#870000" transform="translate(4.500000, 118.500000) rotate(90.000000) translate(-4.500000, -118.500000) "></path>
            <path d="M4,117.018 C4.16174424,117.012522 4.31259593,117.028957 4.45789857,117.053217 C4.40240817,117.030522 4.37897889,117.010957 4.39398185,117 C4.31115729,117.004696 4.19401088,117.011739 4,117.018" id="Fill-107" fill="#870000" transform="translate(4.500000, 117.500000) rotate(90.000000) translate(-4.500000, -117.500000) "></path>
            <path d="M1.25311388,34.032087 C1.2321892,34.0211304 1.20804534,34.0148696 1.18528112,34 C0.866122255,34.1408696 1.00615666,34.1181739 1.25311388,34.032087" id="Fill-109" fill="#870000" transform="translate(1.500000, 34.500000) rotate(90.000000) translate(-1.500000, -34.500000) "></path>
            <path d="M0.0116432384,90.0281739 C0.0278425267,90.0242609 0.0364483986,90.0156522 0.0513821174,90.0117391 C0.0349297153,90.0086087 0.0144274911,90.003913 0,90 L0.0116432384,90.0281739 Z" id="Fill-111" fill="#870000" transform="translate(0.500000, 90.500000) rotate(90.000000) translate(-0.500000, -90.500000) "></path>
            <path d="M1,89 C1.42985501,88.3291925 1.67429038,88.4111801 2,88.5540373 L1.66612212,87 L1,89 Z" id="Fill-113" fill="#870000" transform="translate(1.500000, 88.000000) rotate(90.000000) translate(-1.500000, -88.000000) "></path>
            <mask id="mask-2" fill="white">
                <use xlink:href="#path-1"></use>
            </mask>
            <g id="Clip-116" transform="translate(3.000000, 61.500000) rotate(90.000000) translate(-3.000000, -61.500000) "></g>
            <path d="M-28.0708023,59.9697603 L-27.9144465,60.0574498 C-28.2675414,60.1541867 -28.1686541,60.0671931 -28.0708023,59.9697603 M58.2224278,59.83753 C58.3031944,59.7902055 58.2974993,59.7442729 58.2635014,59.6969483 C58.2074135,59.7818541 58.0268967,59.7874217 57.8215287,59.7637594 C57.8784795,59.8521449 57.9823716,59.9126925 58.2224278,59.83753 M57.4189038,59.6920767 C57.411483,59.6969483 57.4063056,59.701124 57.4002654,59.7080835 C57.0133451,59.5772451 57.1505448,59.6287454 57.4189038,59.6920767 M19.5065848,62.0290729 C19.3774964,62.1404247 19.177996,62.0854447 18.9529541,61.9580861 C19.116213,61.9302482 19.3013894,61.9434712 19.5065848,62.0290729 M5.89672469,62.8377654 C5.72328363,62.9080563 5.37743696,63.1251923 5.250592,62.9275428 C5.44819401,62.5426831 5.60109828,62.7271096 5.89672469,62.8377654 M-3.05611337,63.0549015 L-2.45692194,63.3256256 C-3.1800245,63.7724247 -3.70328153,63.6179241 -3.14067668,64 C-3.05611337,63.0549015 -0.812251919,63.9025672 -0.72889666,62.9588605 L-0.334037792,63.157206 C-0.447249076,63.1481586 -0.465369784,63.2038345 -0.577027864,63.1947872 C0.190945021,63.6471539 -0.0064844128,62.5106695 0.983078851,62.6456836 C1.32789005,62.7180622 1.5686366,62.8551642 1.33341255,62.9679079 L2.10190317,62.7340691 C2.32539191,62.7521637 2.27068463,62.9157117 2.04823136,62.898313 L3.22020975,62.8231505 L3.21158084,62.8509885 C3.3788091,62.7020554 3.75779077,62.4730883 3.94279458,62.3756554 C4.24049193,62.5106695 3.79334188,62.475872 3.86962143,62.5941833 L4.51851538,62.3645202 C4.78290514,62.6094942 4.24497897,62.8475087 3.79679344,62.8120153 C4.402888,63.755722 4.33523735,62.5740008 5.64320735,63.1251923 L5.03055482,63.2455915 C5.42558627,63.782168 5.9038004,63.5873023 6.5965292,63.9220537 C6.43223477,63.7473706 5.20951839,63.0792597 5.91398251,62.844029 C6.11244741,62.9150158 6.37407593,62.9491173 6.75409307,62.7591232 C6.75754464,63.0945706 7.12841514,63.0124486 7.59265043,62.993658 L7.56106863,63.4383693 C8.06292596,63.3103147 8.02323298,63.0834354 8.31868682,62.8830021 C8.87818527,62.9268469 8.99398523,63.2713416 9.12583495,63.5622482 C10.0216883,63.633235 8.50714219,63.0089689 9.56746251,62.925455 C10.3124825,63.0952665 10.8357395,62.9136239 11.7269332,62.6477714 C12.2484645,62.8001842 11.635812,62.9191915 11.8228867,63.047246 L12.2850511,62.6916162 C12.3982623,62.7006635 12.3616758,62.8092315 12.3432099,62.8642115 C12.7327188,62.7271096 12.3753094,62.4201961 12.9876168,62.299101 C13.1527741,61.8084571 14.2446762,63.0152324 15.0026396,62.4584733 C15.1893692,62.585136 14.9123812,62.7312853 14.9695046,62.9038806 C16.0092881,62.5378115 15.8608709,62.6380281 16.7146151,62.1466882 L17.4420321,62.4389868 C16.9075575,62.1042354 17.5904494,61.7089364 18.1884327,61.3839283 C17.9989419,61.2224682 17.836891,61.0811906 17.7281667,61.0136835 L18.6826966,60.7749731 C18.7979789,60.8480477 18.7018528,61.0004605 18.545497,61.1869748 C18.610559,61.1500895 18.6723419,61.1139002 18.7203187,61.0804946 C19.0616783,61.2447386 18.8847857,61.5015437 18.6402424,61.7506934 C18.5239247,61.6630038 18.4084699,61.5690507 18.2962941,61.4757936 C18.0607249,61.7465177 17.8399974,62.0450797 17.8891822,62.3060605 C17.9511377,62.2545603 18.0705618,62.2107155 18.2020664,62.1863573 C18.140456,62.259432 18.1011082,62.3248511 18.1295836,62.3693919 C18.1620283,62.4167164 18.2616059,62.3178917 18.4176166,62.204452 L18.6345473,62.7006635 L18.6871837,62.50371 L19.9359594,62.8141032 C20.8293966,62.3144119 21.6065161,61.5794899 23.0244184,61.374185 C22.6727041,61.7381663 22.9488292,61.9685253 22.929673,62.3993177 C22.5427527,61.9434712 21.831558,62.5941833 21.0965476,62.5009262 C21.4800163,62.5489467 21.3957981,62.7542516 21.2981189,62.8259343 L22.6088501,62.4111488 C22.5793393,62.7639949 22.8872187,62.6756094 23.2296138,62.8210627 C22.9709192,62.1244179 24.2065789,62.3568648 24.740018,62.1432085 C24.7731531,62.3770473 24.6452726,62.6164537 23.9944803,62.5600819 C24.7124055,63.0848273 24.922088,61.7409501 25.6268973,62.1870533 C25.4679528,62.1926209 25.382354,62.1571275 25.3195356,62.2754388 C25.6905786,62.068046 26.5978221,62.23229 26.3845155,62.436203 L26.2259161,62.4410746 C27.280714,62.5238925 29.4367331,62.4466422 29.5941244,61.8543897 C29.6046517,61.9302482 29.4558893,62.5677373 29.3920354,62.6874405 L31.274173,60.6956349 C31.1083253,61.2036776 31.7447937,62.4153245 30.8699949,62.7020554 C31.1210961,62.7744341 31.4319094,62.8586439 31.9613793,62.6797851 C31.7900091,62.6074064 31.5342483,61.9448631 31.7684369,61.8982345 C32.4109454,62.4640409 32.2145515,62.2009723 33.0066853,62.6832648 C32.749889,62.5740008 33.0353333,61.7771394 33.4410646,61.8028895 C33.3777284,61.9218968 33.4748899,62.5900077 33.3264726,62.6728256 L34.3365727,61.8898831 C34.084436,62.0311607 34.2920475,62.5531224 34.5179524,62.7744341 C34.4131974,62.6213254 35.3913705,62.789049 35.6605925,62.7111028 L35.232426,62.5301561 C36.3728226,62.6484674 36.3588438,61.429165 37.4904389,61.470226 C37.3534118,61.6323821 37.1520131,62.4654328 37.7275613,62.5642575 C37.9910882,62.1626951 38.8950527,60.6357833 39.8961787,60.327478 L40.0880856,60.5564452 L40.8562311,60.2954643 C40.3780169,60.898156 39.0358765,62.1675667 38.3029369,62.6609944 C38.7295502,62.8426371 38.4216707,62.9317185 39.0609003,62.9108401 C39.2866325,63.1251923 38.712465,63.2365441 38.5243547,63.2490712 L40.0124964,63.387565 C39.9463989,62.9191915 41.1504769,62.9184955 41.0936986,62.5287642 L39.477504,63.0138405 C39.4119243,62.5468588 40.4120148,61.6859701 41.4662949,61.7680921 C41.7344814,61.9546064 41.2657591,62.6011428 41.2876765,62.7570354 C41.424531,62.5955752 42.2884573,62.449426 42.3852737,62.5642575 L41.9381237,62.8141032 C42.5248895,62.9901782 42.8959325,62.1933168 43.6012595,62.640116 C43.8445948,62.6700418 44.3281588,63.2428077 44.3702679,62.96582 C43.9733381,62.4320273 43.8956779,60.7805407 44.1604128,60.3796741 C44.2456664,60.4158635 45.4386994,60.8898046 45.7165502,61.1535693 C46.1174494,61.5725305 45.1147701,62.1515599 45.4559572,62.5106695 C45.4707989,62.3833109 45.6920441,62.2253305 45.784546,62.1745262 C46.0401343,62.2837902 45.678583,62.5705211 46.2342848,62.5127573 C46.3269593,62.0388162 47.3641541,62.5531224 46.4969488,62.1118908 C47.0402249,61.9761808 47.0743953,62.2093236 47.7125894,62.1884452 C47.5094649,61.8822277 48.285549,61.1452179 48.8300331,61.0102038 C48.7979336,61.1306029 48.9201189,61.2878874 48.9793133,61.3595701 C50.0933054,61.4027189 50.6912888,61.6177671 51.7300368,61.6219428 C51.8258177,61.7367744 52.3269847,61.8752682 52.1135055,62.0798772 C52.2629582,61.9956673 52.4001579,61.8355991 52.7206355,61.823768 C53.3407089,62.2336819 52.0063345,61.8877953 52.4790261,62.3805271 C52.5194094,62.1042354 53.3075739,61.999843 53.7638706,61.8279437 C53.623392,61.402023 52.7095905,61.7465177 52.2526035,61.918417 C52.25036,61.3310362 53.0459454,60.7158174 54.1316347,60.4443974 C54.9945256,60.2989441 54.5057842,60.8243855 54.6555821,60.7401756 C56.2764363,60.8431761 56.03638,59.715043 57.3821447,60.1381799 C57.9162741,60.5126004 57.4063056,60.8828452 57.5246942,61.1528733 C56.8217833,61.2941509 56.4455629,60.9148588 55.9690746,60.9301697 L56.5556678,61.1076366 C56.332179,61.2315155 55.862939,61.3261646 55.6071781,61.2175965 C56.0546733,61.5537398 58.3453035,61.2823198 59.5958049,61.592713 C59.8180856,61.4667462 60.2015543,61.3372997 60.0200021,61.1869748 L59.6244529,61.239171 C59.2608307,60.9378251 60.3689552,60.8222976 59.8683059,60.68102 C60.3989838,60.4687556 60.9938607,60.1353961 61.7411242,60.3059036 L61.8816029,60.7332162 C61.8655531,60.6079454 61.3930341,60.4784989 61.183179,60.6086413 C61.49451,60.4193432 62.3287529,61.1862788 62.66994,60.6274319 L62.1463378,60.3323496 C62.6792592,60.1173014 63.3379901,59.6649347 64,59.7992528 C63.6986785,59.3775078 63.8474409,59.8472733 63.3768202,59.3538456 C63.784795,59.9676724 61.6829654,59.3280955 62.3382447,59.97324 C61.855371,59.4011701 61.5026212,59.7303539 60.8713302,59.2424937 C60.8908316,59.3830754 61.0949916,59.5118259 60.5391172,59.4422311 C60.5139208,59.483292 60.4547265,59.5354882 60.4171045,59.56611 C60.4001918,59.5626302 60.3941516,59.5598464 60.3794824,59.5556707 C60.3907,59.5612383 60.3989838,59.5675019 60.4102014,59.5723735 C60.386213,59.593252 60.3839695,59.5981236 60.4217641,59.578637 C60.5541315,59.6391846 60.6613026,59.7136511 60.7049649,59.7922933 C60.4290124,60.1152136 59.5448944,60.1047744 59.2461616,60.272498 C58.9161921,60.2056869 59.3840515,60.1110379 59.2038799,59.9607129 L58.7574202,60.2112545 C58.7132401,59.8980776 57.8810682,59.6920767 58.6580151,59.5083462 L57.9587284,59.4944272 C57.5469568,59.3190481 56.9805552,59.2494532 56.631257,59.3809876 C56.3014601,59.3134805 55.7980496,59.7268741 56.0853922,59.4825961 L54.9886579,59.6760699 L54.9784758,59.5981236 C53.8962381,59.5584545 52.7506641,60.1152136 51.5132786,59.5507991 C51.1489661,59.6301372 50.7724005,59.7261782 50.163027,59.6377927 L50.0441206,59.3677645 C49.5764337,59.4624136 48.6393342,59.0970404 48.4382807,59.3782038 C47.9336621,58.6509372 46.1680148,59.2202234 45.3453346,59.0907769 L45.3142705,59.443623 C44.7478689,59.4241364 44.204938,59.5236571 43.5020271,59.6656306 L43.5453442,59.9781117 C42.9390771,60.2342208 41.9871359,59.755408 41.0284641,59.7874217 C41.0936986,59.6684144 41.3368613,59.6997321 41.5089217,59.7721108 C40.3636929,59.0671146 39.0924821,60.2843292 38.0539066,59.7714149 C37.7950394,59.8848545 37.6076195,59.8458814 37.4262398,59.7672392 C37.4502282,59.7665432 37.4718004,59.7609756 37.4904389,59.7512323 C37.4638618,59.7477526 37.424514,59.7470567 37.3839582,59.7477526 C37.2697114,59.6941645 37.1520131,59.6315291 37.0244778,59.5807249 C37.1330295,59.6572793 37.2365764,59.7199146 37.3270074,59.7484486 C37.127507,59.7547121 36.8246323,59.7936852 36.5277978,59.8716315 L36.4014706,59.5368801 C36.3773096,59.5410558 36.3579809,59.5403598 36.3329571,59.5466234 C36.0416451,59.4227445 36.0987685,59.7046038 36.2540888,59.9565373 C36.1046361,60.0122132 35.9677816,60.0783283 35.8616461,60.1590584 C35.6250414,59.6183061 35.0829733,60.341397 34.7600796,59.7644554 C34.560234,60.0456187 33.2683138,59.9760238 33.1102322,60.5675803 C33.1000501,60.491026 33.0125529,60.4541407 33.1728781,60.449269 C32.8420457,60.381762 32.5113859,60.314255 32.2145515,60.4812827 L32.0742454,60.055362 L31.3518331,60.6281279 C30.9129668,60.368539 30.7310694,60.2175181 31.1668293,59.8897262 C30.1146202,60.3935931 30.3130851,60.0797202 29.4182673,60.5794115 L29.4619295,60.3038157 C29.1419696,60.314255 28.6306205,60.6831078 28.4376781,60.4555326 C27.7223415,59.932179 24.8974093,60.3838498 23.0606598,59.8973816 C23.4170337,60.708162 22.2069156,59.5334004 22.1342602,60.1618422 C22.0272617,59.9704562 21.7713283,59.8618882 22.0686805,59.6948605 C21.1314084,59.8834626 20.6604425,59.3907308 20.0132744,59.9210439 C19.9059307,59.728266 20.2138102,59.6391846 20.1183745,59.5257449 C20.0431304,59.5675019 19.8206771,59.6927726 19.7229979,59.578637 C19.6275621,59.4638055 19.8603701,59.4171769 20.0086148,59.333663 C19.051151,59.3656767 18.9543347,59.9565373 18.8847857,60.5119044 C18.3994958,60.2488358 18.1573687,60.286417 17.8068624,60.6503982 C17.6380809,60.4687556 17.3562608,60.2787616 17.9511377,60.2140383 C17.6165087,60.1868963 15.9066041,59.9474899 15.8724336,60.3922012 C15.7676787,60.2794575 15.4045742,60.3594916 15.3163867,60.4109918 C14.5654991,60.3845458 14.4994016,60.3441808 13.7618025,60.3866336 L13.9663076,60.4590123 C13.6751683,60.9955889 13.35331,60.5787155 12.7587781,60.6434388 L12.7758634,60.5884588 C11.4124958,60.2008153 12.1871992,60.7735812 10.8422975,60.3323496 L10.9154706,60.6657091 C10.7900063,61.3832324 9.72381833,60.2425722 8.94324724,60.5167761 L9.2250674,60.707466 C8.79879931,60.953136 8.0334151,59.7310498 7.60524864,59.6412724 C7.51205642,59.578637 7.7526304,59.5410558 7.88292693,59.4944272 C6.76203167,59.0712903 7.73778868,59.932179 6.90251031,60.0337876 C6.74839799,59.7978609 7.10097521,59.4338797 6.53871551,59.3900349 C6.25879371,59.1993449 4.9081969,60.1562746 4.14125948,59.7032119 C4.31021352,59.8855505 4.47813208,60.0671931 4.09017634,60.2035991 C3.49547194,60.2683223 2.48261063,59.5166976 1.94554734,60.0894635 C1.8699581,60.0400511 1.84131012,59.9920306 1.83820372,59.946794 C1.3836328,60.0950311 0.360934525,60.1924639 0.087225537,60.503553 C-0.332829745,59.3496699 -2.7387421,61.0637919 -2.72855999,60.000382 L-4.12678838,60.0574498 L-4.0902018,59.9488818 C-4.98398418,59.878591 -5.29997482,60.1333083 -5.6140671,60.3887215 C-5.82081576,60.3163428 -5.66998243,60.2168221 -5.65289719,60.1611462 C-6.95879625,59.946794 -7.08857504,59.9920306 -8.18341099,60.5216477 L-8.29731259,60.177153 C-8.59397448,60.3775863 -10.1853178,59.6364008 -11.4660205,60.0386592 C-11.4534223,59.9989901 -11.4270178,59.932179 -11.3251967,59.8834626 C-12.7662245,60.2885048 -14.7750344,58.926533 -15.3031237,60.1834166 L-16.2540294,60.4924179 C-15.0237196,60.5905466 -16.4371349,61.0373458 -15.9311356,61.2461304 C-16.4148723,61.319901 -17.1819823,60.8675343 -16.5872779,60.802811 L-16.4942582,60.8654464 C-16.2759468,60.2112545 -18.0231283,60.6336955 -17.9899933,60.1875923 C-20.41092,60.2196059 -22.7704088,59.8577125 -25.038086,59.8298746 L-24.7768027,60.3386132 L-25.5677284,60.3093833 C-25.77534,60.1903761 -25.8464422,59.9113006 -25.2821116,59.932179 C-25.578946,59.6433603 -26.2285303,60.1736733 -26.2445801,60.2843292 C-27.3494255,60.0783283 -25.812962,59.6913807 -26.1519056,59.6788537 L-26.611999,59.7171309 L-26.5082795,59.7762865 C-26.8812209,59.9843752 -26.914356,60.204991 -27.5925882,60.1799368 C-28.0217901,60.0776324 -27.8126254,59.8660639 -27.9815794,59.8458814 C-27.9807165,59.810388 -28.0376673,59.7929893 -28.2407918,59.8312665 L-29.2372582,59.7874217 L-28.8387752,60.1896801 C-29.2805753,60.3880255 -29.7758747,60.1688016 -29.3161264,60.6239522 C-29.9910797,59.9224358 -33.0332878,60.3720187 -33.4478206,60.1541867 C-34.0665133,60.4471812 -34.6770949,60.4423095 -35.4336776,60.4068162 C-35.2455674,60.49033 -35.1328739,60.9420008 -35.785392,60.8863249 C-35.5468889,59.9544494 -36.9801507,60.4819786 -37.5075496,59.8110839 C-37.0362386,60.2557953 -39.3624198,59.9210439 -38.6229223,60.5529654 C-39.1672339,60.477107 -38.6558848,60.2035991 -39.0690369,59.9843752 C-40.3647539,60.3455727 -41.9245154,59.7498404 -43.5262135,59.8709355 C-43.5512373,59.9934225 -43.2828783,60.1813287 -43.6264814,60.3629714 L-44.4721145,59.7512323 C-44.7884503,59.8110839 -44.7634264,60.4576204 -45.3413908,60.0330916 C-45.2597613,60.1353961 -45.1379211,60.2912886 -45.3500197,60.3302618 C-48.4876635,59.7338336 -51.7616441,60.8188179 -54.9479549,59.6976443 C-54.5165095,59.9349628 -54.8040247,59.9586251 -55.1336491,59.9676724 C-54.919307,60.0240443 -55.1384813,60.2704102 -55.0963722,60.436046 L-56.4304015,59.9753279 C-56.6735641,60.4353501 -57.8607294,60.0066456 -58,60.4464852 L-57.5775286,60.3671471 C-58.1392706,60.8863249 -56.7912625,61.5217262 -56.8735822,62.1884452 C-56.2445348,61.5982806 -55.2149334,63.0632529 -54.1827433,62.217675 C-53.9549401,62.354081 -54.3770663,62.4327232 -54.2552261,62.5872239 C-53.9935976,62.3018848 -53.677607,62.2420332 -53.0920492,62.3700878 L-53.1583193,62.4410746 C-51.5134767,62.3707838 -50.8081497,62.6526431 -48.9603551,62.8405492 L-49.0972096,62.5106695 C-48.7001072,62.5552102 -48.6165794,62.6582106 -48.4307127,62.7403326 C-47.9749337,62.2413373 -49.5459129,62.7124947 -49.1306898,62.1613032 C-48.6039812,62.8321979 -46.3304363,62.1717424 -45.9745801,62.9338064 C-45.3636533,62.9379821 -46.1535437,62.5524264 -45.5429621,62.5566021 L-45.3809112,62.7632989 L-45.2266263,62.4974465 C-44.8260723,62.5405953 -44.6241559,62.7987923 -44.6091416,62.9734755 C-44.7063031,62.952597 -44.8854392,63.0228878 -44.9895039,63.0375028 C-44.4702161,63.2803889 -43.525178,62.9546848 -43.3467322,63.0333271 L-43.9336706,62.9066644 C-42.2665654,62.7131906 -40.2310058,62.9846106 -38.6205062,62.5649535 L-38.7426916,62.4097569 C-37.5127269,62.1216341 -37.7576154,62.5802644 -36.4071911,62.4473381 L-36.4562033,62.4842234 C-36.1859459,62.3297228 -35.8250849,62.2510806 -35.4555951,62.2691752 C-35.7966095,62.4508179 -34.8139494,62.6234132 -35.261272,62.8245424 C-33.9275879,62.5155411 -34.6015057,62.5816563 -33.7206667,62.0040187 L-33.5175421,62.2615198 C-33.2172561,62.0283769 -33.1922323,61.905194 -32.5177968,61.8383829 C-33.0709098,62.0596946 -32.0872142,62.231594 -32.7069425,62.5245885 C-31.2918014,63.088307 -30.6056306,61.9546064 -29.9562189,62.7800017 C-29.3062895,62.0659582 -31.1808336,62.3833109 -30.8170388,62.2302021 C-31.1218119,61.9970592 -30.2804933,61.6964093 -29.8362771,61.7680921 C-29.3842948,61.7840989 -29.0676139,62.6818729 -27.9304963,62.6686499 C-28.043535,62.6651701 -28.051301,62.7187582 -28.1641671,62.7159744 C-27.7385893,62.898313 -27.3300968,62.4696085 -26.8082204,62.7653868 C-26.5155278,62.3332025 -26.1303333,62.7904409 -26.0461152,62.2392494 L-27.0893502,62.3666081 C-26.4979248,62.2225467 -25.9432586,61.578098 -24.9688822,61.8905791 C-25.0448166,62.0019309 -25.3347479,62.1480801 -25.5339031,62.2295062 C-25.2489766,62.3916622 -24.9854497,62.1216341 -24.6899958,62.2886618 C-24.774214,62.8398533 -25.9577551,62.408365 -26.5914622,62.8287181 C-26.2856537,63.061165 -25.3929068,62.4292435 -25.7113135,63.0270635 C-25.2536362,62.2677833 -24.5907634,63.1224085 -23.820547,62.5426831 L-23.8714576,62.8732588 C-23.7494448,62.8210627 -23.4971355,62.6651701 -23.2727839,62.6735215 L-23.6788603,63.1015301 C-23.0553354,62.7368529 -22.4766807,63.4209706 -21.8786973,63.2226251 C-23.1309246,63.2323684 -22.1598272,62.8245424 -22.6891245,62.5837441 C-21.1447224,62.1411207 -21.8010372,63.4474166 -20.0718038,63.2894362 C-20.3059924,63.3353689 -20.9507445,63.0903949 -20.5847062,62.9379821 C-20.255427,63.0054891 -19.8207026,63.1321518 -19.6187861,63.3054431 C-18.4730396,63.2365441 -19.7946433,62.96582 -19.3069374,62.7632989 C-18.9169107,63.1655573 -18.7443325,62.599055 -18.2423026,62.4703045 L-18.2386784,62.8057518 C-16.9331245,63.0214959 -17.8924866,62.1063232 -16.7172292,62.3666081 L-17.2139092,62.8321979 L-16.6012567,62.7117987 L-16.7275839,63.0938746 C-16.061087,62.8106234 -15.8534755,62.8836981 -15.2002671,62.9908742 C-15.3521359,62.7542516 -15.1150135,62.381919 -14.536704,62.3707838 C-14.1423628,62.5705211 -14.757604,62.6902243 -13.9378577,62.6422038 C-14.1230341,62.8523804 -14.3256409,63.116145 -14.68236,62.8064477 C-14.7189465,62.9157117 -14.8649477,63.0173202 -14.9025697,63.1251923 C-14.4778548,63.3548554 -13.8351737,63.1773885 -13.5385118,63.1746047 C-13.6527586,63.1620776 -13.7892679,63.1446789 -13.8593346,63.0959625 L-12.6711339,62.6310686 C-12.4842317,62.7570354 -12.6324764,62.857948 -12.779513,62.9574686 C-12.5387664,62.9212793 -12.3722285,62.7674746 -12.0184432,62.7382448 C-12.1100822,63.0110567 -12.0881648,63.29222 -12.5889867,63.4209706 L-11.4568738,63.1182328 C-11.3812846,63.2365441 -10.8759757,63.4439369 -11.0228397,63.5448495 C-10.3953455,63.7049177 -9.48326982,63.0152324 -8.65127043,63.2274968 C-8.60795331,63.1739087 -8.52131906,63.1231045 -8.34425385,63.0848273 C-7.56230214,63.1460708 -6.86957334,63.4808222 -5.94265595,63.1070976 L-5.41663767,63.5963497 C-4.69077386,63.4849979 -6.12852265,62.979739 -4.91995768,62.7953126 C-4.0641425,62.63942 -4.60051547,63.2121859 -4.30022944,63.3485919 C-3.87465166,63.102226 -3.13480902,62.5997509 -2.34871542,62.9985296 C-2.60879074,63.0903949 -2.81295072,63.0180162 -3.05611337,63.0549015" id="Fill-115" fill="#870000" mask="url(#mask-2)" transform="translate(3.000000, 61.500000) rotate(90.000000) translate(-3.000000, -61.500000) "></path>
            <path d="M1.17449623,76.2050435 C1.10261189,76.1416522 1.0826159,76.0712174 1.06565727,76 C0.965677283,76.0633913 0.963652372,76.1369565 1.17449623,76.2050435" id="Fill-118" fill="#870000" mask="url(#mask-2)" transform="translate(1.500000, 76.500000) rotate(90.000000) translate(-1.500000, -76.500000) "></path>
            <path d="M0.0799839858,52.003913 C0.0665689502,52.0007826 0.0534070285,52.0023478 0.0399919929,52 C0.0179710854,52.021913 0.00632784698,52.0453913 0,52.068087 L0.0799839858,52.003913 Z" id="Fill-120" fill="#870000" mask="url(#mask-2)" transform="translate(0.500000, 52.500000) rotate(90.000000) translate(-0.500000, -52.500000) "></path>
            <path d="M0.253113879,103.19487 C0.122249803,103.14087 0.0491680896,103.071217 0.00053801529,103 C-0.00642865266,103.092348 0.052992927,103.170609 0.253113879,103.19487" id="Fill-122" fill="#870000" mask="url(#mask-2)" transform="translate(0.500000, 103.500000) rotate(90.000000) translate(-0.500000, -103.500000) "></path>
            <path d="M4.45789857,119 L4,119.097826 C4.2215044,119.079826 4.3005583,119.162 4.41230827,119.221478 C4.40217709,119.133826 4.31468055,119.006261 4.45789857,119" id="Fill-124" fill="#870000" mask="url(#mask-2)" transform="translate(4.500000, 119.500000) rotate(90.000000) translate(-4.500000, -119.500000) "></path>
            <path d="M2.1884483,125.227739 C2.27521367,125.180783 2.37232721,125.222261 2.45789857,125.176087 L2.4342172,125 C2.06466833,125.011739 1.80656124,125.152609 2.1884483,125.227739" id="Fill-126" fill="#870000" mask="url(#mask-2)" transform="translate(2.500000, 125.500000) rotate(90.000000) translate(-2.500000, -125.500000) "></path>
            <path d="M2,120.146057 C2.05624404,120.463796 2.5021449,120.356579 3,120.2971 C2.97020972,120.297883 2.94184938,120.301013 2.9120591,120.2971 C3.05886559,119.852579 2.52812202,119.999709 2,120.146057" id="Fill-128" fill="#870000" mask="url(#mask-2)" transform="translate(2.500000, 120.500000) rotate(90.000000) translate(-2.500000, -120.500000) "></path>
            <path d="M2,120.095965 C2.08285042,120.080312 2.16737329,120.072486 2.24842261,120.087356 C2.2799418,119.909704 2.14768988,120.050573 2,120.095965" id="Fill-130" fill="#870000" mask="url(#mask-2)" transform="translate(2.500000, 120.500000) rotate(90.000000) translate(-2.500000, -120.500000) "></path>
            <path d="M4.27553059,117.383261 C4.41522725,117.464653 4.3632996,116.977087 4.44231994,117.106218 C4.5985262,116.702392 3.51030331,117.595348 4.27553059,117.383261" id="Fill-132" fill="#870000" mask="url(#mask-2)" transform="translate(4.500000, 117.500000) rotate(90.000000) translate(-4.500000, -117.500000) "></path>
            <polygon id="Fill-134" fill="#870000" mask="url(#mask-2)" transform="translate(2.500000, 120.500000) rotate(90.000000) translate(-2.500000, -120.500000) " points="2.25311388 120.392087 2.15432165 120 2 120.316174"></polygon>
            <path d="M2.00047648,118.062731 L2.78866677,118.171514 C2.77686045,118.105775 2.87697809,118.066644 3,118.037688 C2.51428777,118.024384 1.98182249,117.946905 2.00047648,118.062731" id="Fill-136" fill="#870000" mask="url(#mask-2)" transform="translate(2.500000, 118.500000) rotate(90.000000) translate(-2.500000, -118.500000) "></path>
            <path d="M2,118.064957 C2.18251186,118.072783 2.35616227,118.064174 2.45789857,118 C2.35905928,118.003913 2.1463844,118.016435 2,118.064957" id="Fill-138" fill="#870000" mask="url(#mask-2)" transform="translate(2.500000, 118.500000) rotate(90.000000) translate(-2.500000, -118.500000) "></path>
            <polygon id="Fill-140" fill="#870000" mask="url(#mask-2)" transform="translate(2.500000, 119.500000) rotate(90.000000) translate(-2.500000, -119.500000) " points="2.45789857 119.110348 2.32274729 119.028957 2 119"></polygon>
            <path d="M2.96588187,110 L2.02035109,110.112696 C1.92405905,110.246522 2.18178951,110.328696 2.53373563,110.275478 C2.76032041,110.181565 3.1109688,110.129913 2.96588187,110" id="Fill-142" fill="#870000" mask="url(#mask-2)" transform="translate(2.500000, 110.500000) rotate(90.000000) translate(-2.500000, -110.500000) "></path>
            <path d="M2.25311388,113.298174 C2.10799329,113.216783 2.09826947,113.12913 2.01635369,113 L2,113.486 L2.25311388,113.298174 Z" id="Fill-144" fill="#870000" mask="url(#mask-2)" transform="translate(2.500000, 113.500000) rotate(90.000000) translate(-2.500000, -113.500000) "></path>
            <path d="M1.65241271,112 C1.56249634,112.135391 0.342556617,112.387391 1.48669907,112.35687 C1.57810166,112.223043 2.48197173,112.11113 1.65241271,112" id="Fill-146" fill="#870000" mask="url(#mask-2)" transform="translate(1.500000, 112.500000) rotate(90.000000) translate(-1.500000, -112.500000) "></path>
            <polygon id="Fill-148" fill="#870000" mask="url(#mask-2)" transform="translate(2.500000, 103.500000) rotate(90.000000) translate(-2.500000, -103.500000) " points="2 103.782609 2.23463657 103.776506 2.20097242 103"></polygon>
            <path d="M0.0792265882,94.6104348 C0.860901598,94.8013913 0.264822346,94.1181739 0.971172638,94.3568696 C1.15477664,94.1690435 0.393924565,94.1627826 0.582055289,94 C0.110189393,94.1987826 -0.137513043,94.086087 0.0792265882,94.6104348" id="Fill-150" fill="#870000" mask="url(#mask-2)" transform="translate(0.500000, 94.500000) rotate(90.000000) translate(-0.500000, -94.500000) "></path>
            <path d="M0,96.1213043 C0.0793597651,96.09 0.163667621,96.0516522 0.253113879,96 C0.109428933,96.0493043 0.0418684612,96.0876522 0,96.1213043" id="Fill-152" fill="#870000" mask="url(#mask-2)" transform="translate(0.500000, 96.500000) rotate(90.000000) translate(-0.500000, -96.500000) "></path>
            <polygon id="Fill-154" fill="#870000" mask="url(#mask-2)" transform="translate(4.500000, 4.500000) rotate(90.000000) translate(-4.500000, -4.500000) " points="4.45789857 4.16669565 4 4 4.29548226 4.26843478"></polygon>
            <path d="M2.45789857,3.50713043 L2.32887416,3 L2,3.4586087 C2.12369772,3.43669565 2.36379361,3.39286957 2.45789857,3.50713043" id="Fill-156" fill="#870000" mask="url(#mask-2)" transform="translate(2.500000, 3.500000) rotate(90.000000) translate(-2.500000, -3.500000) "></path>
            <mask id="mask-4" fill="white">
                <use xlink:href="#path-3"></use>
            </mask>
            <g id="Clip-159" transform="translate(0.500000, 65.500000) rotate(90.000000) translate(-0.500000, -65.500000) "></g>
            <path d="M0.248409975,65.2848696 L0.272678599,65.1627826 C0.223454503,65.0305217 0.149045985,65.0203478 0,65 L0.248409975,65.2848696 Z" id="Fill-158" fill="#870000" mask="url(#mask-4)" transform="translate(0.500000, 65.500000) rotate(90.000000) translate(-0.500000, -65.500000) "></path>
            <polygon id="Fill-161" fill="#870000" mask="url(#mask-4)" transform="translate(0.500000, 62.500000) rotate(90.000000) translate(-0.500000, -62.500000) " points="0.117673917 62.4484348 0.253113879 62.4593913 0 62"></polygon>
            <mask id="mask-6" fill="white">
                <use xlink:href="#path-5"></use>
            </mask>
            <g id="Clip-164" transform="translate(-0.500000, 56.500000) rotate(90.000000) translate(0.500000, -56.500000) "></g>
            <path d="M-0.993609786,56.2528126 C-0.816403039,56.2715952 -0.608150769,56.1698561 -0.430257174,56.1886387 C-0.816403039,56.2715952 -1.04155177,55.6799431 -0.993609786,56.2528126" id="Fill-163" fill="#870000" mask="url(#mask-6)" transform="translate(-0.500000, 56.500000) rotate(90.000000) translate(0.500000, -56.500000) "></path>
        </g>
    </g>
</svg>