<?xml version="1.0" encoding="utf-8"?>
<!-- Generator: Adobe Illustrator 21.1.0, SVG Export Plug-In . SVG Version: 6.00 Build 0)  -->
<svg version="1.1" id="Ebene_1" xmlns="http://www.w3.org/2000/svg" xmlns:xlink="http://www.w3.org/1999/xlink" x="0px" y="0px"
	 width="11.6px" height="142.3px" viewBox="0 0 11.6 142.3" style="enable-background:new 0 0 11.6 142.3;" xml:space="preserve">
<g>
	<path style="fill:#951D1D;" d="M8.4,142.2c0,0.2,0.4,0.1,0.5,0.2C8.8,142,8.3,142.2,8.4,142.2z"/>
	<polygon style="fill:#951D1D;" points="7.4,138.7 7.5,138.8 7.1,138.2 	"/>
	<path style="fill:#951D1D;" d="M7.4,135.4c-0.8,0.3,0.1,1.2-0.1,1.8l-0.2,0.1l0.6,0.3C7.6,136.9,7.2,135.9,7.4,135.4z"/>
	<path style="fill:#951D1D;" d="M9,133.7c-0.3,0.1-0.3-0.4-0.1,0.4c0,0,0.1-0.1,0.1-0.1C9,134,9,133.9,9,133.7z"/>
	<path style="fill:#951D1D;" d="M9,134C9,134.4,9.2,133.8,9,134L9,134z"/>
	<path style="fill:#951D1D;" d="M8.8,132.5l0.3,0.4c0.2-0.1,0.2-0.5,0.3-0.3C9.3,132.1,9.1,132.2,8.8,132.5z"/>
	<path style="fill:#951D1D;" d="M8.3,132l0.1,0.2C8.5,132.2,8.5,132.2,8.3,132z"/>
	<path style="fill:#951D1D;" d="M8.6,132.8l-0.2-0.5c-0.1,0.1-0.4,0.1,0.1,0.2C8.2,132.5,8.5,132.6,8.6,132.8z"/>
	<path style="fill:#951D1D;" d="M8.5,133.1c-0.2,0.3-0.3,0.6-0.5,0.1C8.1,134,8.6,133.9,8.5,133.1z"/>
	<path style="fill:#951D1D;" d="M6.6,135.3l-0.2,0.3l0.3,0.3C6.5,135.8,6.8,135.3,6.6,135.3z"/>
	<path style="fill:#951D1D;" d="M9.2,129.7c-0.2,0-0.4,0.2-0.6,0.2l0.2,0.3C8.9,130,9,129.7,9.2,129.7z"/>
	<path style="fill:#951D1D;" d="M8.6,129.9l-0.3-0.5C8.3,129.8,8.4,129.9,8.6,129.9z"/>
	<polygon style="fill:#951D1D;" points="7.4,132 8,132.8 7.4,131.8 	"/>
	<polygon style="fill:#951D1D;" points="9.2,127.8 9.6,128 9,127.5 	"/>
	<path style="fill:#951D1D;" d="M9.2,126.5c0.3,0.2,0.5-0.3,0.7-0.1c-0.1-0.3-0.3-0.6-0.6-0.9C9.5,125.8,9.4,126.1,9.2,126.5z"/>
	<path style="fill:#951D1D;" d="M9,125.1c0.1,0.1,0.2,0.3,0.3,0.4C9.3,125.4,9.2,125.3,9,125.1z"/>
	<path style="fill:#951D1D;" d="M8.4,128.5c0.1,0,0.4-0.1,0.5-0.4l-0.5,0.2C8.4,128.4,8.4,128.4,8.4,128.5z"/>
	<path style="fill:#951D1D;" d="M8.4,128.3L8.4,128.3c0-0.2,0-0.4,0-0.4C8.4,127.9,8.4,128.1,8.4,128.3z"/>
	<path style="fill:#951D1D;" d="M8.4,128.6C8.4,128.5,8.4,128.5,8.4,128.6C8.3,128.5,8.3,128.5,8.4,128.6z"/>
	<path style="fill:#951D1D;" d="M7.8,130.7c-0.3-0.3-0.5-0.9-0.9-0.3C7.2,130.6,7.5,130.2,7.8,130.7z"/>
	<path style="fill:#951D1D;" d="M7.8,128.8l-0.1,0.5c0.1,0,0.3-0.1,0.4,0L7.8,128.8z"/>
	<polygon style="fill:#951D1D;" points="7.7,128.5 7.8,128.8 7.9,128.6 	"/>
	<path style="fill:#951D1D;" d="M8.6,126c-0.2-0.2-0.2-0.5-0.2-0.8c-0.1,0.3-0.1,0.6-0.1,0.9C8.3,126.2,8.6,126.3,8.6,126z"/>
	<path style="fill:#951D1D;" d="M8.4,127.1C8.4,127.1,8.4,127.1,8.4,127.1C8.4,127.1,8.4,127.1,8.4,127.1z"/>
	<path style="fill:#951D1D;" d="M8.3,122.5C8.3,122.5,8.3,122.5,8.3,122.5C8.3,122.5,8.3,122.5,8.3,122.5L8.3,122.5z"/>
	<path style="fill:#951D1D;" d="M8.1,126.2c-0.1,0.2,0,0.4,0.2,0.5C8.2,126.5,8.2,126.4,8.1,126.2C8.1,126.1,8.1,126.1,8.1,126.2z"
		/>
	<path style="fill:#951D1D;" d="M8.8,124.3c-0.1,0.1-0.2,0.3-0.2,0.4C8.7,124.6,8.9,124.4,8.8,124.3z"/>
	<path style="fill:#951D1D;" d="M8.5,127C8.5,127,8.5,127,8.5,127C8.6,127,8.6,127,8.5,127z"/>
	<path style="fill:#951D1D;" d="M8.5,127c-0.1-0.1-0.2-0.2-0.3-0.3c0,0.1,0.1,0.3,0.2,0.4C8.4,127.1,8.5,127,8.5,127z"/>
	<path style="fill:#951D1D;" d="M5.4,121.6c0.4,0,0.8,0.6,0.4,1.2c0.3,0.5,1.7,0.2,2.5-0.3c-0.2,0-0.4,0-0.6-0.5
		c-0.2,0.2-0.5,1.2-0.9,0.7c-0.2-0.7,0.1-0.6,0.4-0.9c-0.5,0.3-0.8-0.9-1.5-0.7l0.3,0.6C5.7,121.7,5.5,121.5,5.4,121.6z"/>
	<path style="fill:#951D1D;" d="M8.2,123.5l0.1,0.2c0.1-0.2,0.2-0.4,0.6-0.7c-0.2-0.4-0.4-0.4-0.5-0.5L8.2,123.5L8.2,123.5z"/>
	<path style="fill:#951D1D;" d="M8.2,124.7c-0.5-0.2-0.7-0.7-1.1-0.4c0,0.6,0.4,0.4,0.6,0.8C7.6,124.1,7.9,125.4,8.2,124.7
		c0,0.2,0,0.4,0.1,0.6c0.1-0.2,0.1-0.4,0.2-0.5c0,0,0,0,0,0l0,0c0,0,0,0,0,0c-0.1,0-0.1,0.1-0.1,0c0,0,0,0,0,0
		C8.4,124.7,8.3,124.7,8.2,124.7c0.1-0.3,0.1,0,0.2,0c0,0,0,0,0.1,0c0,0,0,0,0,0l-0.3-1C8.2,123.9,8.2,124.2,8.2,124.7z"/>
	<path style="fill:#951D1D;" d="M5.9,129.8c0,0,0.1,0,0.1,0C6,129.7,6,129.7,5.9,129.8z"/>
	<path style="fill:#951D1D;" d="M6.2,129.4c0.1,0.1,0.2,0.1,0.2,0.4c-0.1,0.2-0.2,0-0.4,0c0.1,0.1,0.3,0.5,0.6,0.1l-0.1-0.1
		c0.2-0.4,0.7-0.9,0.8-0.9C6.9,129,6.6,129.1,6.2,129.4z"/>
	<path style="fill:#951D1D;" d="M7.1,127l-0.2-0.8l-0.4,0.4l0.2,0C6.6,127.1,6.9,126.9,7.1,127z"/>
	<polygon style="fill:#951D1D;" points="8.5,122.4 9,122.5 8.3,122 	"/>
	<polygon style="fill:#951D1D;" points="8.5,121.3 8.9,121.3 8.6,121 	"/>
	<path style="fill:#951D1D;" d="M3.3,59.1l-0.1-0.2C3.2,58.9,3.2,59,3.3,59.1z"/>
	<path style="fill:#951D1D;" d="M3.2,60.9l0.2,0C3.3,60.8,3.2,60.8,3.2,60.9z"/>
	<path style="fill:#951D1D;" d="M8.4,94.2c0.4-0.4,1-0.8,0.5-0.7l-0.5,0.1C8.6,93.8,8.5,94,8.4,94.2z"/>
	<path style="fill:#951D1D;" d="M5.7,75.6c0,0-0.1,0.1-0.1,0.1C5.7,75.8,5.8,75.9,6,76C5.9,75.9,5.8,75.8,5.7,75.6z"/>
	<path style="fill:#951D1D;" d="M3.8,75.4l0.3-0.5C4,75,3.9,75.2,3.8,75.4z"/>
	<path style="fill:#951D1D;" d="M2.8,49.2l-0.5-0.3C2.3,49.4,2.5,49.2,2.8,49.2z"/>
	<path style="fill:#951D1D;" d="M8.3,110c0.2-0.3,0.3-0.6,0.3-0.8C8.3,109.6,7.9,109.9,8.3,110z"/>
	<path style="fill:#951D1D;" d="M8.2,59.8c-0.1-0.2-0.2-0.2-0.3-0.2C8,59.7,8,59.8,8.2,59.8z"/>
	<path style="fill:#951D1D;" d="M8.6,108.3c0,0.1-0.1,0.1-0.1,0.2c0.1,0.2,0.1,0.5,0.1,0.7C8.8,108.9,8.9,108.6,8.6,108.3z"/>
	<path style="fill:#951D1D;" d="M3.2,13.4C3.2,13.4,3.2,13.4,3.2,13.4C3.1,13.4,3.1,13.4,3.2,13.4z"/>
	<path style="fill:#951D1D;" d="M7.8,3c0,0.1,0,0.3,0,0.4C7.9,3.4,7.9,3.2,7.8,3z"/>
	<path style="fill:#951D1D;" d="M8.7,116.8C8.7,117.1,8.7,116.9,8.7,116.8L8.7,116.8z"/>
	<path style="fill:#951D1D;" d="M6.9,118c-0.1,0-0.1-0.1-0.2-0.1C6.7,117.9,6.8,117.9,6.9,118z"/>
	<path style="fill:#951D1D;" d="M5.7,106C5.7,106,5.7,106,5.7,106C5.6,106,5.6,106,5.7,106z"/>
	<path style="fill:#951D1D;" d="M8.5,117.2c0.1-0.1,0.1-0.2,0.1-0.3C8.6,116.9,8.5,117,8.5,117.2z"/>
	<path style="fill:#951D1D;" d="M8.7,117.1c0,0.1,0,0.1,0,0.2C8.7,117.4,8.8,117.3,8.7,117.1z"/>
	<path style="fill:#951D1D;" d="M8.7,116.5c0,0.1,0,0.3,0,0.4c0,0,0.1-0.1,0.1-0.1C8.7,116.8,8.7,116.7,8.7,116.5z"/>
	<path style="fill:#951D1D;" d="M4.4,32.6C4.4,32.6,4.4,32.6,4.4,32.6C4.2,32.3,4.3,32.4,4.4,32.6z"/>
	<path style="fill:#951D1D;" d="M3.6,88.1C3.7,88.1,3.7,88.1,3.6,88.1C3.7,88.1,3.7,88.1,3.6,88.1L3.6,88.1z"/>
	<path style="fill:#951D1D;" d="M3.3,87.3c0.6,0.4,0.5,0.6,0.4,0.8L5,87.8L3.3,87.3z"/>
	<path style="fill:#951D1D;" d="M3.1,54.7l-0.4,0.6c-0.7-0.7-0.4-1.2-1-0.7c1.4,0.1,0.1,2.3,1.6,2.4L3,57.4c0-0.1-0.1-0.1-0.1-0.2
		c-0.7,0.8,1,0.6,0.8,1.5c-0.1,0.3-0.3,0.6-0.5,0.3l0.4,0.8c0,0.2-0.3,0.2-0.3-0.1l0.1,1.2l0,0c0.2,0.2,0.6,0.5,0.7,0.7
		C4,61.9,4,61.5,3.8,61.5l0.3,0.6c-0.4,0.3-0.7-0.3-0.7-0.7C2.1,62.1,3.9,62,3,63.3l-0.2-0.6c-0.8,0.4-0.5,0.9-1,1.5
		c0.3-0.2,1.3-1.4,1.6-0.7c-0.1,0.2-0.2,0.5,0.1,0.8c-0.5,0-0.4,0.4-0.4,0.8l-0.7,0c0.2,0.5,0.5,0.5,0.8,0.7c-0.1,0.6-0.6,0.7-1,0.8
		c-0.1,0.9,0.8-0.6,1,0.4c-0.3,0.7,0,1.2,0.4,2.1c-0.2,0.5-0.4-0.1-0.6,0.1l0.5,0.5c0,0.1-0.2,0.1-0.3,0.1c0.2,0.4,0.7,0,0.9,0.6
		c0.7,0.2-1.1,1.2-0.2,2c-0.2,0.2-0.4-0.1-0.7,0c0.6,1,0.4,0.9,1.2,1.7l-0.4,0.7c0.5-0.5,1.1,0.1,1.6,0.7c0.2-0.2,0.5-0.3,0.6-0.5
		l0.4,0.9c-0.1,0.1-0.3,0-0.6-0.1c0.1,0.1,0.1,0.1,0.2,0.2c-0.3,0.3-0.6,0.2-1-0.1c0.1-0.1,0.3-0.2,0.4-0.3
		c-0.4-0.2-0.9-0.4-1.3-0.4c0.1,0.1,0.1,0.2,0.2,0.3c-0.1-0.1-0.2-0.1-0.3-0.1c-0.1,0,0.1,0.1,0.3,0.3l-0.8,0.2L4,76.1l-0.5,1.2
		c0.8,0.9,1.9,1.6,2.2,3c-0.6-0.3-0.9-0.1-1.6-0.1c0.7-0.4-0.3-1.1-0.2-1.8c-0.1,0.4-0.4,0.3-0.5,0.2L4.1,80c-0.5,0-0.4,0.3-0.6,0.6
		c1.1-0.3,0.7,1,1,1.5c-0.4,0-0.7-0.1-0.6-0.7c-0.8,0.7,1.2,0.9,0.6,1.6c0-0.2,0-0.2-0.1-0.3c0.3,0.4,0.1,1.3-0.2,1l0-0.2
		c-0.1,1,0,3.2,0.9,3.3c-0.1,0-1.1-0.1-1.3-0.2l3,1.9C6,88.4,4.1,89,3.7,88.1c-0.1,0.2-0.2,0.6,0,1.1C3.8,89,4.8,88.8,4.9,89
		c-0.9,0.6-0.5,0.4-1.2,1.2c0.2-0.3,1.4,0,1.3,0.4c-0.2-0.1-1.2,0-1.3-0.1l1.2,1c-0.2-0.2-1,0-1.4,0.2c0.2-0.1,0,0.9,0.1,1.1
		l0.3-0.4c-0.2,1.1,1.7,1.1,1.6,2.2c-0.2-0.1-1.5-0.3-1.7,0.2C4.5,95.1,6.8,96,7.3,97l-0.3,0.2L7.3,98c-0.9-0.5-2.9-1.8-3.6-2.5
		c-0.3,0.4-0.4,0.1-0.4,0.7c-0.3,0.2-0.5-0.3-0.5-0.5l-0.2,1.5c0.7-0.1,0.7,1.1,1.3,1.1l-0.7-1.6c0.7-0.1,2,0.9,1.9,2
		c-0.3,0.3-1.3-0.2-1.5-0.2c0.2,0.1,0.5,1,0.3,1.1L3.5,99c-0.3,0.6,0.9,0.9,0.3,1.6c0,0.2-0.9,0.7-0.5,0.8c0.8-0.4,3.3-0.5,3.9-0.2
		c-0.1,0.1-0.8,1.3-1.2,1.5c-0.6,0.4-1.5-0.6-2.1-0.3c0.2,0,0.4,0.2,0.5,0.3c-0.2,0.3-0.6-0.1-0.5,0.4c0.7,0.1-0.1,1.1,0.6,0.3
		c0.2,0.5-0.1,0.6-0.1,1.2c0.5-0.2,1.6,0.6,1.8,1.1c-0.2,0-0.4,0.1-0.5,0.1c-0.1,1.1-0.4,1.7-0.4,2.7c-0.2,0.1-0.4,0.6-0.7,0.4
		c0.1,0.1,0.4,0.3,0.4,0.6c-0.6,0.6-0.1-0.7-0.9-0.2c0.4,0,0.6,0.8,0.8,1.3c0.7-0.1,0.1-1-0.1-1.5c0.9,0,1.8,0.8,2.3,1.9
		c0.2,0.8-0.6,0.4-0.5,0.5c-0.2,1.6,1.6,1.4,0.9,2.7c-0.6,0.5-1.1,0-1.5,0.1c-0.2-0.7,0.4-1.1,0.3-1.5l-0.3,0.6
		c-0.2-0.2-0.3-0.7-0.2-0.9c-0.5,0.4-0.1,2.7-0.6,3.9c0.2,0.2,0.4,0.6,0.6,0.4l-0.1-0.4c0.5-0.4,0.6,0.7,0.9,0.2
		c0.3,0.5,0.8,1.1,0.6,1.8l-0.7,0.1c0.2,0,0.4-0.5,0.2-0.7c0.3,0.3-0.9,1.1,0,1.5l0.5-0.5c0.3,0.5,1,1.2,0.8,1.8
		c0.6-0.3-0.1-0.1,0.7-0.6c-0.9,0.4,0-1.7-0.9-1c0.9-0.5,0.4-0.8,1.1-1.4c-0.2,0-0.4,0.2-0.3-0.3c-0.1,0-0.1-0.1-0.2-0.1
		c0,0,0,0,0,0c0,0,0,0,0,0c0,0,0,0,0,0c-0.1,0.1-0.2,0.2-0.3,0.3c-0.5-0.3-0.5-1.1-0.7-1.4c0.1-0.3,0.2,0.1,0.5,0l-0.4-0.4
		c0.5,0,0.8-0.9,1.1-0.1l0-0.7c0.3-0.4,0.4-1,0.2-1.3c0.1-0.3-0.5-0.8-0.2-0.5l-0.3-1.1l0.1,0c0.1-1.1-0.8-2.2,0.1-3.4
		c-0.1-0.4-0.3-0.7-0.1-1.3l0.4-0.1c-0.1-0.5,0.4-1.4,0-1.6c1.1-0.5,0.2-2.2,0.4-3l-0.5,0c0-0.6-0.1-1.1-0.3-1.8l-0.5,0
		c-0.4-0.6,0.3-1.5,0.3-2.5c0.2,0.1,0.1,0.3,0,0.5c1.1-1.1-0.8-2.4,0-3.4C8,95,8,94.8,8.1,94.6c0,0,0,0,0,0.1c0,0,0-0.1,0-0.1
		c0.1-0.1,0.2-0.2,0.3-0.4c-0.1,0.1-0.2,0.2-0.3,0.3c0-0.2-0.1-0.5-0.2-0.8l0.5-0.1c0,0,0,0,0-0.1c0.2-0.3-0.2-0.2-0.6-0.1
		c-0.1-0.1-0.2-0.3-0.3-0.4c0.8-0.2-0.3-0.8,0.6-1.1c-0.4-0.2-0.3-1.5-1.2-1.6c0.1,0,0.2-0.1,0.2,0.1c0.1-0.3,0.2-0.7,0-0.9l0.7-0.1
		l-0.9-0.7C7.2,88.2,7.5,88,8,88.4c-0.8-1-0.3-0.8-1.1-1.7l0.4,0c0-0.3-0.6-0.8-0.2-1C7.9,85,7.2,82.3,8,80.4
		c-1.2,0.4,0.6-0.8-0.4-0.9c0.3-0.1,0.5-0.4,0.7-0.1c-0.3-0.9,0.5-1.4-0.3-2c0.3-0.1,0.4,0.2,0.6,0.1c-0.1-0.1-0.3-0.3-0.1-0.4
		c0.2-0.1,0.2,0.1,0.4,0.3c0-0.9-1-1-1.8-1.1c0.4-0.5,0.3-0.7-0.2-1.1c0.3-0.2,0.6-0.4,0.7,0.1c0-0.3,0.4-2-0.3-2
		c0.2-0.1,0.1-0.5,0-0.5c0-0.7,0.1-0.8,0-1.5l-0.1,0.2c-0.8-0.3-0.2-0.6-0.3-1.2l0.1,0c0.6-1.3-0.3-0.6,0.4-1.9l-0.5,0.1
		c-1.1-0.1,0.6-1.2,0.2-1.9l-0.3,0.3c-0.4-0.4,1.5-1.2,1.6-1.6c0.1-0.1,0.2,0.1,0.2,0.3c0.6-1.1-0.7-0.1-0.8-1
		c0.4-0.2,0.9,0.2,1-0.4c0.3-0.3-1.2-1.6-0.5-2.4C8,62,7.7,62.1,7.5,61.8c-0.1-0.6,1-1.6,0.2-2.1c0.1-0.1,0.1-0.1,0.2-0.1
		c-0.2-0.4-0.4-1.5-0.8-1.7c1.8-0.4-0.9-2.8,0.8-2.8l-0.1-1.4l0.2,0c0.1-0.9-0.3-1.2-0.7-1.5c0.1-0.2,0.3-0.1,0.3,0
		c0.3-1.3,0.3-1.4-0.6-2.5l0.5-0.1c-0.3-0.3,0.8-1.9,0.2-3.1c0.1,0,0.2,0,0.2,0.1c-0.6-1.4,1.5-3.4-0.5-3.9L7,41.7
		c-0.1,1.2-0.8-0.2-1.2,0.3c-0.1-0.5,0.6-1.2,0.7-0.6l-0.1,0.1c1,0.2,0.4-1.5,1-1.5c0-2.4,0.5-4.7,0.5-6.9l-0.8,0.3l0-0.8
		c0.2-0.2,0.6-0.3,0.6,0.3c0.4-0.3-0.4-0.9-0.5-0.9c0.3-1.1,0.9,0.4,0.9,0.1l-0.1-0.5l-0.1,0.1c-0.3-0.4-0.7-0.4-0.6-1.1
		C7.7,30.1,8,30.4,8,30.2c0.1,0,0.1-0.1,0-0.3l0.1-1l-0.6,0.4c-0.3-0.4,0-0.9-0.7-0.5c1.1-0.7,0.4-3.7,0.7-4.1
		c-0.4-0.6-0.4-1.2-0.4-2C7,23,6.4,23.1,6.4,22.5c1.4,0.2,0.6-1.2,1.6-1.7C7.4,21.3,7.9,19,7,19.7c0.1-0.5,0.5,0,0.9-0.4
		C7.3,18,8.2,16.5,8,14.9c-0.2,0-0.5,0.2-0.8-0.1L8.2,14c-0.1-0.3-1.1-0.3-0.4-0.9c-0.2,0.1-0.4,0.2-0.5,0c0.9-3.1-0.7-6.3,1-9.5
		C7.9,4.1,7.9,3.8,7.8,3.5c-0.1,0.2-0.5,0-0.7,0l0.7-1.3c-0.7-0.2,0-1.4-0.7-1.5L7.2,1C6.4,0.5,5.5,1.8,4.5,1.7
		c0.9,0.6-1.3,1.6,0,2.6C4.2,4.6,4.1,4.2,3.8,4.3c0.4,0.3,0.5,0.6,0.3,1.1L4.1,5.4C4.2,7,3.7,7.7,3.5,9.5L4,9.4
		c-0.1,0.4-0.2,0.5-0.4,0.7c0.8,0.4,0-1.1,0.9-0.7c-1,0.5,0,2.8-1.2,3.1c0,0.6,0.6-0.2,0.6,0.4l-0.3,0.2L4,13.2
		c-0.1,0.4-0.5,0.6-0.7,0.6c0-0.1-0.1-0.3-0.1-0.4c-0.4,0.5,0.1,1.4,0,1.6l0.2-0.6c0.3,1.6-0.1,3.6,0.5,5.2l0.2-0.1
		c0.4,1.2-0.3,1-0.1,2.3l-0.1,0c0.2,0.3,0.4,0.6,0.3,1c-0.3-0.3-0.5,0.6-0.8,0.2c0.5,1.3,0.4,0.6,1.3,1.5l-0.4,0.2
		c0.4,0.3,0.5,0.3,0.6,1c-0.3-0.5-0.6,0.4-1-0.2c-0.9,1.4,0.9,2.1-0.4,2.7c1.1,0.6,0.6-1.2,0.8-0.8c0.4-0.3,0.8,0.5,0.7,1
		c0,0.4-1.4,0.8-1.4,1.9c0-0.1-0.1-0.1-0.1-0.2c-0.3,0.4,0.4,0.8-0.1,1.3c0.7,0.3,0,0.7,0.8,0.8l-0.2-1c0.2,0.6,1.2,1.1,0.7,2.1
		c-0.2-0.1-0.4-0.4-0.5-0.6c-0.2,0.3,0.2,0.5-0.1,0.8c-0.8-0.1-0.2-1.2-0.8-1.9c-0.4,0.3,0.6,1.2-0.3,0.9c1.2,0.5-0.1,1.1,0.7,1.9
		l-0.5,0c0.1,0.1,0.3,0.4,0.3,0.6l-0.7-0.4c0.6,0.6-0.5,1.2-0.2,1.8c0-1.2,0.6-0.3,1-0.8c0.7,1.5-1.3,0.9-1.1,2.6
		c-0.1-0.2,0.3-0.9,0.5-0.5c-0.1,0.3-0.3,0.8-0.6,1c0.1,1.1,0.5-0.2,0.8,0.3c-0.6,0.4,0.3,0.6,0.4,1l-0.5,0
		c-0.3,1.3,1.1,0.3,0.7,1.5l-0.7-0.5l0.2,0.6l-0.6-0.1c0.4,0.7,0.3,0.9,0.2,1.5c0.4-0.1,0.9,0.1,0.9,0.7c-0.3,0.4-0.5-0.2-0.4,0.6
		c-0.3-0.2-0.7-0.4-0.3-0.7c-0.2,0-0.3-0.2-0.5-0.2c-0.4,0.4-0.1,1.1-0.1,1.3c0-0.1,0-0.2,0.1-0.3l0.7,1.2c-0.2,0.2-0.3,0-0.5-0.1
		c0.1,0.2,0.3,0.4,0.3,0.7c-0.4-0.1-0.8-0.1-1-0.6L3,46.5c-0.2,0.1-0.5,0.6-0.7,0.4c-0.2,0.6,0.8,1.5,0.5,2.3c0.1,0,0.2,0.1,0.2,0.3
		c-0.1,0.8-0.6,1.5,0,2.4l-0.7,0.5c0.2,0.7,0.9-0.7,1.2,0.5c0.2,0.8-0.6,0.3-0.8,0.6c0.4,0.4,1.1,1.1,0.5,1.9
		C3.1,55.2,3.2,55,3.1,54.7z M3.5,63.5C3.4,63.4,3,63,3.3,62.9C3.9,63.1,3.6,63.3,3.5,63.5z M4.7,76.9c-0.2-0.1-0.1-0.3,0.1-0.5
		C4.8,76.6,4.8,76.7,4.7,76.9z M8.3,114.3C8.3,114.3,8.3,114.3,8.3,114.3C8.4,113.9,8.4,114,8.3,114.3z M8,115.1
		c0.1,0.1,0.1,0.1,0.2,0c-0.1-0.1-0.1-0.2-0.1-0.4C8,114.7,7.9,114.8,8,115.1z M7.8,30.1l-0.1,0.2C7.6,29.9,7.7,30,7.8,30.1z"/>
	<path style="fill:#951D1D;" d="M4,75.4c0.1,0,0.2-0.1,0.3-0.1C4.2,75.3,4.1,75.3,4,75.4z"/>
	<path style="fill:#951D1D;" d="M2.9,49.2C2.9,49.2,2.9,49.2,2.9,49.2C2.8,49.2,2.8,49.2,2.9,49.2L2.9,49.2z"/>
	<path style="fill:#951D1D;" d="M3.7,102.8c0.1-0.2,0.2-0.3,0.3-0.3C3.8,102.5,3.7,102.6,3.7,102.8z"/>
	<path style="fill:#951D1D;" d="M8.9,119.3l-0.1-0.5c0,0.2-0.1,0.3-0.2,0.5C8.7,119.2,8.9,119.1,8.9,119.3z"/>
	<path style="fill:#951D1D;" d="M5.7,123.7c0.1,0.1,0,0.2,0.1,0.2l0.2,0C6,123.6,5.8,123.3,5.7,123.7z"/>
	<path style="fill:#951D1D;" d="M7.2,119.7c-0.4,0-0.3,0.4-0.2,0.7c0,0,0,0,0-0.1C7.6,120.5,7.4,120.1,7.2,119.7z"/>
	<path style="fill:#951D1D;" d="M7,120.5c0,0.1,0,0.2,0,0.3C7.3,120.9,7.1,120.7,7,120.5z"/>
	<path style="fill:#951D1D;" d="M8.3,116.1c-0.1,0.2,0.6,0.1,0.4,0.2C9.3,116.5,8,115.1,8.3,116.1z"/>
	<polygon style="fill:#951D1D;" points="5.8,120 6.3,119.9 5.9,119.7 	"/>
	<path style="fill:#951D1D;" d="M6.2,117.2L6,117.8c0.1,0,0.1,0.1,0.2,0.2C6.2,117.6,6.3,117.2,6.2,117.2z"/>
	<path style="fill:#951D1D;" d="M6.2,117.9c0,0.2,0,0.4,0.1,0.5C6.3,118.3,6.3,118.1,6.2,117.9z"/>
	<polygon style="fill:#951D1D;" points="5.6,119.2 5.7,119.1 5.8,118.7 	"/>
	<path style="fill:#951D1D;" d="M6.3,111.1l-0.2-0.6c-0.2-0.1-0.3,0.1-0.2,0.3C6,111,6.1,111.2,6.3,111.1z"/>
	<path style="fill:#951D1D;" d="M4.8,113c0.1-0.2,0.2-0.2,0.4-0.3l-0.7,0L4.8,113z"/>
	<path style="fill:#951D1D;" d="M4.7,111.2c-0.2-0.1-0.5-0.9-0.5-0.1C4.4,111.1,4.5,111.7,4.7,111.2z"/>
	<polygon style="fill:#951D1D;" points="5.5,101.9 5.5,102 6.6,102 	"/>
	<path style="fill:#951D1D;" d="M2.9,93.6c-0.3,0.7,0.7,0.2,0.3,0.8c0.3,0.2,0.3-0.5,0.5-0.4C3.5,93.7,3.6,93.4,2.9,93.6z"/>
	<path style="fill:#951D1D;" d="M3.7,94.1c0,0.1,0.1,0.1,0.2,0.2C3.8,94.2,3.8,94.1,3.7,94.1z"/>
	<polygon style="fill:#951D1D;" points="8.4,1.3 8.6,0.8 8.3,1.1 	"/>
	<path style="fill:#951D1D;" d="M7.6,0.4l0.7-0.1L7.7,0C7.7,0.1,7.7,0.3,7.6,0.4z"/>
	<path style="fill:#951D1D;" d="M2.1,64.9l0.2,0c0.2-0.1,0.2-0.2,0.2-0.4L2.1,64.9z"/>
	<polygon style="fill:#951D1D;" points="2.6,58.5 2.6,58.6 3.2,58.4 	"/>
	<path style="fill:#951D1D;" d="M1.8,53.1c0,0.2,0.1,0.5,0.1,0.7C1.8,53.3,2.6,53,1.8,53.1z"/>
</g>
</svg>
